<?xml version="1.0" standalone="no"?>
<!DOCTYPE svg PUBLIC "-//W3C//DTD SVG 1.1//EN" "http://www.w3.org/Graphics/SVG/1.1/DTD/svg11.dtd" >
<svg>
<metadata>
Created by FontForge 20090914 at Wed Dec 25 22:08:19 2019
 By www-data
&#194;&#169; 2019 Microsoft Corporation. All Rights Reserved.
</metadata>
<defs>
<font id="CascadiaCode-Regular" horiz-adv-x="1200" >
  <font-face 
    font-family="Cascadia Code"
    font-weight="400"
    font-stretch="normal"
    units-per-em="2048"
    panose-1="2 11 6 9 2 0 0 2 0 4"
    ascent="1568"
    descent="-480"
    x-height="1060"
    cap-height="1420"
    bbox="-3360 -750 1384 2226"
    underline-thickness="50"
    underline-position="-75"
    unicode-range="U+0009-U+2BCB"
  />
<missing-glyph horiz-adv-x="1024" 
d="M102 0v1045h820v-1045h-820zM204 102h616v841h-616v-841z" />
    <glyph glyph-name=".notdef" horiz-adv-x="1024" 
d="M102 0v1045h820v-1045h-820zM204 102h616v841h-616v-841z" />
    <glyph glyph-name="uni0009" unicode="&#x9;" 
 />
    <glyph glyph-name="space" unicode=" " 
 />
    <glyph glyph-name="exclam" unicode="!" 
d="M502 456l-6 974h208l-10 -974h-192zM600 -20c-40.667 0 -75.5 14.5 -104.5 43.5s-43.5 63.833 -43.5 104.5c0 41.333 14.5 76.333 43.5 105s63.833 43 104.5 43c41.333 0 76.333 -14.333 105 -43s43 -63.667 43 -105c0 -40.667 -14.333 -75.5 -43 -104.5
s-63.667 -43.5 -105 -43.5z" />
    <glyph glyph-name="quotedbl" unicode="&#x22;" 
d="M302 780l-20 640h232l-20 -640h-192zM706 780l-20 640h232l-20 -640h-192z" />
    <glyph glyph-name="numbersign" unicode="#" 
d="M254 0l30 360h-164v170h179l30 360h-209v170h224l30 360h176l-30 -360h260l30 360h176l-30 -360h164v-170h-179l-30 -360h209v-170h-224l-30 -360h-176l30 360h-260l-30 -360h-176zM475 530h260l30 360h-260z" />
    <glyph glyph-name="dollar" unicode="$" 
d="M544 -320l0.00195312 299.998c-158.667 0.666992 -297 26.667 -415 78l26 202c68.667 -29.333 135.334 -52.166 200.001 -68.499s127.667 -25.5 189 -27.5v461l-77 35c-96.667 44 -170.834 97 -222.501 159s-77.5 139 -77.5 231c0 112 32.667 201.167 98 267.5
s158.333 105.833 279 118.5v304h138v-302c75.333 -5.33301 143.166 -22.166 203.499 -50.499s118.833 -70.5 175.5 -126.5l-140 -142c-84.667 76 -164.334 120.333 -239.001 133v-455l53 -25c105.333 -49.333 185.333 -105 240 -167s82 -141.667 82 -239
c0 -222 -125 -348.333 -375 -379v-307h-138zM527.002 869.998l17 -8v386c-108.667 -21.333 -163 -84 -163 -188c0 -46 12.333 -83.5 37 -112.5s61 -54.833 109 -77.5zM713.002 547.998l-31 14.001v-387c107.333 23.333 161 85.666 161 186.999
c0 84.667 -43.333 146.667 -130 186z" />
    <glyph glyph-name="percent" unicode="%" 
d="M368 794c-94.667 0 -170.667 29.5 -228 88.5s-86 136.833 -86 233.5c0 98 28.667 176.5 86 235.5s133.333 88.5 228 88.5c94 0 169.5 -29 226.5 -87s85.5 -137 85.5 -237c0 -96.667 -28.5 -174.5 -85.5 -233.5s-132.5 -88.5 -226.5 -88.5zM368 957
c39.333 0 71 14.667 95 44s36 67.666 36 114.999c0 49.333 -12 88.833 -36 118.5s-55.667 44.5 -95 44.5c-40.667 0 -73 -14.833 -97 -44.5s-36 -69.167 -36 -118.5c0 -47.333 12 -85.666 36 -114.999s56.333 -44 97 -44zM186 306l-92 136l930 664l92 -130zM854 -20
c-94.667 0 -170.667 29.5 -228 88.5s-86 136.833 -86 233.5c0 98 28.667 176.5 86 235.5s133.333 88.5 228 88.5c94 0 169.5 -29.5 226.5 -88.5s85.5 -137.5 85.5 -235.5c0 -96.667 -28.5 -174.5 -85.5 -233.5s-132.5 -88.5 -226.5 -88.5zM854 143c39.333 0 71 14.667 95 44
s36 67.666 36 114.999c0 48.667 -12 87.667 -36 117s-55.667 44 -95 44c-40.667 0 -73 -14.667 -97 -44s-36 -68.333 -36 -117c0 -47.333 12 -85.666 36 -114.999s56.333 -44 97 -44z" />
    <glyph glyph-name="ampersand" unicode="&#x26;" 
d="M462 -20c-122 0 -220.166 33.166 -294.499 99.499s-111.5 154.5 -111.5 264.5c0 92.667 25 171.167 75 235.5s121.333 110.5 214 138.5c-82 116.667 -123 224.667 -123 324c0 127.333 35.5 225.5 106.5 294.5s171.5 103.5 301.5 103.5c114 0 202.5 -27.667 265.5 -83
s94.5 -133.666 94.5 -234.999h-214c0 43.333 -12.333 76.5 -37 99.5s-59.667 34.5 -105 34.5c-60.667 0 -107.834 -18.667 -141.501 -56s-50.5 -90.666 -50.5 -159.999c0 -48.667 13 -96.167 39 -142.5s61 -95.5 105 -147.5l265 -312c32.667 90.667 49 200 49 328h192
c0 -196.667 -34.667 -359.334 -104 -488.001l236 -278h-262l-102 116c-104 -90.667 -236.667 -136 -398 -136zM258.001 353.999c0 -56.667 20.8311 -102.499 62.498 -137.499s96.834 -52.5 165.501 -52.5c100.667 0 184.334 31 251.001 93l-271 309
c-6.66699 7.33301 -13 14.666 -19 21.999c-126 -48.667 -189 -126.667 -189 -234z" />
    <glyph glyph-name="quotesingle" unicode="'" 
d="M502 780l-20 640h232l-20 -640h-192z" />
    <glyph glyph-name="parenleft" unicode="(" 
d="M950 -200c-216.667 0 -384.834 79.833 -504.501 239.5s-179.5 385.167 -179.5 676.5c0 287.333 59.833 509.833 179.5 667.5s287.834 236.5 504.501 236.5h48l-20 -180h-8c-158 0 -279.833 -63.333 -365.5 -190s-128.5 -304.667 -128.5 -534
c0 -233.333 42.833 -414.333 128.5 -543s207.5 -193 365.5 -193h8l20 -180h-48z" />
    <glyph glyph-name="parenright" unicode=")" 
d="M202 -200l20 180h8c158 0 279.833 64.333 365.5 193s128.5 309.667 128.5 543c0 229.333 -42.833 407.333 -128.5 534s-207.5 190 -365.5 190h-8l-20 180h48c217.333 0 385.666 -78.833 504.999 -236.5s179 -380.167 179 -667.5c0 -291.333 -59.667 -516.833 -179 -676.5
s-287.666 -239.5 -504.999 -239.5h-48z" />
    <glyph glyph-name="asterisk" unicode="*" 
d="M372 258l-166 140l253 260l-349 100l74 204l332 -148l-26 362h216l-26 -362l332 148l74 -204l-349 -100l253 -260l-166 -140l-226 313z" />
    <glyph glyph-name="plus" unicode="+" 
d="M504 190v427h-404v186h404v425h192v-425h404v-186h-404v-427h-192z" />
    <glyph glyph-name="comma" unicode="," 
d="M402 -436l80 690h232l-120 -690h-192z" />
    <glyph glyph-name="hyphen" unicode="-" 
d="M100 616v186h1000v-186h-1000z" />
    <glyph glyph-name="period" unicode="." 
d="M600 -20c-40.667 0 -75.5 14.5 -104.5 43.5s-43.5 63.833 -43.5 104.5c0 41.333 14.5 76.333 43.5 105s63.833 43 104.5 43c41.333 0 76.333 -14.333 105 -43s43 -63.667 43 -105c0 -40.667 -14.333 -75.5 -43 -104.5s-63.667 -43.5 -105 -43.5z" />
    <glyph glyph-name="slash" unicode="/" 
d="M104 -190l804 1800h212l-804 -1800h-212z" />
    <glyph glyph-name="zero" unicode="0" 
d="M600 -20c-322.667 0 -484 240 -484 720c0 493.333 161.333 740 484 740s484 -246.667 484 -740c0 -480 -161.333 -720 -484 -720zM600 164c180 0 270 178.667 270 536c0 370.667 -90 556 -270 556s-270 -185.333 -270 -556c0 -357.333 90 -536 270 -536zM608 550
c-40.667 0 -75.5 14.5 -104.5 43.5s-43.5 64.5 -43.5 106.5c0 41.333 14.5 76.333 43.5 105s63.833 43 104.5 43c42 0 77.5 -14.333 106.5 -43s43.5 -63.667 43.5 -105c0 -42 -14.5 -77.5 -43.5 -106.5s-64.5 -43.5 -106.5 -43.5z" />
    <glyph glyph-name="one" unicode="1" 
d="M170 0v186h354v1028l-334 -116v202l334 120h212v-1234h316v-186h-882z" />
    <glyph glyph-name="two" unicode="2" 
d="M172 0v224c219.333 121.333 383.166 248 491.499 380s162.5 268 162.5 408c0 162.667 -80.667 244 -242 244c-54 0 -110.333 -15.667 -169 -47s-109 -73 -151 -125l-138 137c46 66 111.333 119 196 159s173.334 60 266.001 60c298.667 0 448 -142.667 448 -428
c0 -144 -45.5 -282.167 -136.5 -414.5s-229.5 -259.5 -415.5 -381.5v-30h612v-186h-924z" />
    <glyph glyph-name="three" unicode="3" 
d="M514 -20c-73.333 0 -140.501 4.33301 -201.501 13s-115.167 20.334 -162.5 35.001l25 191c40.667 -11.333 86.5 -23.333 137.5 -36s115.5 -19 193.5 -19c102.667 0 182.334 20.667 239.001 62s85 99.333 85 174c0 80 -36.333 141.667 -109 185s-175.667 65 -309 65h-32
l-24 130c156 21.333 269 57.166 339 107.499s105 111.833 105 184.5c0 58 -18.5 103.167 -55.5 135.5s-89.833 48.5 -158.5 48.5c-50.667 0 -104.5 -12.667 -161.5 -38s-110.833 -63.333 -161.5 -114l-138 137c61.333 69.333 132.333 119.833 213 151.5
s170.667 47.5 270 47.5c129.333 0 229.333 -27.5 300 -82.5s106 -133.5 106 -235.5c0 -85.333 -27.333 -159.5 -82 -222.5s-126 -106.167 -214 -129.5v-21c98 -17.333 176.833 -57.5 236.5 -120.5s89.5 -145.833 89.5 -248.5c0 -126.667 -46.167 -225 -138.5 -295
s-222.833 -105 -391.5 -105z" />
    <glyph glyph-name="four" unicode="4" 
d="M72 318l3 3l199 1019h206l-167 -846h471v926h202v-926h134v-176h-134v-318h-202v318h-712z" />
    <glyph glyph-name="five" unicode="5" 
d="M594 -20c-146.667 0 -260.333 36.498 -341 109.498s-121 175.833 -121 308.5h214c0 -74 21.667 -131.5 65 -172.5s105 -61.5 185 -61.5c91.333 0 161.5 25.833 210.5 77.5s73.5 123.834 73.5 216.501c0 192 -99.333 288 -298 288c-90 0 -174 -22 -252 -66h-112l20 740
h766v-186h-566l-20 -349c39.333 16 78.333 26.833 117 32.5s77.667 8.5 117 8.5c148 0 258.667 -39.667 332 -119s110 -195.666 110 -348.999c0 -152 -43.333 -269.667 -130 -353s-210 -125 -370 -125z" />
    <glyph glyph-name="six" unicode="6" 
d="M618 -20c-160 0 -283.333 47.501 -370 142.501s-130 229.5 -130 403.5v48c0 271.333 68.833 477.666 206.5 618.999s347.5 219 629.5 233l20 -190c-422.667 -18 -634 -207.333 -634 -568h18c20 74 59.833 131.167 119.5 171.5s132.5 60.5 218.5 60.5
c124 0 219.667 -38.333 287 -115s101 -185 101 -325c0 -152 -40.333 -270 -121 -354s-195.667 -126 -345 -126zM620 164.001c78 0 138.166 25.833 180.499 77.5s63.5 124.5 63.5 218.5c0 82 -22.167 145.167 -66.5 189.5s-108.166 66.5 -191.499 66.5
c-85.333 0 -151.333 -24 -198 -72s-70 -116 -70 -204c0 -184 94 -276 282 -276z" />
    <glyph glyph-name="seven" unicode="7" 
d="M447 0l423 1230h-552v-308h-206v498h1042l-488 -1420h-219z" />
    <glyph glyph-name="eight" unicode="8" 
d="M600 -20c-154 0 -273.166 35.834 -357.499 107.501s-126.5 172.5 -126.5 302.5c0 95.333 27.5 173.666 82.5 234.999s133.5 102.333 235.5 123v15c-89.333 20 -158 57 -206 111s-72 122.667 -72 206c0 114 38.833 202.5 116.5 265.5s186.834 94.5 327.501 94.5
c141.333 0 250.666 -31.5 327.999 -94.5s116 -151.5 116 -265.5c0 -82.667 -23.833 -151 -71.5 -205s-115.834 -91.333 -204.501 -112v-15c101.333 -21.333 179.333 -62.5 234 -123.5s82 -139.167 82 -234.5c0 -130 -42.167 -230.833 -126.5 -302.5
s-203.5 -107.5 -357.5 -107.5zM600.001 846.001c73.333 0 130 17.167 170 51.5s60 81.833 60 142.5c0 69.333 -20 122.666 -60 159.999s-96.667 56 -170 56c-72.667 0 -129.167 -18.667 -169.5 -56s-60.5 -90.666 -60.5 -159.999c0 -60.667 20.167 -108.167 60.5 -142.5
s96.833 -51.5 169.5 -51.5zM600.001 164.001c86 0 152.5 20.667 199.5 62s70.5 99.333 70.5 174c0 80 -23.5 142.333 -70.5 187s-113.5 67 -199.5 67s-152.5 -22.333 -199.5 -67s-70.5 -107 -70.5 -187c0 -74.667 23.5 -132.667 70.5 -174s113.5 -62 199.5 -62z" />
    <glyph glyph-name="nine" unicode="9" 
d="M248 -6l-20 190.001c422.667 18 634 207.333 634 568h-18c-20 -74 -59.833 -131.167 -119.5 -171.5s-132.5 -60.5 -218.5 -60.5c-124 0 -219.667 38.333 -287 115s-101 185 -101 325c0 152 40.5 270 121.5 354s195.833 126 344.5 126c160 0 283.333 -47.5 370 -142.5
s130 -229.5 130 -403.5v-48c0 -270.667 -68.833 -476.834 -206.5 -618.501s-347.5 -219.5 -629.5 -233.5zM596 704.001c85.333 0 150.999 24 196.999 72s69 116 69 204c0 184 -93.333 276 -280 276c-80 0 -141.667 -25.833 -185 -77.5s-65 -124.5 -65 -218.5
c0 -82 22.833 -145.167 68.5 -189.5s110.834 -66.5 195.501 -66.5z" />
    <glyph glyph-name="colon" unicode=":" 
d="M600 784c-40.667 0 -75.5 14.5 -104.5 43.5s-43.5 63.833 -43.5 104.5c0 41.333 14.5 76.333 43.5 105s63.833 43 104.5 43c41.333 0 76.333 -14.333 105 -43s43 -63.667 43 -105c0 -40.667 -14.333 -75.5 -43 -104.5s-63.667 -43.5 -105 -43.5zM600 -20
c-40.667 0 -75.5 14.5 -104.5 43.5s-43.5 63.833 -43.5 104.5c0 41.333 14.5 76.333 43.5 105s63.833 43 104.5 43c41.333 0 76.333 -14.333 105 -43s43 -63.667 43 -105c0 -40.667 -14.333 -75.5 -43 -104.5s-63.667 -43.5 -105 -43.5z" />
    <glyph glyph-name="semicolon" unicode=";" 
d="M600 784c-40.667 0 -75.5 14.5 -104.5 43.5s-43.5 63.833 -43.5 104.5c0 41.333 14.5 76.333 43.5 105s63.833 43 104.5 43c41.333 0 76.333 -14.333 105 -43s43 -63.667 43 -105c0 -40.667 -14.333 -75.5 -43 -104.5s-63.667 -43.5 -105 -43.5zM402 -436l80 690h232
l-120 -690h-192z" />
    <glyph glyph-name="less" unicode="&#x3c;" 
d="M1054 214l-958 394v202l958 394v-220l-740 -266v-18l740 -266v-220z" />
    <glyph glyph-name="equal" unicode="=" 
d="M100 866v186h1000v-186h-1000zM100 366v186h1000v-186h-1000z" />
    <glyph glyph-name="greater" unicode="&#x3e;" 
d="M146 214v220l700 266v18l-700 266v220l958 -394v-202z" />
    <glyph glyph-name="question" unicode="?" 
d="M500 456l0.000976562 96c0 132 54.667 232.667 164 302c108 67.333 162 146.666 162 237.999c0 50 -16.667 88.833 -50 116.5s-80.666 41.5 -141.999 41.5c-62.667 0 -124.334 -15.667 -185.001 -47s-112.334 -73 -155.001 -125l-138 143
c46.667 66 113.167 119 199.5 159s179.833 60 280.5 60c130 0 230.833 -29.5 302.5 -88.5s107.5 -142.167 107.5 -249.5c0 -147.333 -74 -268.666 -222 -363.999c-85.333 -55.333 -128 -122 -128 -200v-82h-196zM602.001 -20c-40.667 0 -75.5 14.5 -104.5 43.5
s-43.5 63.833 -43.5 104.5c0 41.333 14.5 76.333 43.5 105s63.833 43 104.5 43c41.333 0 76.333 -14.333 105 -43s43 -63.667 43 -105c0 -40.667 -14.333 -75.5 -43 -104.5s-63.667 -43.5 -105 -43.5z" />
    <glyph glyph-name="at" unicode="@" 
d="M674 -20c-377.333 0 -566.001 246.668 -566.001 740.001c0 229.333 48.333 406.666 145 531.999s232.334 188 407.001 188c274.667 0 412 -165.333 412 -496v-646h-172v212h-12c-12 -74 -36.5 -131.167 -73.5 -171.5s-83.167 -60.5 -138.5 -60.5
c-88.667 0 -157.5 36.833 -206.5 110.5s-73.5 177.5 -73.5 311.5c0 148 24.5 258.333 73.5 331s118.5 109 208.5 109c51.333 0 95.5 -20.167 132.5 -60.5s62.833 -97.5 77.5 -171.5h12v30c0 221.333 -80 332 -240 332c-122 0 -216.5 -47.833 -283.5 -143.5
s-100.5 -231.167 -100.5 -406.5c0 -186 32.667 -325.833 98 -419.5s165.333 -140.5 300 -140.5c56 0 104.667 5.33301 146 16s75.333 25.334 102 44.001l20 -180c-28.667 -18.667 -65.5 -33.334 -110.5 -44.001s-97.5 -16 -157.5 -16zM733.999 468.001
c53.333 0 94.333 20.167 123 60.5s43 97.5 43 171.5c0 87.333 -13 150.833 -39 190.5s-63.667 59.5 -113 59.5c-54.667 0 -97 -19.833 -127 -59.5s-45 -103.167 -45 -190.5c0 -74 13.833 -131.167 41.5 -171.5s66.5 -60.5 116.5 -60.5z" />
    <glyph glyph-name="A" unicode="A" 
d="M45 0l410 1420h290l410 -1420h-210l-93 346h-504l-93 -346h-210zM591 1248l-192 -712h402l-192 712h-18z" />
    <glyph glyph-name="B" unicode="B" 
d="M160 0v1420h422c144 0 255.333 -31.167 334 -93.5s118 -151.166 118 -266.499c0 -86.667 -29.5 -155.834 -88.5 -207.501s-142.833 -83.167 -251.5 -94.5v-12c140 -2 248.333 -34 325 -96s115 -148.667 115 -260c0 -124 -37.333 -220 -112 -288s-180.667 -102 -318 -102
h-544zM532 1230l-172 -0.000976562v-385h186c88 0 156.333 16.833 205 50.5s73 81.834 73 144.501c0 61.333 -25.333 108.333 -76 141s-122.667 49 -216 49zM632 654.999h-272v-465h286c88 0 156.333 20.167 205 60.5s73 96.833 73 169.5c0 74.667 -25.333 132.5 -76 173.5
s-122.667 61.5 -216 61.5z" />
    <glyph glyph-name="C" unicode="C" 
d="M758 -20c-441.333 0 -661.999 244.001 -661.999 732.001c0 231.333 55.667 410.5 167 537.5s268.333 190.5 471 190.5c98 0 183.333 -15.5 256 -46.5s125.667 -75.167 159 -132.5l-148 -147c-30 45.333 -68.167 80.333 -114.5 105s-96.5 37 -150.5 37
c-128.667 0 -231.834 -46.333 -309.501 -139s-116.5 -224.334 -116.5 -395.001c0 -372 160.667 -558 482 -558c96.667 0 192 20 286 60l46 -176c-116 -45.333 -238 -68 -366 -68z" />
    <glyph glyph-name="D" unicode="D" 
d="M160 0v1420h344c433.333 0 650 -243.333 650 -730c0 -460 -216.667 -690 -650 -690h-344zM504 1230h-144v-1040h144c293.333 0 440 166.667 440 500c0 360 -146.667 540 -440 540z" />
    <glyph glyph-name="E" unicode="E" 
d="M160 0v1420h940v-190h-740v-424h560v-190h-560v-426h740v-190h-940z" />
    <glyph glyph-name="F" unicode="F" 
d="M160 0v1420h940v-190h-740v-484h560v-190h-560v-556h-200z" />
    <glyph glyph-name="G" unicode="G" 
d="M732 -20c-424 0 -636 244.001 -636 732.001c0 231.333 55 410.5 165 537.5s264.333 190.5 463 190.5c99.333 0 186.333 -15.5 261 -46.5s129.667 -74.833 165 -131.5l-149 -148c-30.667 45.333 -69.167 80.333 -115.5 105s-96.166 37 -149.499 37
c-134.667 0 -239.334 -46.5 -314.001 -139.5s-112 -224.5 -112 -394.5c0 -372 148.667 -558 446 -558c33.333 0 64.5 2 93.5 6s55.833 8.66699 80.5 14v336h-290v190h480v-670c-28 -8.66699 -77.167 -20.834 -147.5 -36.501s-150.5 -23.5 -240.5 -23.5z" />
    <glyph glyph-name="H" unicode="H" 
d="M140 0v1420h200v-618h520v618h200v-1420h-200v612h-520v-612h-200z" />
    <glyph glyph-name="I" unicode="I" 
d="M168 0v190h331v1040h-331v190h864v-190h-333v-1040h333v-190h-864z" />
    <glyph glyph-name="J" unicode="J" 
d="M584 -20c-156 0 -276.333 43.501 -361 130.501s-127 208.833 -127 365.5h200c0 -100 25.5 -177.667 76.5 -233s123.167 -83 216.5 -83c90.667 0 160.5 24 209.5 72s73.5 116 73.5 204v794h-372v190h572v-984c0 -144.667 -43 -256.834 -129 -336.501
s-205.667 -119.5 -359 -119.5z" />
    <glyph glyph-name="K" unicode="K" 
d="M160 0l-0.00195312 1420h200v-768c92.667 8.66699 172.834 35.667 240.501 81s123.5 103.833 167.5 175.5s76.667 151.5 98 239.5s32 178.667 32 272h206c0 -146 -24.5 -285.333 -73.5 -418s-119.833 -244.667 -212.5 -336l354 -666h-242l-281 541
c-42.667 -23.333 -88.167 -42.333 -136.5 -57s-99.166 -24.334 -152.499 -29.001v-455h-200z" />
    <glyph glyph-name="L" unicode="L" 
d="M160 0v1420h200v-1230h740v-190h-940z" />
    <glyph glyph-name="M" unicode="M" 
d="M128 0v1420h302l162 -610h16l162 610h302v-1420h-192v1168h-26l-162 -588h-184l-162 588h-26v-1168h-192z" />
    <glyph glyph-name="N" unicode="N" 
d="M148 0v1420h252l440 -1080h20v1080h192v-1420h-252l-440 1080h-20v-1080h-192z" />
    <glyph glyph-name="O" unicode="O" 
d="M600 -20c-349.333 0 -524 240 -524 720c0 493.333 174.667 740 524 740s524 -246.667 524 -740c0 -480 -174.667 -720 -524 -720zM600 164c209.333 0 314 178.667 314 536c0 370.667 -104.667 556 -314 556s-314 -185.333 -314 -556c0 -357.333 104.667 -536 314 -536z
" />
    <glyph glyph-name="P" unicode="P" 
d="M160 0v1420h418c172.667 0 306.167 -41.833 400.5 -125.5s141.5 -201.834 141.5 -354.501c0 -158.667 -47.167 -281.667 -141.5 -369s-227.833 -131 -400.5 -131h-218v-440h-200zM578 1230h-218v-600h218c105.333 0 187 25.333 245 76s87 122 87 214
c0 98.667 -29 175 -87 229s-139.667 81 -245 81z" />
    <glyph glyph-name="Q" unicode="Q" 
d="M930 -460c-289.333 0 -434 146.667 -434 440v8c-280 44.667 -420 282 -420 712c0 493.333 174.667 740 524 740s524 -246.667 524 -740c0 -434.667 -143.333 -672.667 -430 -714v-8c0 -172 78.667 -258 236 -258h102l-20 -180h-82zM600 164
c209.333 0 314 178.667 314 536c0 370.667 -104.667 556 -314 556s-314 -185.333 -314 -556c0 -357.333 104.667 -536 314 -536z" />
    <glyph glyph-name="R" unicode="R" 
d="M140 0l0.000976562 1420h488c147.333 0 261.166 -37.333 341.499 -112s120.5 -180.667 120.5 -318c0 -102 -20.667 -187.833 -62 -257.5s-101 -120.834 -179 -153.501l293 -579h-240l-257 540h-17h-288v-540h-200zM628.001 1230h-288v-500h288
c79.333 0 141.166 21 185.499 63s66.5 101 66.5 177c0 83.333 -22.167 147.5 -66.5 192.5s-106.166 67.5 -185.499 67.5z" />
    <glyph glyph-name="S" unicode="S" 
d="M551 -20c-161.333 0 -301.999 25.999 -421.999 77.999l26 202c73.333 -31.333 144.166 -55.166 212.499 -71.499s134.833 -24.5 199.5 -24.5c184 0 276 66 276 198c0 84.667 -43.333 146.667 -130 186l-246 112c-96.667 44 -170.834 97 -222.501 159s-77.5 139 -77.5 231
c0 124 40 220 120 288s193 102 339 102c89.333 0 168.333 -14 237 -42s134.667 -73.667 198 -137l-140 -142c-53.333 48 -103.166 82.833 -149.499 104.5s-94.5 32.5 -144.5 32.5c-78 0 -138.5 -16.5 -181.5 -49.5s-64.5 -81.833 -64.5 -146.5c0 -46 12.333 -83.5 37 -112.5
s61 -54.833 109 -77.5l208 -98c105.333 -49.333 185.333 -105 240 -167s82 -141.667 82 -239c0 -257.333 -168.667 -386 -506 -386z" />
    <glyph glyph-name="T" unicode="T" 
d="M500 0v1230h-420v190h1040v-190h-420v-1230h-200z" />
    <glyph glyph-name="U" unicode="U" 
d="M596 -20c-304 0 -456 158.667 -456 476v964h200v-964c0 -94.667 20.833 -166 62.5 -214s107.5 -72 197.5 -72c173.333 0 260 95.333 260 286v964h200v-964c0 -158.667 -39.333 -277.667 -118 -357s-194 -119 -346 -119z" />
    <glyph glyph-name="V" unicode="V" 
d="M444 0l-400 1420h214l332 -1250h18l332 1250h214l-400 -1420h-310z" />
    <glyph glyph-name="W" unicode="W" 
d="M180 0l-160 1420h210l120 -1260h20l131 900h200l129 -900h20l120 1260h210l-160 -1420h-309l-105 862h-12l-105 -862h-309z" />
    <glyph glyph-name="X" unicode="X" 
d="M66 0l435 703l-435 717h230l305 -544l305 544h230l-435 -717l435 -703h-230l-305 533l-305 -533h-230z" />
    <glyph glyph-name="Y" unicode="Y" 
d="M500 0v503l-475 917h220l346 -710h18l346 710h220l-475 -917v-503h-200z" />
    <glyph glyph-name="Z" unicode="Z" 
d="M150 0v176l656 1054h-656v190h900v-190l-676 -1054h696v-176h-920z" />
    <glyph glyph-name="bracketleft" unicode="[" 
d="M372 -214v1848h626v-190h-426v-1468h426v-190h-626z" />
    <glyph glyph-name="backslash" unicode="\" 
d="M908 -190l-804 1800h212l804 -1800h-212z" />
    <glyph glyph-name="bracketright" unicode="]" 
d="M202 -214v190h414v1468h-414v190h626v-1848h-626z" />
    <glyph glyph-name="asciicircum" unicode="^" 
d="M204 820l260 600h270l260 -600h-220l-166 440h-18l-166 -440h-220z" />
    <glyph glyph-name="underscore" unicode="_" 
d="M100 -176v176h1000v-176h-1000z" />
    <glyph glyph-name="grave" unicode="`" 
d="M479 1248l-190 380h212l170 -380h-192z" />
    <glyph glyph-name="a" unicode="a" 
d="M464 -20c-116.667 0 -207.169 26.5 -271.502 79.5s-96.5 128.5 -96.5 226.5c0 112 40.833 198 122.5 258s197.5 90 347.5 90c80 0 150 -8.33301 210 -25v57c0 70.667 -24.833 122.5 -74.5 155.5s-123.5 50.833 -221.5 53.5l-254 7l20 188l214 -3
c175.333 -2.66699 305.5 -40.5 390.5 -113.5s127.5 -179.5 127.5 -319.5v-442l180 -22v-170l-340 -10l-10 234h-21c-7.33301 -81.333 -39.666 -142.333 -96.999 -183s-132.666 -61 -225.999 -61zM497.998 150c62 0 113.5 11.334 154.5 34.001s71.833 51.667 92.5 87
s31 71.666 31 108.999v64c-37.333 10 -74.5 15.833 -111.5 17.5s-74.5 2.5 -112.5 2.5c-170.667 0 -256 -52.667 -256 -158c0 -104 67.333 -156 202 -156z" />
    <glyph glyph-name="b" unicode="b" 
d="M168 0v1500h212v-632h20c10 141.333 96.667 212 260 212c141.333 0 250.666 -47 327.999 -141s116 -227 116 -399c0 -178 -50.667 -315.833 -152 -413.5s-244.666 -146.5 -429.999 -146.5c-60 0 -119 1.83301 -177 5.5s-117 8.5 -177 14.5zM380 596l0.000976562 -429.998
c30 -2.66699 60.5 -4.33398 91.5 -5.00098s61.833 -1 92.5 -1c105.333 0 186.666 33.167 243.999 99.5s86 159.833 86 280.5c0 115.333 -21.167 204.166 -63.5 266.499s-102.5 93.5 -180.5 93.5c-180 0 -270 -101.333 -270 -304z" />
    <glyph glyph-name="c" unicode="c" 
d="M682 -20c-174 0 -308.5 47.499 -403.5 142.499s-142.5 231.5 -142.5 409.5c0 173.333 46.5 308 139.5 404s225.833 144 398.5 144c103.333 0 191.833 -19.167 265.5 -57.5s126.167 -92.5 157.5 -162.5l-163 -123c-30 48.667 -68.333 86.334 -115 113.001
s-97.667 40 -153 40c-98 0 -174.167 -30.167 -228.5 -90.5s-81.5 -146.166 -81.5 -257.499c0 -120.667 30.333 -212.834 91 -276.501s147 -95.5 259 -95.5c53.333 0 106.166 2.33301 158.499 7s103.5 11 153.5 19l24 -186c-58 -12 -117.667 -20 -179 -24
s-121.666 -6 -180.999 -6z" />
    <glyph glyph-name="d" unicode="d" 
d="M518 -20c-134 0 -237.832 46.5 -311.499 139.5s-110.5 226.5 -110.5 400.5c0 178 37 315.833 111 413.5s178.333 146.5 313 146.5c168.667 0 262 -70.667 280 -212h20v632h212v-1500l-190 -10l-18 174h-24c-6.66699 -60.667 -35.334 -106.5 -86.001 -137.5
s-116 -46.5 -196 -46.5zM306.001 520c0 -240 82 -360 246 -360c178.667 0 268 60 268 180v256c0 202.667 -90 304 -270 304c-78 0 -138.167 -33 -180.5 -99s-63.5 -159.667 -63.5 -281z" />
    <glyph glyph-name="e" unicode="e" 
d="M702 -20c-180.667 0 -320.166 47.501 -418.499 142.501s-147.5 231.5 -147.5 409.5c0 173.333 41.667 308 125 404s201 144 353 144c143.333 0 254.166 -43.333 332.499 -130s117.5 -212.667 117.5 -378c0 -48.667 -2 -94 -6 -136h-716
c18.667 -88.667 60.667 -155.834 126 -201.501s151.333 -68.5 258 -68.5c44 0 87.333 2.5 130 7.5s86 11.833 130 20.5l26 -186c-62.667 -12 -120 -19.667 -172 -23s-98 -5 -138 -5zM616.001 894.001c-82 0 -147.332 -25.667 -195.999 -77s-77.334 -124.333 -86.001 -219
h538c0 95.333 -22.667 168.5 -68 219.5s-108 76.5 -188 76.5z" />
    <glyph glyph-name="f" unicode="f" 
d="M402 0v646h-334v174h334v150c0 366.667 167.333 550 502 550c76 0 149.333 -6.66699 220 -20l-22 -184c-42 5.33301 -79 9 -111 11s-63 3 -93 3c-189.333 0 -284 -116.667 -284 -350v-160h434v-174h-434v-646h-212z" />
    <glyph glyph-name="g" unicode="g" 
d="M182 -478l-9.99805 187.999l340 16c107.333 5.33301 185.166 35.5 233.499 90.5s72.5 136.833 72.5 245.5v102h-18c-6.66699 -60.667 -35.334 -106.5 -86.001 -137.5s-116 -46.5 -196 -46.5c-134 0 -237.833 46.5 -311.5 139.5s-110.5 226.5 -110.5 400.5
c0 178 37 315.833 111 413.5s178.333 146.5 313 146.5c168.667 0 262 -70.667 280 -212h23l17 192h192v-966c0 -188.667 -43 -327.667 -129 -417s-223 -137.666 -411 -144.999zM306.002 519.999c0 -240 82 -360 246 -360c178.667 0 268 60 268 180v256
c0 202.667 -90 304 -270 304c-78 0 -138.167 -33 -180.5 -99s-63.5 -159.667 -63.5 -281z" />
    <glyph glyph-name="h" unicode="h" 
d="M168 0v1500h212v-632h20c12 141.333 105.333 212 280 212c112 0 198.667 -34 260 -102s92 -164 92 -288v-690h-212v690c0 67.333 -16.667 119.166 -50 155.499s-80 54.5 -140 54.5c-166.667 0 -250 -101.333 -250 -304v-596h-212z" />
    <glyph glyph-name="i" unicode="i" 
d="M658 1228c-40.667 0 -75.5 14.5 -104.5 43.5s-43.5 63.833 -43.5 104.5c0 41.333 14.5 76.333 43.5 105s63.833 43 104.5 43c41.333 0 76.333 -14.333 105 -43s43 -63.667 43 -105c0 -40.667 -14.333 -75.5 -43 -104.5s-63.667 -43.5 -105 -43.5zM160 0v174h404v710h-344
v176h556v-886h326v-174h-942z" />
    <glyph glyph-name="j" unicode="j" 
d="M760 1228c-40.667 0 -75.5 14.5 -104.5 43.5s-43.5 63.833 -43.5 104.5c0 41.333 14.5 76.333 43.5 105s63.833 43 104.5 43c41.333 0 76.333 -14.333 105 -43s43 -63.667 43 -105c0 -40.667 -14.333 -75.5 -43 -104.5s-63.667 -43.5 -105 -43.5zM180 -480
l-10.001 187.999l200 18c107.333 10 185.166 41.333 233.499 94s72.5 133.334 72.5 242.001v824h-412v174h624v-966c0 -126 -18.667 -228.5 -56 -307.5s-95.666 -138.667 -174.999 -179s-181.666 -65.5 -306.999 -75.5z" />
    <glyph glyph-name="k" unicode="k" 
d="M160 0l0.000976562 1500h212v-908h58c88 0 160.333 15.167 217 45.5s101.167 79.833 133.5 148.5s56.166 160 71.499 274h220c-32.667 -260 -114 -442.333 -244 -547l312 -513h-262l-245 419c-47.333 -11.333 -98.333 -17 -153 -17h-108v-402h-212z" />
    <glyph glyph-name="l" unicode="l" 
d="M748 -20c-122.667 0 -211.333 33.333 -266 100s-82 173.334 -82 320.001v926h-312v174h524v-1090c0 -56 5.33301 -101.667 16 -137s31.5 -61.333 62.5 -78s76.833 -25 137.5 -25c55.333 0 126 12.667 212 38l24 -186c-54 -14.667 -105.833 -25.334 -155.5 -32.001
s-103.167 -10 -160.5 -10z" />
    <glyph glyph-name="m" unicode="m" 
d="M112 0v1060h188l14 -132h16c8 101.333 68.667 152 182 152c44.667 0 81.834 -12.667 111.501 -38s49.5 -63.333 59.5 -114h17c3.33301 41.333 19.833 77 49.5 107s72.5 45 128.5 45c73.333 0 126.666 -19.667 159.999 -59s50 -103 50 -191v-830h-212v810
c0 73.333 -27.333 110 -82 110c-69.333 0 -104 -48 -104 -144v-776h-180v830c0 60 -28 90 -84 90c-68 0 -102 -48 -102 -144v-776h-212z" />
    <glyph glyph-name="n" unicode="n" 
d="M168 0v1060h192l17 -192h23c12 141.333 105.333 212 280 212c112 0 198.667 -34 260 -102s92 -164 92 -288v-690h-212v690c0 64 -16.667 113.333 -50 148s-80 52 -140 52c-166.667 0 -250 -98 -250 -294v-596h-212z" />
    <glyph glyph-name="o" unicode="o" 
d="M600 -20c-146.667 0 -260.667 48 -342 144s-122 231.333 -122 406c0 175.333 40.667 310.833 122 406.5s195.333 143.5 342 143.5c147.333 0 261.5 -47.833 342.5 -143.5s121.5 -231.167 121.5 -406.5c0 -174.667 -40.5 -310 -121.5 -406s-195.167 -144 -342.5 -144z
M600 170c78 0 138.167 31.333 180.5 94s63.5 151.334 63.5 266.001c0 115.333 -21.167 204.166 -63.5 266.499s-102.5 93.5 -180.5 93.5s-138.167 -31.167 -180.5 -93.5s-63.5 -151.166 -63.5 -266.499c0 -114.667 21.167 -203.334 63.5 -266.001s102.5 -94 180.5 -94z" />
    <glyph glyph-name="p" unicode="p" 
d="M168 -460l-0.000976562 1520h192l17 -192h23c18 141.333 111.333 212 280 212c135.333 0 239.833 -48.833 313.5 -146.5s110.5 -235.5 110.5 -413.5c0 -174 -36.833 -307.5 -110.5 -400.5s-177.5 -139.5 -311.5 -139.5c-80 0 -145.167 15.5 -195.5 46.5
s-79.166 76.833 -86.499 137.5h-20v-624h-212zM649.999 900c-180 0 -270 -101.333 -270 -304v-256c0 -120 89.333 -180 268 -180c164 0 246 120 246 360c0 121.333 -21.167 215 -63.5 281s-102.5 99 -180.5 99z" />
    <glyph glyph-name="q" unicode="q" 
d="M510 -20c-134 0 -237.832 46.5 -311.499 139.5s-110.5 226.5 -110.5 400.5c0 178 37 315.833 111 413.5s178.333 146.5 313 146.5c168.667 0 262 -70.667 280 -212h23l17 192h192v-1520h-212v624h-20c-6.66699 -60.667 -35.334 -106.5 -86.001 -137.5
s-116 -46.5 -196 -46.5zM298.001 520c0 -240 82 -360 246 -360c178.667 0 268 60 268 180v256c0 202.667 -90 304 -270 304c-78 0 -138.167 -33 -180.5 -99s-63.5 -159.667 -63.5 -281z" />
    <glyph glyph-name="r" unicode="r" 
d="M80 0l0.000976562 174h236v712h-196v174h368l36 -272h24c12 194.667 109.333 292 292 292c109.333 0 188.666 -31.333 237.999 -94s74 -164 74 -304h-210c0 77.333 -11.5 133 -34.5 167s-60.167 51 -111.5 51c-90 0 -157.167 -38.5 -201.5 -115.5
s-66.5 -186.5 -66.5 -328.5v-282h260v-174h-708z" />
    <glyph glyph-name="s" unicode="s" 
d="M518 -20c-80 0 -148.499 2.33301 -205.499 7s-109.167 12.334 -156.5 23.001l24 192c70 -10.667 131.833 -18.667 185.5 -24s104.5 -8 152.5 -8c107.333 0 185.166 10.5 233.499 31.5s72.5 54.5 72.5 100.5c0 32 -8.5 55.833 -25.5 71.5s-43.167 27.834 -78.5 36.501
l-244 62c-104.667 26.667 -181.5 59.667 -230.5 99s-73.5 99 -73.5 179c0 116 44.5 200 133.5 252s232.5 78 430.5 78c97.333 0 190.666 -6.66699 279.999 -20l-22 -184c-54 5.33301 -101.667 9 -143 11s-81.666 3 -120.999 3c-118.667 0 -204.667 -10.167 -258 -30.5
s-80 -53.5 -80 -99.5c0 -30.667 11 -52.834 33 -66.501s55.667 -26.167 101 -37.5l196 -48c111.333 -26.667 192.833 -62.334 244.5 -107.001s77.5 -109.667 77.5 -195c0 -114 -41.667 -196.833 -125 -248.5s-217 -77.5 -401 -77.5z" />
    <glyph glyph-name="t" unicode="t" 
d="M782 -20c-160.667 0 -276.832 33.332 -348.499 99.999s-107.5 173.334 -107.5 320.001v486h-266v174h266v320h212v-320h482v-174h-482v-476c0 -84 20.5 -145 61.5 -183s108.5 -57 202.5 -57c33.333 0 68.666 1.83301 105.999 5.5s80 8.5 128 14.5l24 -186
c-46.667 -8 -92.167 -14 -136.5 -18s-91.5 -6 -141.5 -6z" />
    <glyph glyph-name="u" unicode="u" 
d="M506 -20c-111.333 0 -197.499 33.167 -258.499 99.5s-91.5 159.833 -91.5 280.5v700h212v-700c0 -60.667 17.333 -107.5 52 -140.5s83.334 -49.5 146.001 -49.5c77.333 0 135.666 24.5 174.999 73.5s59 131.167 59 246.5v570h212v-868l146 -22v-170l-340 -10l-15 214h-19
c-16.667 -72 -49.334 -127.333 -98.001 -166s-108.667 -58 -180 -58z" />
    <glyph glyph-name="v" unicode="v" 
d="M464 0l-384 1060h226l290 -880h18l280 880h226l-374 -1060h-282z" />
    <glyph glyph-name="w" unicode="w" 
d="M190 0l-120 1060h200l80 -900h18l125 900h194l125 -900h18l90 900h210l-150 -1060h-260l-124 842h-12l-124 -842h-270z" />
    <glyph glyph-name="x" unicode="x" 
d="M106 0l379 524l-379 536h240l254 -371l254 371h240l-384 -528l384 -532h-240l-259 368l-249 -368h-240z" />
    <glyph glyph-name="y" unicode="y" 
d="M477 0l-421.998 1060h220l346 -900h15l259 900h220l-306 -966c-40 -126.667 -84.833 -228.667 -134.5 -306s-108.334 -135.333 -176.001 -174s-148.834 -63.334 -243.501 -74.001l-180 -20l-10 190l166 20c84.667 10 154.5 35.667 209.5 77s101.5 105.666 139.5 192.999
h-103z" />
    <glyph glyph-name="z" unicode="z" 
d="M160 0v176l617 708h-617v176h856v-176l-601 -708h621v-176h-876z" />
    <glyph glyph-name="braceleft" unicode="{" 
d="M826 -214c-108.667 0 -192.833 32.501 -252.5 97.501s-89.5 155.833 -89.5 272.5c0 56 0.333008 111.333 1 166s1 111.334 1 170.001c0 37.333 -13.5 66.5 -40.5 87.5s-58.5 35.667 -94.5 44s-67.667 12.5 -95 12.5v158c26 0 57.167 5.66699 93.5 17
s68.166 27.666 95.499 48.999s41 47.333 41 78c0 61.333 -0.333008 118.666 -1 171.999s-1 108 -1 164c0 112.667 29.833 199.5 89.5 260.5s143.834 91.5 252.501 91.5c39.333 0 72 -1.83301 98 -5.5s50 -8.5 72 -14.5l-24 -170c-23.333 3.33301 -45.833 5.83301 -67.5 7.5
s-41.834 2.5 -60.501 2.5c-47.333 0 -83.5 -15 -108.5 -45s-37.5 -72.333 -37.5 -127c0 -58 1 -113.333 3 -166s3 -108 3 -166c0 -66 -19.5 -117.167 -58.5 -153.5s-93.5 -55.166 -163.5 -56.499v-34c70 -1.33301 124.5 -20.833 163.5 -58.5s58.5 -88.167 58.5 -151.5
c0 -60.667 -1 -117.334 -3 -170.001s-3 -106.667 -3 -162c0 -60.667 12.5 -107.5 37.5 -140.5s61.167 -49.5 108.5 -49.5c18.667 0 38.834 1 60.501 3s44.167 4.33301 67.5 7l24 -170c-22 -6 -46 -10.833 -72 -14.5s-58.667 -5.5 -98 -5.5z" />
    <glyph glyph-name="bar" unicode="|" 
d="M500 -310v2040h200v-2040h-200z" />
    <glyph glyph-name="braceright" unicode="}" 
d="M376 -214c-38.667 0 -71.167 1.83203 -97.5 5.49902s-50.5 8.5 -72.5 14.5l24 170c23.333 -2.66699 45.833 -5 67.5 -7s41.834 -3 60.501 -3c47.333 0 83.5 16.5 108.5 49.5s37.5 79.833 37.5 140.5c0 55.333 -1 109.333 -3 162s-3 109.334 -3 170.001
c0 63.333 19.5 113.833 58.5 151.5s93.5 57.167 163.5 58.5v34c-70 1.33301 -124.5 20.166 -163.5 56.499s-58.5 87.5 -58.5 153.5c0 58 1 113.333 3 166s3 108 3 166c0 54.667 -12.5 97 -37.5 127s-61.167 45 -108.5 45c-18.667 0 -38.834 -0.833008 -60.501 -2.5
s-44.167 -4.16699 -67.5 -7.5l-24 170c22 6 46.167 10.833 72.5 14.5s58.833 5.5 97.5 5.5c108.667 0 192.834 -30.5 252.501 -91.5s89.5 -147.833 89.5 -260.5c0 -56 -0.333008 -110.667 -1 -164s-1 -110.666 -1 -171.999c0 -30.667 13.833 -56.667 41.5 -78
s59.5 -37.666 95.5 -48.999s67 -17 93 -17v-158c-27.333 0 -59 -4.16699 -95 -12.5s-67.5 -23 -94.5 -44s-40.5 -50.167 -40.5 -87.5c0 -58.667 0.333008 -115.334 1 -170.001s1 -110 1 -166c0 -116.667 -29.833 -207.5 -89.5 -272.5s-143.834 -97.5 -252.501 -97.5z" />
    <glyph glyph-name="asciitilde" unicode="~" 
d="M100 446v50c0 226.667 86.667 340 260 340c48.667 0 97.334 -5 146.001 -15l146 -30c48.667 -10 97.334 -15 146.001 -15c66.667 0 100 54.667 100 164v30h202v-50c0 -226.667 -73.333 -340 -220 -340c-50.667 0 -101.334 5 -152.001 15l-152 30
c-50.667 10 -101.334 15 -152.001 15c-80 0 -120 -54.667 -120 -164v-30h-204z" />
    <glyph glyph-name="uni00A0" unicode="&#xa0;" 
 />
    <glyph glyph-name="exclamdown" unicode="&#xa1;" 
d="M600 1080c41.333 0 76.333 -14.333 105 -43s43 -63.667 43 -105c0 -40.667 -14.333 -75.5 -43 -104.5s-63.667 -43.5 -105 -43.5c-40.667 0 -75.5 14.5 -104.5 43.5s-43.5 63.833 -43.5 104.5c0 41.333 14.5 76.333 43.5 105s63.833 43 104.5 43zM496 -370l6 974h192
l10 -974h-208z" />
    <glyph glyph-name="cent" unicode="&#xa2;" 
d="M594 -334v317.997c-146.667 16 -259.667 70.667 -339 164s-119 221.333 -119 384c0 159.333 39.5 286.166 118.5 380.499s192.167 148.833 339.5 163.5v318h138v-316c88.667 -7.33301 164.5 -29.666 227.5 -66.999s108.833 -87.666 137.5 -150.999l-163 -123
c-48.667 79.333 -116 128 -202 146v-713c48.667 0.666992 97 3.33398 145 8.00098s95 10.667 141 18l24 -186c-50 -10 -101.333 -17.167 -154 -21.5s-104.667 -7.16602 -156 -8.49902v-314h-138zM356 541.997c0 -99.333 20.5 -179.331 61.5 -239.998
s99.833 -100.334 176.5 -119.001v701c-76 -14 -134.667 -50.333 -176 -109s-62 -136.334 -62 -233.001z" />
    <glyph glyph-name="sterling" unicode="&#xa3;" 
d="M132 0l0.000976562 186c48.667 69.333 86 135.666 112 198.999s41.333 128.666 46 195.999h-181v138h183v317c0 129.333 37 229 111 299s176.333 105 307 105c96 0 179.333 -19.167 250 -57.5s122.334 -92.166 155.001 -161.499l-168 -127
c-28 49.333 -63.333 87.333 -106 114s-89 40 -139 40c-58 0 -105.167 -18.167 -141.5 -54.5s-54.5 -89.166 -54.5 -158.499v-316h391v-138h-393c-4.66699 -67.333 -20.334 -133 -47.001 -197s-64.334 -130 -113.001 -198h752v-186h-964z" />
    <glyph glyph-name="currency" unicode="&#xa4;" 
d="M188 131l-115.999 132l183 192c-50.667 67.333 -76 149 -76 245c0 95.333 25 177 75 245l-182 190l127 124l182 -208c64.667 32.667 138.667 49 222 49c81.333 0 153.666 -15.667 216.999 -47l181 206l127 -124l-178 -187c51.333 -68 77 -150.667 77 -248
s-26 -180 -78 -248l179 -189l-116 -132l-191 216c-63.333 -31.333 -136 -47 -218 -47c-83.333 0 -157.333 16.333 -222 49zM603.001 490c61.333 0 110.666 19.167 147.999 57.5s56 89.166 56 152.499s-18.667 114.166 -56 152.499s-86.666 57.5 -147.999 57.5
s-110.666 -19.167 -147.999 -57.5s-56 -89.166 -56 -152.499s18.667 -114.166 56 -152.499s86.666 -57.5 147.999 -57.5z" />
    <glyph glyph-name="yen" unicode="&#xa5;" 
d="M162 191v138h338v172h-338v138h268l-405 781h220l346 -710h18l346 710h220l-405 -781h270v-138h-340v-172h340v-138h-340v-191h-200v191h-338z" />
    <glyph glyph-name="brokenbar" unicode="&#xa6;" 
d="M500 870v860h200v-860h-200zM500 -310v860h200v-860h-200z" />
    <glyph glyph-name="section" unicode="&#xa7;" 
d="M1131 674c0 -93.333 -24.499 -161.498 -73.499 -204.498s-127.5 -65.167 -235.5 -66.5v-28c71.333 -28.667 124 -62.834 158 -102.501s51 -95.167 51 -166.5c0 -114 -40 -196.833 -120 -248.5s-208.667 -77.5 -386 -77.5c-80 0 -148.5 2.33301 -205.5 7
s-109.167 12.334 -156.5 23.001l24 192c70 -10.667 131.833 -18.667 185.5 -24s104.5 -8 152.5 -8c100 0 172.667 10.5 218 31.5s68 54.5 68 100.5c0 32 -6.66699 55.833 -20 71.5s-34.666 27.834 -63.999 36.501l-354 110c-104.667 32.667 -181.5 72.834 -230.5 120.501
s-73.5 120.167 -73.5 217.5c0 89.333 31.167 156.666 93.5 201.999s162.833 67.666 301.5 66.999v23c-76.667 26 -136.5 51.167 -179.5 75.5s-73 53 -90 86s-25.5 75.167 -25.5 126.5c0 116 41.333 200 124 252s216 78 400 78c97.333 0 190.666 -6.66699 279.999 -20
l-22 -184c-54 5.33301 -101.667 9 -143 11s-81.666 3 -120.999 3c-104.667 0 -180.5 -10.167 -227.5 -30.5s-70.5 -53.5 -70.5 -99.5c0 -30.667 7.5 -52.667 22.5 -66s38.833 -26 71.5 -38l326 -120c73.333 -26.667 133.666 -54.334 180.999 -83.001
s82.666 -63.834 105.999 -105.501s35 -95.5 35 -161.5zM289.001 668.002c0 -50 14.667 -88.834 44 -116.501s69.333 -46.834 120 -57.501s108 -16 172 -16c100 0 172.667 15.333 218 46s68 79.334 68 146.001c0 78.667 -27.333 131.334 -82 158.001s-128.667 40 -222 40
c-112 0 -193 -15.667 -243 -47s-75 -82.333 -75 -153z" />
    <glyph glyph-name="dieresis" unicode="&#xa8;" 
d="M810 1238c-36.667 0 -68.167 13.167 -94.5 39.5s-39.5 57.833 -39.5 94.5c0 37.333 13.167 69 39.5 95s57.833 39 94.5 39c37.333 0 69 -13 95 -39s39 -57.667 39 -95c0 -36.667 -13 -68.167 -39 -94.5s-57.667 -39.5 -95 -39.5zM390 1238
c-36.667 0 -68.167 13.167 -94.5 39.5s-39.5 57.833 -39.5 94.5c0 37.333 13.167 69 39.5 95s57.833 39 94.5 39c37.333 0 69 -13 95 -39s39 -57.667 39 -95c0 -36.667 -13 -68.167 -39 -94.5s-57.667 -39.5 -95 -39.5z" />
    <glyph glyph-name="copyright" unicode="&#xa9;" 
d="M600 15c-182.667 0 -324 59.333 -424 178s-150 286 -150 502c0 225.333 50 400 150 524s241.333 186 424 186s324 -62 424 -186s150 -298.667 150 -524c0 -216 -50 -383.333 -150 -502s-241.333 -178 -424 -178zM600 169c128.667 0 228.167 46 298.5 138
s105.5 221.333 105.5 388c0 176.667 -35.167 313.5 -105.5 410.5s-169.833 145.5 -298.5 145.5s-228.167 -48.5 -298.5 -145.5s-105.5 -233.833 -105.5 -410.5c0 -166.667 35.167 -296 105.5 -388s169.833 -138 298.5 -138zM652 380c-116.667 0 -206.83 28.667 -270.497 86
s-95.5 139.333 -95.5 246c0 103.333 31 183.833 93 241.5s150.333 86.5 265 86.5c59.333 0 110.166 -10.5 152.499 -31.5s72.5 -50.5 90.5 -88.5l-123 -113c-29.333 48.667 -72 73 -128 73c-50.667 0 -90 -13.667 -118 -41s-42 -66.333 -42 -117
c0 -58.667 17.167 -103.667 51.5 -135s83.833 -47 148.5 -47c29.333 0 58.5 2.33301 87.5 7s57.167 11 84.5 19l24 -156c-34.667 -12 -70.834 -20 -108.501 -24s-74.834 -6 -111.501 -6z" />
    <glyph glyph-name="ordfeminine" unicode="&#xaa;" 
d="M501 773c-68.667 0 -121.999 16.835 -159.999 50.502s-57 81.167 -57 142.5c0 69.333 23 122.833 69 160.5s111.333 56.5 196 56.5c67.333 0 124.666 -2.33301 171.999 -7v2c0 72.667 -58.333 110 -175 112l-185 4l11 146l162 -1
c120 -0.666992 208.833 -24.834 266.5 -72.501s86.5 -116.834 86.5 -207.501v-249l107 -13v-112l-249 -6l-5 115h-27c-16.667 -40 -40.167 -70.167 -70.5 -90.5s-77.5 -30.5 -141.5 -30.5zM545.001 909.002c58.667 0 102.667 10.667 132 32s44 44 44 68v50h-168
c-62.667 0 -94 -25.333 -94 -76c0 -49.333 28.667 -74 86 -74z" />
    <glyph glyph-name="guillemotleft" unicode="&#xab;" 
d="M1084 74l-488 384v142l488 384v-230l-300 -216v-18l300 -216v-230zM564 74l-488 384v142l488 384v-230l-300 -216v-18l300 -216v-230z" />
    <glyph glyph-name="logicalnot" unicode="&#xac;" 
d="M100 717v186h1000v-553h-192v367h-808z" />
    <glyph glyph-name="uni00AD" unicode="&#xad;" 
d="M100 616v186h1000v-186h-1000z" />
    <glyph glyph-name="registered" unicode="&#xae;" 
d="M600 15c-182.667 0 -324 59.333 -424 178s-150 286 -150 502c0 225.333 50 400 150 524s241.333 186 424 186s324 -62 424 -186s150 -298.667 150 -524c0 -216 -50 -383.333 -150 -502s-241.333 -178 -424 -178zM600 169c128.667 0 228.167 46 298.5 138
s105.5 221.333 105.5 388c0 176.667 -35.167 313.5 -105.5 410.5s-169.833 145.5 -298.5 145.5s-228.167 -48.5 -298.5 -145.5s-105.5 -233.833 -105.5 -410.5c0 -166.667 35.167 -296 105.5 -388s169.833 -138 298.5 -138zM348 396v634h300c77.333 0 137 -17.833 179 -53.5
s63 -86.167 63 -151.5c0 -102.667 -41.333 -170.667 -124 -204l138 -225h-187l-110 204h-99v-204h-160zM648 900h-140v-170h140c61.333 0 92 28.333 92 85s-30.667 85 -92 85z" />
    <glyph glyph-name="macron" unicode="&#xaf;" 
d="M170 1248v188h860v-188h-860z" />
    <glyph glyph-name="degree" unicode="&#xb0;" 
d="M600 770c-102.667 0 -185.334 30.667 -248.001 92s-94 142.333 -94 243c0 101.333 31.333 182.5 94 243.5s145.334 91.5 248.001 91.5c103.333 0 186.166 -30.5 248.499 -91.5s93.5 -142.167 93.5 -243.5c0 -100.667 -31.167 -181.667 -93.5 -243
s-145.166 -92 -248.499 -92zM600 920c50.667 0 91.167 17 121.5 51s45.5 78.667 45.5 134c0 56 -15.167 101 -45.5 135s-70.833 51 -121.5 51s-91.167 -17 -121.5 -51s-45.5 -79 -45.5 -135c0 -55.333 15.167 -100 45.5 -134s70.833 -51 121.5 -51z" />
    <glyph glyph-name="plusminus" unicode="&#xb1;" 
d="M100 186v186h404v311h-404v186h404v355h192v-355h404v-186h-404v-311h404v-186h-1000z" />
    <glyph glyph-name="uni00B2" unicode="&#xb2;" 
d="M342 802l-0.00195312 156.999c198 69.333 297 145.333 297 228c0 62 -34 93 -102 93c-49.333 0 -100.666 -15.333 -153.999 -46l-66 138c29.333 22 66.333 38.833 111 50.5s93.334 17.5 146.001 17.5c78 0 140.5 -18.167 187.5 -54.5s70.5 -84.166 70.5 -143.499
c0 -104 -81.333 -199.667 -244 -287v-13h270v-140h-516z" />
    <glyph glyph-name="uni00B3" unicode="&#xb3;" 
d="M554 793c-43.333 -0.666992 -83.333 1.32812 -120 5.99512s-69.334 11.334 -98.001 20.001l41 146l71.5 -13.5c27 -5 57.5 -7.5 91.5 -7.5c89.333 0 134 21 134 63c0 34.667 -42.333 52 -127 52h-64l-10 116c64.667 4.66699 111.334 12.834 140.001 24.501
s43 25.5 43 41.5c0 32.667 -37.333 49 -112 49c-64.667 0 -123 -9.66699 -175 -29l-21 149c33.333 10.667 68.833 18.334 106.5 23.001s77.5 7 119.5 7c82 0 145.167 -11.833 189.5 -35.5s66.5 -57.834 66.5 -102.501c0 -34.667 -13.667 -64.5 -41 -89.5
s-63.333 -42.167 -108 -51.5v-24c50 -7.33301 90.167 -23.666 120.5 -48.999s45.5 -58.666 45.5 -99.999c0 -62 -25.5 -109.667 -76.5 -143s-123.167 -50.666 -216.5 -51.999z" />
    <glyph glyph-name="acute" unicode="&#xb4;" 
d="M469 1248l170 380h212l-190 -380h-192z" />
    <glyph glyph-name="uni00B5" unicode="&#xb5;" 
d="M156 -460v1540h212v-650c0 -76.667 17.333 -135.834 52 -177.501s83.334 -62.5 146.001 -62.5c77.333 0 135.666 23 174.999 69s59 123 59 231v590h212v-888l146 -22v-170l-340 -10l-15 214h-19c-28 -149.333 -100.667 -224 -218 -224c-108 0 -176.333 74.667 -205 224
h-19l36 -664h-222z" />
    <glyph glyph-name="paragraph" unicode="&#xb6;" 
d="M422 0v644c-123.333 12.667 -218.5 51.167 -285.5 115.5s-100.5 151.833 -100.5 262.5c0 125.333 42.167 223 126.5 293s204.833 105 361.5 105h636v-190h-168v-1230h-200v1230h-170v-1230h-200z" />
    <glyph glyph-name="periodcentered" unicode="&#xb7;" 
d="M600 562c-40.667 0 -75.5 14.5 -104.5 43.5s-43.5 63.833 -43.5 104.5c0 41.333 14.5 76.333 43.5 105s63.833 43 104.5 43c41.333 0 76.333 -14.333 105 -43s43 -63.667 43 -105c0 -40.667 -14.333 -75.5 -43 -104.5s-63.667 -43.5 -105 -43.5z" />
    <glyph glyph-name="cedilla" unicode="&#xb8;" 
d="M514 -480v150c125.333 0 188 24 188 72c0 45.333 -54 68 -162 68l84 239l126 -37l-30 -112c114.667 -24 172 -79.667 172 -167c0 -142 -126 -213 -378 -213z" />
    <glyph glyph-name="uni00B9" unicode="&#xb9;" 
d="M342 802v141h199v319l-190 -51v158l190 53h156v-479h163v-141h-518z" />
    <glyph glyph-name="ordmasculine" unicode="&#xba;" 
d="M600 770c-102.667 0 -185.334 30.667 -248.001 92s-94 142.333 -94 243c0 101.333 31.333 182.5 94 243.5s145.334 91.5 248.001 91.5c103.333 0 186.166 -30.5 248.499 -91.5s93.5 -142.167 93.5 -243.5c0 -100.667 -31.167 -181.667 -93.5 -243
s-145.166 -92 -248.499 -92zM600 920c47.333 0 85.333 17 114 51s43 78.667 43 134c0 56 -14.333 101 -43 135s-66.667 51 -114 51s-85.333 -17 -114 -51s-43 -79 -43 -135c0 -55.333 14.333 -100 43 -134s66.667 -51 114 -51z" />
    <glyph glyph-name="guillemotright" unicode="&#xbb;" 
d="M636 74v230l300 216v18l-300 216v230l488 -384v-142zM116 74v230l300 216v18l-300 216v230l488 -384v-142z" />
    <glyph glyph-name="onequarter" unicode="&#xbc;" 
d="M82 802v141h199v319l-190 -51v158l190 53h156v-479h163v-141h-518zM186 286l-92 136l930 664l92 -130zM560 106l2 4l77 475h164l-55 -339h133v372h156v-372h69v-140h-69v-106h-156v106h-321z" />
    <glyph glyph-name="onehalf" unicode="&#xbd;" 
d="M82 802v141h199v319l-190 -51v158l190 53h156v-479h163v-141h-518zM186 296l-92 136l930 664l92 -130zM612 -1l-0.00195312 156.999c198 69.333 297 145.333 297 228c0 62 -34 93 -102 93c-49.333 0 -100.666 -15.333 -153.999 -46l-66 138
c29.333 22 66.333 38.833 111 50.5s93.334 17.5 146.001 17.5c78 0 140.5 -18.167 187.5 -54.5s70.5 -84.166 70.5 -143.499c0 -104 -81.333 -199.667 -244 -287v-13h270v-140h-516z" />
    <glyph glyph-name="threequarters" unicode="&#xbe;" 
d="M314 793c-43.333 -0.666992 -83.333 1.32812 -120 5.99512s-69.334 11.334 -98.001 20.001l41 146l71.5 -13.5c27 -5 57.5 -7.5 91.5 -7.5c89.333 0 134 21 134 63c0 34.667 -42.333 52 -127 52h-64l-10 116c64.667 4.66699 111.334 12.834 140.001 24.501
s43 25.5 43 41.5c0 32.667 -37.333 49 -112 49c-64.667 0 -123 -9.66699 -175 -29l-21 149c33.333 10.667 68.833 18.334 106.5 23.001s77.5 7 119.5 7c82 0 145.167 -11.833 189.5 -35.5s66.5 -57.834 66.5 -102.501c0 -34.667 -13.667 -64.5 -41 -89.5
s-63.333 -42.167 -108 -51.5v-24c50 -7.33301 90.167 -23.666 120.5 -48.999s45.5 -58.666 45.5 -99.999c0 -62 -25.5 -109.667 -76.5 -143s-123.167 -50.666 -216.5 -51.999zM186 305.995l-92 136l930 664l92 -130zM560 105.995l2 4l77 475h164l-55 -339h133v372h156v-372
h69v-140h-69v-106h-156v106h-321z" />
    <glyph glyph-name="questiondown" unicode="&#xbf;" 
d="M598 1080c41.333 0 76.333 -14.333 105 -43s43 -63.667 43 -105c0 -40.667 -14.333 -75.5 -43 -104.5s-63.667 -43.5 -105 -43.5c-40.667 0 -75.5 14.5 -104.5 43.5s-43.5 63.833 -43.5 104.5c0 41.333 14.5 76.333 43.5 105s63.833 43 104.5 43zM564 -380
c-130 0 -230.836 29.667 -302.503 89s-107.5 142.333 -107.5 249c0 148 74 269.333 222 364c85.333 55.333 128 122 128 200v82h196v-96c0 -132 -54.667 -232.667 -164 -302c-108 -66.667 -162 -146 -162 -238c0 -50 16.833 -88.833 50.5 -116.5s80.834 -41.5 141.501 -41.5
c62.667 0 124.334 15.667 185.001 47s112.334 73 155.001 125l138 -143c-46.667 -66 -113.167 -119 -199.5 -159s-179.833 -60 -280.5 -60z" />
    <glyph glyph-name="Agrave" unicode="&#xc0;" 
d="M45 0l410 1420h290l410 -1420h-210l-93 346h-504l-93 -346h-210zM591 1248l-192 -712h402l-192 712h-18zM499 1580l-260 250h282l220 -250h-242z" />
    <glyph glyph-name="Aacute" unicode="&#xc1;" 
d="M45 0l410 1420h290l410 -1420h-210l-93 346h-504l-93 -346h-210zM591 1248l-192 -712h402l-192 712h-18zM469 1580l220 250h282l-260 -250h-242z" />
    <glyph glyph-name="Acircumflex" unicode="&#xc2;" 
d="M45 0l410 1420h290l410 -1420h-210l-93 346h-504l-93 -346h-210zM591 1248l-192 -712h402l-192 712h-18zM259 1580l260 260h172l260 -260h-222l-124 144l-124 -144h-222z" />
    <glyph glyph-name="Atilde" unicode="&#xc3;" 
d="M45 0l410 1420h290l410 -1420h-210l-93 346h-504l-93 -346h-210zM591 1248l-192 -712h402l-192 712h-18zM225 1566l-0.000976562 49.999c0 166.667 70 250 210 250c27.333 0 55.833 -4.83301 85.5 -14.5l102.5 -34.5c39.333 -13.333 69.333 -25.166 90 -35.499
s39.334 -15.5 56.001 -15.5c36 0 54 31.333 54 94v30h172v-50c0 -160 -62.667 -240 -188 -240c-22.667 0 -49.667 5.33301 -81 16l-112 39c-28.667 10 -55 20 -79 30s-44.667 15 -62 15c-49.333 0 -74 -34.667 -74 -104v-30h-174z" />
    <glyph glyph-name="Adieresis" unicode="&#xc4;" 
d="M45 0l410 1420h290l410 -1420h-210l-93 346h-504l-93 -346h-210zM591 1248l-192 -712h402l-192 712h-18zM808 1580c-36.667 0 -68.167 13.167 -94.5 39.5s-39.5 57.833 -39.5 94.5c0 37.333 13.167 69 39.5 95s57.833 39 94.5 39c37.333 0 69 -13 95 -39
s39 -57.667 39 -95c0 -36.667 -13 -68.167 -39 -94.5s-57.667 -39.5 -95 -39.5zM388 1580c-36.667 0 -68.167 13.167 -94.5 39.5s-39.5 57.833 -39.5 94.5c0 37.333 13.167 69 39.5 95s57.833 39 94.5 39c37.333 0 69 -13 95 -39s39 -57.667 39 -95
c0 -36.667 -13 -68.167 -39 -94.5s-57.667 -39.5 -95 -39.5z" />
    <glyph glyph-name="Aring" unicode="&#xc5;" 
d="M45 0l410 1420h290l410 -1420h-210l-93 346h-504l-93 -346h-210zM591 1248l-192 -712h402l-192 712h-18zM600 1488c-75.333 0 -133.833 18 -175.5 54s-62.5 86.667 -62.5 152s20.833 116 62.5 152s100.167 54 175.5 54s133.833 -18 175.5 -54s62.5 -86.667 62.5 -152
s-20.833 -116 -62.5 -152s-100.167 -54 -175.5 -54zM600 1604c64 0 96 30 96 90c0 60.667 -32 91 -96 91s-96 -30.333 -96 -91c0 -60 32 -90 96 -90z" />
    <glyph glyph-name="AE" unicode="&#xc6;" 
d="M42 0l400 1420h658v-180h-320v-439h260v-180h-260v-441h320v-180h-500v246h-299l-69 -246h-190zM583 1248l-235 -837h252v837h-17z" />
    <glyph glyph-name="Ccedilla" unicode="&#xc7;" 
d="M758 -20c-441.333 0 -661.999 244.001 -661.999 732.001c0 231.333 55.667 410.5 167 537.5s268.333 190.5 471 190.5c98 0 183.333 -15.5 256 -46.5s125.667 -75.167 159 -132.5l-148 -147c-30 45.333 -68.167 80.333 -114.5 105s-96.5 37 -150.5 37
c-128.667 0 -231.834 -46.333 -309.501 -139s-116.5 -224.334 -116.5 -395.001c0 -372 160.667 -558 482 -558c96.667 0 192 20 286 60l46 -176c-116 -45.333 -238 -68 -366 -68zM514.001 -479.999v150c125.333 0 188 24 188 72c0 45.333 -54 68 -162 68l84 239l126 -37
l-30 -112c114.667 -24 172 -79.667 172 -167c0 -142 -126 -213 -378 -213z" />
    <glyph glyph-name="Egrave" unicode="&#xc8;" 
d="M160 0v1420h940v-190h-740v-424h560v-190h-560v-426h740v-190h-940zM529 1580l-260 250h282l220 -250h-242z" />
    <glyph glyph-name="Eacute" unicode="&#xc9;" 
d="M160 0v1420h940v-190h-740v-424h560v-190h-560v-426h740v-190h-940zM499 1580l220 250h282l-260 -250h-242z" />
    <glyph glyph-name="Ecircumflex" unicode="&#xca;" 
d="M160 0v1420h940v-190h-740v-424h560v-190h-560v-426h740v-190h-940zM289 1580l260 260h172l260 -260h-222l-124 144l-124 -144h-222z" />
    <glyph glyph-name="Edieresis" unicode="&#xcb;" 
d="M160 0v1420h940v-190h-740v-424h560v-190h-560v-426h740v-190h-940zM838 1580c-36.667 0 -68.167 13.167 -94.5 39.5s-39.5 57.833 -39.5 94.5c0 37.333 13.167 69 39.5 95s57.833 39 94.5 39c37.333 0 69 -13 95 -39s39 -57.667 39 -95c0 -36.667 -13 -68.167 -39 -94.5
s-57.667 -39.5 -95 -39.5zM418 1580c-36.667 0 -68.167 13.167 -94.5 39.5s-39.5 57.833 -39.5 94.5c0 37.333 13.167 69 39.5 95s57.833 39 94.5 39c37.333 0 69 -13 95 -39s39 -57.667 39 -95c0 -36.667 -13 -68.167 -39 -94.5s-57.667 -39.5 -95 -39.5z" />
    <glyph glyph-name="Igrave" unicode="&#xcc;" 
d="M168 0v190h331v1040h-331v190h864v-190h-333v-1040h333v-190h-864zM499 1580l-260 250h282l220 -250h-242z" />
    <glyph glyph-name="Iacute" unicode="&#xcd;" 
d="M168 0v190h331v1040h-331v190h864v-190h-333v-1040h333v-190h-864zM469 1580l220 250h282l-260 -250h-242z" />
    <glyph glyph-name="Icircumflex" unicode="&#xce;" 
d="M168 0v190h331v1040h-331v190h864v-190h-333v-1040h333v-190h-864zM259 1580l260 260h172l260 -260h-222l-124 144l-124 -144h-222z" />
    <glyph glyph-name="Idieresis" unicode="&#xcf;" 
d="M168 0v190h331v1040h-331v190h864v-190h-333v-1040h333v-190h-864zM808 1580c-36.667 0 -68.167 13.167 -94.5 39.5s-39.5 57.833 -39.5 94.5c0 37.333 13.167 69 39.5 95s57.833 39 94.5 39c37.333 0 69 -13 95 -39s39 -57.667 39 -95c0 -36.667 -13 -68.167 -39 -94.5
s-57.667 -39.5 -95 -39.5zM388 1580c-36.667 0 -68.167 13.167 -94.5 39.5s-39.5 57.833 -39.5 94.5c0 37.333 13.167 69 39.5 95s57.833 39 94.5 39c37.333 0 69 -13 95 -39s39 -57.667 39 -95c0 -36.667 -13 -68.167 -39 -94.5s-57.667 -39.5 -95 -39.5z" />
    <glyph glyph-name="Eth" unicode="&#xd0;" 
d="M160 0v612h-118v190h118v618h344c433.333 0 650 -243.333 650 -730c0 -460 -216.667 -690 -650 -690h-344zM681 612h-321v-422h144c293.333 0 440 166.667 440 500c0 360 -146.667 540 -440 540h-144v-428h321v-190z" />
    <glyph glyph-name="Ntilde" unicode="&#xd1;" 
d="M148 0v1420h252l440 -1080h20v1080h192v-1420h-252l-440 1080h-20v-1080h-192zM225 1566l-0.000976562 49.999c0 166.667 70 250 210 250c27.333 0 55.833 -4.83301 85.5 -14.5l102.5 -34.5c39.333 -13.333 69.333 -25.166 90 -35.499s39.334 -15.5 56.001 -15.5
c36 0 54 31.333 54 94v30h172v-50c0 -160 -62.667 -240 -188 -240c-22.667 0 -49.667 5.33301 -81 16l-112 39c-28.667 10 -55 20 -79 30s-44.667 15 -62 15c-49.333 0 -74 -34.667 -74 -104v-30h-174z" />
    <glyph glyph-name="Ograve" unicode="&#xd2;" 
d="M600 -20c-349.333 0 -524 240 -524 720c0 493.333 174.667 740 524 740s524 -246.667 524 -740c0 -480 -174.667 -720 -524 -720zM600 164c209.333 0 314 178.667 314 536c0 370.667 -104.667 556 -314 556s-314 -185.333 -314 -556c0 -357.333 104.667 -536 314 -536z
M499 1580l-260 250h282l220 -250h-242z" />
    <glyph glyph-name="Oacute" unicode="&#xd3;" 
d="M600 -20c-349.333 0 -524 240 -524 720c0 493.333 174.667 740 524 740s524 -246.667 524 -740c0 -480 -174.667 -720 -524 -720zM600 164c209.333 0 314 178.667 314 536c0 370.667 -104.667 556 -314 556s-314 -185.333 -314 -556c0 -357.333 104.667 -536 314 -536z
M469 1580l220 250h282l-260 -250h-242z" />
    <glyph glyph-name="Ocircumflex" unicode="&#xd4;" 
d="M600 -20c-349.333 0 -524 240 -524 720c0 493.333 174.667 740 524 740s524 -246.667 524 -740c0 -480 -174.667 -720 -524 -720zM600 164c209.333 0 314 178.667 314 536c0 370.667 -104.667 556 -314 556s-314 -185.333 -314 -556c0 -357.333 104.667 -536 314 -536z
M259 1580l260 260h172l260 -260h-222l-124 144l-124 -144h-222z" />
    <glyph glyph-name="Otilde" unicode="&#xd5;" 
d="M600 -20c-349.333 0 -524 240 -524 720c0 493.333 174.667 740 524 740s524 -246.667 524 -740c0 -480 -174.667 -720 -524 -720zM600 164c209.333 0 314 178.667 314 536c0 370.667 -104.667 556 -314 556s-314 -185.333 -314 -556c0 -357.333 104.667 -536 314 -536z
M225 1566l-0.000976562 49.999c0 166.667 70 250 210 250c27.333 0 55.833 -4.83301 85.5 -14.5l102.5 -34.5c39.333 -13.333 69.333 -25.166 90 -35.499s39.334 -15.5 56.001 -15.5c36 0 54 31.333 54 94v30h172v-50c0 -160 -62.667 -240 -188 -240
c-22.667 0 -49.667 5.33301 -81 16l-112 39c-28.667 10 -55 20 -79 30s-44.667 15 -62 15c-49.333 0 -74 -34.667 -74 -104v-30h-174z" />
    <glyph glyph-name="Odieresis" unicode="&#xd6;" 
d="M600 -20c-349.333 0 -524 240 -524 720c0 493.333 174.667 740 524 740s524 -246.667 524 -740c0 -480 -174.667 -720 -524 -720zM600 164c209.333 0 314 178.667 314 536c0 370.667 -104.667 556 -314 556s-314 -185.333 -314 -556c0 -357.333 104.667 -536 314 -536z
M808 1580c-36.667 0 -68.167 13.167 -94.5 39.5s-39.5 57.833 -39.5 94.5c0 37.333 13.167 69 39.5 95s57.833 39 94.5 39c37.333 0 69 -13 95 -39s39 -57.667 39 -95c0 -36.667 -13 -68.167 -39 -94.5s-57.667 -39.5 -95 -39.5zM388 1580
c-36.667 0 -68.167 13.167 -94.5 39.5s-39.5 57.833 -39.5 94.5c0 37.333 13.167 69 39.5 95s57.833 39 94.5 39c37.333 0 69 -13 95 -39s39 -57.667 39 -95c0 -36.667 -13 -68.167 -39 -94.5s-57.667 -39.5 -95 -39.5z" />
    <glyph glyph-name="multiply" unicode="&#xd7;" 
d="M249 188l-128 121l357 378l-357 378l128 123l351 -372l351 372l128 -123l-357 -378l357 -378l-128 -121l-351 371z" />
    <glyph glyph-name="Oslash" unicode="&#xd8;" 
d="M201 -134l-135.001 75l133 231c-82 120 -123 296 -123 528c0 493.333 174.667 740 524 740c112 0 206 -25.333 282 -76l97 168l135 -75l-118 -206c85.333 -123.333 128 -307 128 -551c0 -480 -174.667 -720 -524 -720c-115.333 0 -211.666 26 -288.999 78zM285.999 700
c0 -124.667 12.667 -227.667 38 -309l458 797c-48 45.333 -108.667 68 -182 68c-209.333 0 -314 -185.333 -314 -556zM599.999 164c209.333 0 314 178.667 314 536c0 136.667 -14.333 248 -43 334l-458 -799c48.667 -47.333 111 -71 187 -71z" />
    <glyph glyph-name="Ugrave" unicode="&#xd9;" 
d="M596 -20c-304 0 -456 158.667 -456 476v964h200v-964c0 -94.667 20.833 -166 62.5 -214s107.5 -72 197.5 -72c173.333 0 260 95.333 260 286v964h200v-964c0 -158.667 -39.333 -277.667 -118 -357s-194 -119 -346 -119zM499 1580l-260 250h282l220 -250h-242z" />
    <glyph glyph-name="Uacute" unicode="&#xda;" 
d="M596 -20c-304 0 -456 158.667 -456 476v964h200v-964c0 -94.667 20.833 -166 62.5 -214s107.5 -72 197.5 -72c173.333 0 260 95.333 260 286v964h200v-964c0 -158.667 -39.333 -277.667 -118 -357s-194 -119 -346 -119zM469 1580l220 250h282l-260 -250h-242z" />
    <glyph glyph-name="Ucircumflex" unicode="&#xdb;" 
d="M596 -20c-304 0 -456 158.667 -456 476v964h200v-964c0 -94.667 20.833 -166 62.5 -214s107.5 -72 197.5 -72c173.333 0 260 95.333 260 286v964h200v-964c0 -158.667 -39.333 -277.667 -118 -357s-194 -119 -346 -119zM259 1580l260 260h172l260 -260h-222l-124 144
l-124 -144h-222z" />
    <glyph glyph-name="Udieresis" unicode="&#xdc;" 
d="M596 -20c-304 0 -456 158.667 -456 476v964h200v-964c0 -94.667 20.833 -166 62.5 -214s107.5 -72 197.5 -72c173.333 0 260 95.333 260 286v964h200v-964c0 -158.667 -39.333 -277.667 -118 -357s-194 -119 -346 -119zM808 1580c-36.667 0 -68.167 13.167 -94.5 39.5
s-39.5 57.833 -39.5 94.5c0 37.333 13.167 69 39.5 95s57.833 39 94.5 39c37.333 0 69 -13 95 -39s39 -57.667 39 -95c0 -36.667 -13 -68.167 -39 -94.5s-57.667 -39.5 -95 -39.5zM388 1580c-36.667 0 -68.167 13.167 -94.5 39.5s-39.5 57.833 -39.5 94.5
c0 37.333 13.167 69 39.5 95s57.833 39 94.5 39c37.333 0 69 -13 95 -39s39 -57.667 39 -95c0 -36.667 -13 -68.167 -39 -94.5s-57.667 -39.5 -95 -39.5z" />
    <glyph glyph-name="Yacute" unicode="&#xdd;" 
d="M500 0v503l-475 917h220l346 -710h18l346 710h220l-475 -917v-503h-200zM469 1580l220 250h282l-260 -250h-242z" />
    <glyph glyph-name="Thorn" unicode="&#xde;" 
d="M160 0v1420h200v-220h218c172 0 305.333 -41.667 400 -125s142 -201.666 142 -354.999c0 -158.667 -47.333 -281.667 -142 -369s-228 -131 -400 -131h-218v-220h-200zM578 1010h-218v-600h218c105.333 0 187 25.333 245 76s87 122 87 214c0 99.333 -29 175.833 -87 229.5
s-139.667 80.5 -245 80.5z" />
    <glyph glyph-name="germandbls" unicode="&#xdf;" 
d="M68 644l-0.00292969 176h154v250c0 143.333 39.5 254.166 118.5 332.499s190.167 117.5 333.5 117.5c113.333 0 200.833 -27 262.5 -81s92.5 -130.333 92.5 -229c0 -46.667 -5.16699 -85.334 -15.5 -116.001s-23.333 -57.167 -39 -79.5l-46.5 -68.5l-37.5 -72.5
c-12.333 -24.333 -18.5 -55.5 -18.5 -93.5c0 -32.667 10.833 -63.167 32.5 -91.5s46.834 -58.166 75.501 -89.499c28.667 -26.667 57.167 -55.167 85.5 -85.5s51.833 -64 70.5 -101s28 -79.167 28 -126.5c0 -97.333 -30.167 -172.666 -90.5 -225.999s-145.5 -80 -255.5 -80
c-52.667 0 -99.667 2.66699 -141 8s-78.333 12.666 -111 21.999l24 192c48.667 -10 91.667 -17.833 129 -23.5s70.333 -8.5 99 -8.5c84 0 126 37.333 126 112c0 48.667 -12.167 88.834 -36.5 120.501s-53.166 60.5 -86.499 86.5l-79 72.5c-26 25 -47.5 54 -64.5 87
s-25.5 73.5 -25.5 121.5c0 46.667 8.33301 87.5 25 122.5s33.334 67.833 50.001 98.5c19.333 29.333 37.833 61 55.5 95s26.5 75.333 26.5 124c0 37.333 -12.167 66.5 -36.5 87.5s-59.166 31.833 -104.499 32.5c-74.667 0 -132.334 -21.833 -173.001 -65.5
s-61 -105.167 -61 -184.5v-1080h-212v644h-154z" />
    <glyph glyph-name="agrave" unicode="&#xe0;" 
d="M464 -20c-116.667 0 -207.169 26.5 -271.502 79.5s-96.5 128.5 -96.5 226.5c0 112 40.833 198 122.5 258s197.5 90 347.5 90c80 0 150 -8.33301 210 -25v57c0 70.667 -24.833 122.5 -74.5 155.5s-123.5 50.833 -221.5 53.5l-254 7l20 188l214 -3
c175.333 -2.66699 305.5 -40.5 390.5 -113.5s127.5 -179.5 127.5 -319.5v-442l180 -22v-170l-340 -10l-10 234h-21c-7.33301 -81.333 -39.666 -142.333 -96.999 -183s-132.666 -61 -225.999 -61zM497.998 150c62 0 113.5 11.334 154.5 34.001s71.833 51.667 92.5 87
s31 71.666 31 108.999v64c-37.333 10 -74.5 15.833 -111.5 17.5s-74.5 2.5 -112.5 2.5c-170.667 0 -256 -52.667 -256 -158c0 -104 67.333 -156 202 -156zM503.998 1248l-190 380h212l170 -380h-192z" />
    <glyph glyph-name="aacute" unicode="&#xe1;" 
d="M464 -20c-116.667 0 -207.169 26.5 -271.502 79.5s-96.5 128.5 -96.5 226.5c0 112 40.833 198 122.5 258s197.5 90 347.5 90c80 0 150 -8.33301 210 -25v57c0 70.667 -24.833 122.5 -74.5 155.5s-123.5 50.833 -221.5 53.5l-254 7l20 188l214 -3
c175.333 -2.66699 305.5 -40.5 390.5 -113.5s127.5 -179.5 127.5 -319.5v-442l180 -22v-170l-340 -10l-10 234h-21c-7.33301 -81.333 -39.666 -142.333 -96.999 -183s-132.666 -61 -225.999 -61zM497.998 150c62 0 113.5 11.334 154.5 34.001s71.833 51.667 92.5 87
s31 71.666 31 108.999v64c-37.333 10 -74.5 15.833 -111.5 17.5s-74.5 2.5 -112.5 2.5c-170.667 0 -256 -52.667 -256 -158c0 -104 67.333 -156 202 -156zM478.998 1248l170 380h212l-190 -380h-192z" />
    <glyph glyph-name="acircumflex" unicode="&#xe2;" 
d="M464 -20c-116.667 0 -207.169 26.5 -271.502 79.5s-96.5 128.5 -96.5 226.5c0 112 40.833 198 122.5 258s197.5 90 347.5 90c80 0 150 -8.33301 210 -25v57c0 70.667 -24.833 122.5 -74.5 155.5s-123.5 50.833 -221.5 53.5l-254 7l20 188l214 -3
c175.333 -2.66699 305.5 -40.5 390.5 -113.5s127.5 -179.5 127.5 -319.5v-442l180 -22v-170l-340 -10l-10 234h-21c-7.33301 -81.333 -39.666 -142.333 -96.999 -183s-132.666 -61 -225.999 -61zM497.998 150c62 0 113.5 11.334 154.5 34.001s71.833 51.667 92.5 87
s31 71.666 31 108.999v64c-37.333 10 -74.5 15.833 -111.5 17.5s-74.5 2.5 -112.5 2.5c-170.667 0 -256 -52.667 -256 -158c0 -104 67.333 -156 202 -156zM253.998 1248l240 380h172l240 -380h-212l-114 226l-114 -226h-212z" />
    <glyph glyph-name="atilde" unicode="&#xe3;" 
d="M464 -20c-116.667 0 -207.169 26.5 -271.502 79.5s-96.5 128.5 -96.5 226.5c0 112 40.833 198 122.5 258s197.5 90 347.5 90c80 0 150 -8.33301 210 -25v57c0 70.667 -24.833 122.5 -74.5 155.5s-123.5 50.833 -221.5 53.5l-254 7l20 188l214 -3
c175.333 -2.66699 305.5 -40.5 390.5 -113.5s127.5 -179.5 127.5 -319.5v-442l180 -22v-170l-340 -10l-10 234h-21c-7.33301 -81.333 -39.666 -142.333 -96.999 -183s-132.666 -61 -225.999 -61zM497.998 150c62 0 113.5 11.334 154.5 34.001s71.833 51.667 92.5 87
s31 71.666 31 108.999v64c-37.333 10 -74.5 15.833 -111.5 17.5s-74.5 2.5 -112.5 2.5c-170.667 0 -256 -52.667 -256 -158c0 -104 67.333 -156 202 -156zM224.998 1226v80c0 166.667 70 250 210 250c46 0 102 -16.333 168 -49l80 -39.5c16 -7.66699 31.333 -11.5 46 -11.5
c36 0 54 31.333 54 94v60h172v-80c0 -160 -62.667 -240 -188 -240c-20.667 0 -45.5 4.16699 -74.5 12.5s-61.833 22.5 -98.5 42.5c-54 30 -94.333 45 -121 45c-49.333 0 -74 -34.667 -74 -104v-60h-174z" />
    <glyph glyph-name="adieresis" unicode="&#xe4;" 
d="M464 -20c-116.667 0 -207.169 26.5 -271.502 79.5s-96.5 128.5 -96.5 226.5c0 112 40.833 198 122.5 258s197.5 90 347.5 90c80 0 150 -8.33301 210 -25v57c0 70.667 -24.833 122.5 -74.5 155.5s-123.5 50.833 -221.5 53.5l-254 7l20 188l214 -3
c175.333 -2.66699 305.5 -40.5 390.5 -113.5s127.5 -179.5 127.5 -319.5v-442l180 -22v-170l-340 -10l-10 234h-21c-7.33301 -81.333 -39.666 -142.333 -96.999 -183s-132.666 -61 -225.999 -61zM497.998 150c62 0 113.5 11.334 154.5 34.001s71.833 51.667 92.5 87
s31 71.666 31 108.999v64c-37.333 10 -74.5 15.833 -111.5 17.5s-74.5 2.5 -112.5 2.5c-170.667 0 -256 -52.667 -256 -158c0 -104 67.333 -156 202 -156zM791.998 1238c-36.667 0 -68.167 13.167 -94.5 39.5s-39.5 57.833 -39.5 94.5c0 37.333 13.167 69 39.5 95
s57.833 39 94.5 39c37.333 0 69 -13 95 -39s39 -57.667 39 -95c0 -36.667 -13 -68.167 -39 -94.5s-57.667 -39.5 -95 -39.5zM371.998 1238c-36.667 0 -68.167 13.167 -94.5 39.5s-39.5 57.833 -39.5 94.5c0 37.333 13.167 69 39.5 95s57.833 39 94.5 39
c37.333 0 69 -13 95 -39s39 -57.667 39 -95c0 -36.667 -13 -68.167 -39 -94.5s-57.667 -39.5 -95 -39.5z" />
    <glyph glyph-name="aring" unicode="&#xe5;" 
d="M464 -20c-116.667 0 -207.169 26.5 -271.502 79.5s-96.5 128.5 -96.5 226.5c0 112 40.833 198 122.5 258s197.5 90 347.5 90c80 0 150 -8.33301 210 -25v57c0 70.667 -24.833 122.5 -74.5 155.5s-123.5 50.833 -221.5 53.5l-254 7l20 188l214 -3
c175.333 -2.66699 305.5 -40.5 390.5 -113.5s127.5 -179.5 127.5 -319.5v-442l180 -22v-170l-340 -10l-10 234h-21c-7.33301 -81.333 -39.666 -142.333 -96.999 -183s-132.666 -61 -225.999 -61zM497.998 150c62 0 113.5 11.334 154.5 34.001s71.833 51.667 92.5 87
s31 71.666 31 108.999v64c-37.333 10 -74.5 15.833 -111.5 17.5s-74.5 2.5 -112.5 2.5c-170.667 0 -256 -52.667 -256 -158c0 -104 67.333 -156 202 -156zM579.998 1198c-75.333 0 -133.833 18.833 -175.5 56.5s-62.5 90.834 -62.5 159.501s20.833 121.834 62.5 159.501
s100.167 56.5 175.5 56.5s133.833 -18.833 175.5 -56.5s62.5 -90.834 62.5 -159.501s-20.833 -121.834 -62.5 -159.501s-100.167 -56.5 -175.5 -56.5zM579.998 1314c64 0 96 33.333 96 100c0 67.333 -32 101 -96 101s-96 -33.667 -96 -101c0 -66.667 32 -100 96 -100z" />
    <glyph glyph-name="ae" unicode="&#xe6;" 
d="M299 -20c-88.667 0 -157.165 26.666 -205.498 79.999s-72.5 128.666 -72.5 225.999c0 110.667 32.333 196.334 97 257.001s155.667 91 273 91c47.333 0 90.666 -7 129.999 -21v53c0 66 -26 118.333 -78 157s-124.667 59.334 -218 62.001l-94 3l20 182l94 -3
c174 -6 296.667 -68 368 -186c53.333 132.667 139 199 257 199c97.333 0 172.5 -44.333 225.5 -133s79.5 -213.667 79.5 -375c0 -22.667 -0.5 -46 -1.5 -70s-2.5 -46 -4.5 -66h-459c13.333 -89.333 43.833 -158.333 91.5 -207s109.5 -73 185.5 -73c38 0 78 4.33301 120 13
l26 -171c-26.667 -5.33301 -54.834 -9.66602 -84.501 -12.999s-58.167 -5 -85.5 -5c-82.667 0 -153.667 20 -213 60s-105 98 -137 174h-25c-14 -74.667 -43.833 -132.334 -89.5 -173.001s-112.167 -61 -199.5 -61zM847.002 893.999c-46.667 0 -81.5 -24.167 -104.5 -72.5
s-35.833 -126.166 -38.5 -233.499h289c0 107.333 -11.5 185.166 -34.5 233.499s-60.167 72.5 -111.5 72.5zM353.002 149.999c53.333 0 94.668 20.165 124.001 60.498s44 96.833 44 169.5v74c-36.667 13.333 -81.334 20 -134.001 20c-56 0 -99.333 -14.667 -130 -44
s-46 -70.666 -46 -123.999c0 -49.333 12.5 -87.666 37.5 -114.999s59.833 -41 104.5 -41z" />
    <glyph glyph-name="ccedilla" unicode="&#xe7;" 
d="M682 -20c-174 0 -308.5 47.499 -403.5 142.499s-142.5 231.5 -142.5 409.5c0 173.333 46.5 308 139.5 404s225.833 144 398.5 144c103.333 0 191.833 -19.167 265.5 -57.5s126.167 -92.5 157.5 -162.5l-163 -123c-30 48.667 -68.333 86.334 -115 113.001
s-97.667 40 -153 40c-98 0 -174.167 -30.167 -228.5 -90.5s-81.5 -146.166 -81.5 -257.499c0 -120.667 30.333 -212.834 91 -276.501s147 -95.5 259 -95.5c53.333 0 106.166 2.33301 158.499 7s103.5 11 153.5 19l24 -186c-58 -12 -117.667 -20 -179 -24
s-121.666 -6 -180.999 -6zM489 -480.001v150c125.333 0 188 24 188 72c0 45.333 -54 68 -162 68l84 239l126 -37l-30 -112c114.667 -24 172 -79.667 172 -167c0 -142 -126 -213 -378 -213z" />
    <glyph glyph-name="egrave" unicode="&#xe8;" 
d="M702 -20c-180.667 0 -320.166 47.501 -418.499 142.501s-147.5 231.5 -147.5 409.5c0 173.333 41.667 308 125 404s201 144 353 144c143.333 0 254.166 -43.333 332.499 -130s117.5 -212.667 117.5 -378c0 -48.667 -2 -94 -6 -136h-716
c18.667 -88.667 60.667 -155.834 126 -201.501s151.333 -68.5 258 -68.5c44 0 87.333 2.5 130 7.5s86 11.833 130 20.5l26 -186c-62.667 -12 -120 -19.667 -172 -23s-98 -5 -138 -5zM616.001 894.001c-82 0 -147.332 -25.667 -195.999 -77s-77.334 -124.333 -86.001 -219
h538c0 95.333 -22.667 168.5 -68 219.5s-108 76.5 -188 76.5zM544.002 1248l-190 380h212l170 -380h-192z" />
    <glyph glyph-name="eacute" unicode="&#xe9;" 
d="M702 -20c-180.667 0 -320.166 47.501 -418.499 142.501s-147.5 231.5 -147.5 409.5c0 173.333 41.667 308 125 404s201 144 353 144c143.333 0 254.166 -43.333 332.499 -130s117.5 -212.667 117.5 -378c0 -48.667 -2 -94 -6 -136h-716
c18.667 -88.667 60.667 -155.834 126 -201.501s151.333 -68.5 258 -68.5c44 0 87.333 2.5 130 7.5s86 11.833 130 20.5l26 -186c-62.667 -12 -120 -19.667 -172 -23s-98 -5 -138 -5zM616.001 894.001c-82 0 -147.332 -25.667 -195.999 -77s-77.334 -124.333 -86.001 -219
h538c0 95.333 -22.667 168.5 -68 219.5s-108 76.5 -188 76.5zM519.002 1248l170 380h212l-190 -380h-192z" />
    <glyph glyph-name="ecircumflex" unicode="&#xea;" 
d="M702 -20c-180.667 0 -320.166 47.501 -418.499 142.501s-147.5 231.5 -147.5 409.5c0 173.333 41.667 308 125 404s201 144 353 144c143.333 0 254.166 -43.333 332.499 -130s117.5 -212.667 117.5 -378c0 -48.667 -2 -94 -6 -136h-716
c18.667 -88.667 60.667 -155.834 126 -201.501s151.333 -68.5 258 -68.5c44 0 87.333 2.5 130 7.5s86 11.833 130 20.5l26 -186c-62.667 -12 -120 -19.667 -172 -23s-98 -5 -138 -5zM616.001 894.001c-82 0 -147.332 -25.667 -195.999 -77s-77.334 -124.333 -86.001 -219
h538c0 95.333 -22.667 168.5 -68 219.5s-108 76.5 -188 76.5zM294.002 1248l240 380h172l240 -380h-212l-114 226l-114 -226h-212z" />
    <glyph glyph-name="edieresis" unicode="&#xeb;" 
d="M702 -20c-180.667 0 -320.166 47.501 -418.499 142.501s-147.5 231.5 -147.5 409.5c0 173.333 41.667 308 125 404s201 144 353 144c143.333 0 254.166 -43.333 332.499 -130s117.5 -212.667 117.5 -378c0 -48.667 -2 -94 -6 -136h-716
c18.667 -88.667 60.667 -155.834 126 -201.501s151.333 -68.5 258 -68.5c44 0 87.333 2.5 130 7.5s86 11.833 130 20.5l26 -186c-62.667 -12 -120 -19.667 -172 -23s-98 -5 -138 -5zM616.001 894.001c-82 0 -147.332 -25.667 -195.999 -77s-77.334 -124.333 -86.001 -219
h538c0 95.333 -22.667 168.5 -68 219.5s-108 76.5 -188 76.5zM832.002 1238c-36.667 0 -68.167 13.167 -94.5 39.5s-39.5 57.833 -39.5 94.5c0 37.333 13.167 69 39.5 95s57.833 39 94.5 39c37.333 0 69 -13 95 -39s39 -57.667 39 -95c0 -36.667 -13 -68.167 -39 -94.5
s-57.667 -39.5 -95 -39.5zM412.002 1238c-36.667 0 -68.167 13.167 -94.5 39.5s-39.5 57.833 -39.5 94.5c0 37.333 13.167 69 39.5 95s57.833 39 94.5 39c37.333 0 69 -13 95 -39s39 -57.667 39 -95c0 -36.667 -13 -68.167 -39 -94.5s-57.667 -39.5 -95 -39.5z" />
    <glyph glyph-name="igrave" unicode="&#xec;" 
d="M160 0v174h404v712h-344v174h556v-886h326v-174h-942zM574 1248l-190 380h212l170 -380h-192z" />
    <glyph glyph-name="iacute" unicode="&#xed;" 
d="M160 0v174h404v712h-344v174h556v-886h326v-174h-942zM549 1248l170 380h212l-190 -380h-192z" />
    <glyph glyph-name="icircumflex" unicode="&#xee;" 
d="M160 0v174h404v712h-344v174h556v-886h326v-174h-942zM324 1248l240 380h172l240 -380h-212l-114 226l-114 -226h-212z" />
    <glyph glyph-name="idieresis" unicode="&#xef;" 
d="M160 0v174h404v712h-344v174h556v-886h326v-174h-942zM862 1238c-36.667 0 -68.167 13.167 -94.5 39.5s-39.5 57.833 -39.5 94.5c0 37.333 13.167 69 39.5 95s57.833 39 94.5 39c37.333 0 69 -13 95 -39s39 -57.667 39 -95c0 -36.667 -13 -68.167 -39 -94.5
s-57.667 -39.5 -95 -39.5zM442 1238c-36.667 0 -68.167 13.167 -94.5 39.5s-39.5 57.833 -39.5 94.5c0 37.333 13.167 69 39.5 95s57.833 39 94.5 39c37.333 0 69 -13 95 -39s39 -57.667 39 -95c0 -36.667 -13 -68.167 -39 -94.5s-57.667 -39.5 -95 -39.5z" />
    <glyph glyph-name="eth" unicode="&#xf0;" 
d="M584 -20c-148.667 0 -263.499 43.668 -344.499 131.001s-121.5 210.333 -121.5 369c0 140 33.667 248.333 101 325s163 115 287 115c86 0 158.833 -18.5 218.5 -55.5s99.5 -89.167 119.5 -156.5h17c-4.66699 173.333 -44.334 314.666 -119.001 423.999l-464 -135l-40 175
l364 106c-70.667 53.333 -158.667 99.333 -264 138l50 100c158.667 -48 287.667 -110.667 387 -188l289 84l40 -175l-186 -54c56.667 -76.667 98.5 -165.167 125.5 -265.5s40.5 -214.833 40.5 -343.5v-48c0 -174 -43.333 -308.5 -130 -403.5s-210 -142.5 -370 -142.5z
M582.001 164.001c186.667 0 280.001 92 280.001 276c0 94.667 -23 167.667 -69 219s-111.667 77 -197 77c-84.667 0 -149.834 -22.167 -195.501 -66.5s-68.5 -107.5 -68.5 -189.5c0 -100.667 21.667 -178.5 65 -233.5s105 -82.5 185 -82.5z" />
    <glyph glyph-name="ntilde" unicode="&#xf1;" 
d="M168 0v1060h192l17 -192h23c12 141.333 105.333 212 280 212c112 0 198.667 -34 260 -102s92 -164 92 -288v-690h-212v690c0 64 -16.667 113.333 -50 148s-80 52 -140 52c-166.667 0 -250 -98 -250 -294v-596h-212zM235 1226v80c0 166.667 70 250 210 250
c46 0 102 -16.333 168 -49l80 -39.5c16 -7.66699 31.333 -11.5 46 -11.5c36 0 54 31.333 54 94v60h172v-80c0 -160 -62.667 -240 -188 -240c-20.667 0 -45.5 4.16699 -74.5 12.5s-61.833 22.5 -98.5 42.5c-54 30 -94.333 45 -121 45c-49.333 0 -74 -34.667 -74 -104v-60
h-174z" />
    <glyph glyph-name="ograve" unicode="&#xf2;" 
d="M600 -20c-146.667 0 -260.667 48 -342 144s-122 231.333 -122 406c0 175.333 40.667 310.833 122 406.5s195.333 143.5 342 143.5c147.333 0 261.5 -47.833 342.5 -143.5s121.5 -231.167 121.5 -406.5c0 -174.667 -40.5 -310 -121.5 -406s-195.167 -144 -342.5 -144z
M600 170c78 0 138.167 31.333 180.5 94s63.5 151.334 63.5 266.001c0 115.333 -21.167 204.166 -63.5 266.499s-102.5 93.5 -180.5 93.5s-138.167 -31.167 -180.5 -93.5s-63.5 -151.166 -63.5 -266.499c0 -114.667 21.167 -203.334 63.5 -266.001s102.5 -94 180.5 -94z
M524 1248l-190 380h212l170 -380h-192z" />
    <glyph glyph-name="oacute" unicode="&#xf3;" 
d="M600 -20c-146.667 0 -260.667 48 -342 144s-122 231.333 -122 406c0 175.333 40.667 310.833 122 406.5s195.333 143.5 342 143.5c147.333 0 261.5 -47.833 342.5 -143.5s121.5 -231.167 121.5 -406.5c0 -174.667 -40.5 -310 -121.5 -406s-195.167 -144 -342.5 -144z
M600 170c78 0 138.167 31.333 180.5 94s63.5 151.334 63.5 266.001c0 115.333 -21.167 204.166 -63.5 266.499s-102.5 93.5 -180.5 93.5s-138.167 -31.167 -180.5 -93.5s-63.5 -151.166 -63.5 -266.499c0 -114.667 21.167 -203.334 63.5 -266.001s102.5 -94 180.5 -94z
M499 1248l170 380h212l-190 -380h-192z" />
    <glyph glyph-name="ocircumflex" unicode="&#xf4;" 
d="M600 -20c-146.667 0 -260.667 48 -342 144s-122 231.333 -122 406c0 175.333 40.667 310.833 122 406.5s195.333 143.5 342 143.5c147.333 0 261.5 -47.833 342.5 -143.5s121.5 -231.167 121.5 -406.5c0 -174.667 -40.5 -310 -121.5 -406s-195.167 -144 -342.5 -144z
M600 170c78 0 138.167 31.333 180.5 94s63.5 151.334 63.5 266.001c0 115.333 -21.167 204.166 -63.5 266.499s-102.5 93.5 -180.5 93.5s-138.167 -31.167 -180.5 -93.5s-63.5 -151.166 -63.5 -266.499c0 -114.667 21.167 -203.334 63.5 -266.001s102.5 -94 180.5 -94z
M274 1248l240 380h172l240 -380h-212l-114 226l-114 -226h-212z" />
    <glyph glyph-name="otilde" unicode="&#xf5;" 
d="M600 -20c-146.667 0 -260.667 48 -342 144s-122 231.333 -122 406c0 175.333 40.667 310.833 122 406.5s195.333 143.5 342 143.5c147.333 0 261.5 -47.833 342.5 -143.5s121.5 -231.167 121.5 -406.5c0 -174.667 -40.5 -310 -121.5 -406s-195.167 -144 -342.5 -144z
M600 170c78 0 138.167 31.333 180.5 94s63.5 151.334 63.5 266.001c0 115.333 -21.167 204.166 -63.5 266.499s-102.5 93.5 -180.5 93.5s-138.167 -31.167 -180.5 -93.5s-63.5 -151.166 -63.5 -266.499c0 -114.667 21.167 -203.334 63.5 -266.001s102.5 -94 180.5 -94z
M245 1226v80c0 166.667 70 250 210 250c46 0 102 -16.333 168 -49l80 -39.5c16 -7.66699 31.333 -11.5 46 -11.5c36 0 54 31.333 54 94v60h172v-80c0 -160 -62.667 -240 -188 -240c-20.667 0 -45.5 4.16699 -74.5 12.5s-61.833 22.5 -98.5 42.5c-54 30 -94.333 45 -121 45
c-49.333 0 -74 -34.667 -74 -104v-60h-174z" />
    <glyph glyph-name="odieresis" unicode="&#xf6;" 
d="M600 -20c-146.667 0 -260.667 48 -342 144s-122 231.333 -122 406c0 175.333 40.667 310.833 122 406.5s195.333 143.5 342 143.5c147.333 0 261.5 -47.833 342.5 -143.5s121.5 -231.167 121.5 -406.5c0 -174.667 -40.5 -310 -121.5 -406s-195.167 -144 -342.5 -144z
M600 170c78 0 138.167 31.333 180.5 94s63.5 151.334 63.5 266.001c0 115.333 -21.167 204.166 -63.5 266.499s-102.5 93.5 -180.5 93.5s-138.167 -31.167 -180.5 -93.5s-63.5 -151.166 -63.5 -266.499c0 -114.667 21.167 -203.334 63.5 -266.001s102.5 -94 180.5 -94z
M812 1238c-36.667 0 -68.167 13.167 -94.5 39.5s-39.5 57.833 -39.5 94.5c0 37.333 13.167 69 39.5 95s57.833 39 94.5 39c37.333 0 69 -13 95 -39s39 -57.667 39 -95c0 -36.667 -13 -68.167 -39 -94.5s-57.667 -39.5 -95 -39.5zM392 1238
c-36.667 0 -68.167 13.167 -94.5 39.5s-39.5 57.833 -39.5 94.5c0 37.333 13.167 69 39.5 95s57.833 39 94.5 39c37.333 0 69 -13 95 -39s39 -57.667 39 -95c0 -36.667 -13 -68.167 -39 -94.5s-57.667 -39.5 -95 -39.5z" />
    <glyph glyph-name="divide" unicode="&#xf7;" 
d="M600 984c-38.667 0 -71.832 13.833 -99.499 41.5s-41.5 60.834 -41.5 99.501s13.833 71.667 41.5 99s60.834 41 99.501 41c39.333 0 72.666 -13.667 99.999 -41s41 -60.333 41 -99s-13.833 -71.834 -41.5 -99.501s-60.834 -41.5 -99.501 -41.5zM100.002 616v186h1000
v-186h-1000zM600.002 151c-38.667 0 -71.834 13.667 -99.501 41s-41.5 60.333 -41.5 99c0 39.333 13.833 72.666 41.5 99.999s60.834 41 99.501 41c39.333 0 72.666 -13.667 99.999 -41s41 -60.666 41 -99.999c0 -38.667 -13.667 -71.667 -41 -99s-60.666 -41 -99.999 -41z
" />
    <glyph glyph-name="oslash" unicode="&#xf8;" 
d="M301 -134l-105.001 75l87 156c-98 96 -147 240.333 -147 433c0 175.333 40.667 310.833 122 406.5s195.333 143.5 342 143.5c78 0 147 -13.667 207 -41l89 159l115 -65l-95 -169c98.667 -96 148 -240.667 148 -434c0 -174.667 -40.5 -310 -121.5 -406
s-195.167 -144 -342.5 -144c-79.333 0 -149.666 14.333 -210.999 43zM355.999 530c0 -92 13.666 -167.668 40.999 -227.001l312 560c-31.333 18 -67.666 27 -108.999 27c-78 0 -138.167 -31.167 -180.5 -93.5s-63.5 -151.166 -63.5 -266.499zM599.998 169.999
c78 0 138.166 31.333 180.499 94s63.5 151.334 63.5 266.001c0 93.333 -14 169.666 -42 228.999l-315 -560c32.667 -19.333 70.334 -29 113.001 -29z" />
    <glyph glyph-name="ugrave" unicode="&#xf9;" 
d="M506 -20c-111.333 0 -197.499 33.167 -258.499 99.5s-91.5 159.833 -91.5 280.5v700h212v-700c0 -60.667 17.333 -107.5 52 -140.5s83.334 -49.5 146.001 -49.5c77.333 0 135.666 24.5 174.999 73.5s59 131.167 59 246.5v570h212v-868l146 -22v-170l-340 -10l-15 214h-19
c-16.667 -72 -49.334 -127.333 -98.001 -166s-108.667 -58 -180 -58zM514.001 1248l-190 380h212l170 -380h-192z" />
    <glyph glyph-name="uacute" unicode="&#xfa;" 
d="M506 -20c-111.333 0 -197.499 33.167 -258.499 99.5s-91.5 159.833 -91.5 280.5v700h212v-700c0 -60.667 17.333 -107.5 52 -140.5s83.334 -49.5 146.001 -49.5c77.333 0 135.666 24.5 174.999 73.5s59 131.167 59 246.5v570h212v-868l146 -22v-170l-340 -10l-15 214h-19
c-16.667 -72 -49.334 -127.333 -98.001 -166s-108.667 -58 -180 -58zM489.001 1248l170 380h212l-190 -380h-192z" />
    <glyph glyph-name="ucircumflex" unicode="&#xfb;" 
d="M506 -20c-111.333 0 -197.499 33.167 -258.499 99.5s-91.5 159.833 -91.5 280.5v700h212v-700c0 -60.667 17.333 -107.5 52 -140.5s83.334 -49.5 146.001 -49.5c77.333 0 135.666 24.5 174.999 73.5s59 131.167 59 246.5v570h212v-868l146 -22v-170l-340 -10l-15 214h-19
c-16.667 -72 -49.334 -127.333 -98.001 -166s-108.667 -58 -180 -58zM264.001 1248l240 380h172l240 -380h-212l-114 226l-114 -226h-212z" />
    <glyph glyph-name="udieresis" unicode="&#xfc;" 
d="M506 -20c-111.333 0 -197.499 33.167 -258.499 99.5s-91.5 159.833 -91.5 280.5v700h212v-700c0 -60.667 17.333 -107.5 52 -140.5s83.334 -49.5 146.001 -49.5c77.333 0 135.666 24.5 174.999 73.5s59 131.167 59 246.5v570h212v-868l146 -22v-170l-340 -10l-15 214h-19
c-16.667 -72 -49.334 -127.333 -98.001 -166s-108.667 -58 -180 -58zM802.001 1238c-36.667 0 -68.167 13.167 -94.5 39.5s-39.5 57.833 -39.5 94.5c0 37.333 13.167 69 39.5 95s57.833 39 94.5 39c37.333 0 69 -13 95 -39s39 -57.667 39 -95
c0 -36.667 -13 -68.167 -39 -94.5s-57.667 -39.5 -95 -39.5zM382.001 1238c-36.667 0 -68.167 13.167 -94.5 39.5s-39.5 57.833 -39.5 94.5c0 37.333 13.167 69 39.5 95s57.833 39 94.5 39c37.333 0 69 -13 95 -39s39 -57.667 39 -95c0 -36.667 -13 -68.167 -39 -94.5
s-57.667 -39.5 -95 -39.5z" />
    <glyph glyph-name="yacute" unicode="&#xfd;" 
d="M477 0l-421.998 1060h220l346 -900h15l259 900h220l-306 -966c-40 -126.667 -84.833 -228.667 -134.5 -306s-108.334 -135.333 -176.001 -174s-148.834 -63.334 -243.501 -74.001l-180 -20l-10 190l166 20c84.667 10 154.5 35.667 209.5 77s101.5 105.666 139.5 192.999
h-103zM514.002 1248l170 380h212l-190 -380h-192z" />
    <glyph glyph-name="thorn" unicode="&#xfe;" 
d="M168 -460l-0.000976562 1960h212v-632h20c18 141.333 111.333 212 280 212c135.333 0 239.833 -48.833 313.5 -146.5s110.5 -235.5 110.5 -413.5c0 -174 -36.833 -307.5 -110.5 -400.5s-177.5 -139.5 -311.5 -139.5c-80 0 -145.167 15.5 -195.5 46.5
s-79.166 76.833 -86.499 137.5h-20v-624h-212zM649.999 900c-180 0 -270 -101.333 -270 -304v-256c0 -120 89.333 -180 268 -180c164 0 246 120 246 360c0 121.333 -21.167 215 -63.5 281s-102.5 99 -180.5 99z" />
    <glyph glyph-name="ydieresis" unicode="&#xff;" 
d="M477 0l-421.998 1060h220l346 -900h15l259 900h220l-306 -966c-40 -126.667 -84.833 -228.667 -134.5 -306s-108.334 -135.333 -176.001 -174s-148.834 -63.334 -243.501 -74.001l-180 -20l-10 190l166 20c84.667 10 154.5 35.667 209.5 77s101.5 105.666 139.5 192.999
h-103zM827.002 1238c-36.667 0 -68.167 13.167 -94.5 39.5s-39.5 57.833 -39.5 94.5c0 37.333 13.167 69 39.5 95s57.833 39 94.5 39c37.333 0 69 -13 95 -39s39 -57.667 39 -95c0 -36.667 -13 -68.167 -39 -94.5s-57.667 -39.5 -95 -39.5zM407.002 1238
c-36.667 0 -68.167 13.167 -94.5 39.5s-39.5 57.833 -39.5 94.5c0 37.333 13.167 69 39.5 95s57.833 39 94.5 39c37.333 0 69 -13 95 -39s39 -57.667 39 -95c0 -36.667 -13 -68.167 -39 -94.5s-57.667 -39.5 -95 -39.5z" />
    <glyph glyph-name="Amacron" unicode="&#x100;" 
d="M45 0l410 1420h290l410 -1420h-210l-93 346h-504l-93 -346h-210zM591 1248l-192 -712h402l-192 712h-18zM213 1580v188h774v-188h-774z" />
    <glyph glyph-name="amacron" unicode="&#x101;" 
d="M464 -20c-116.667 0 -207.169 26.5 -271.502 79.5s-96.5 128.5 -96.5 226.5c0 112 40.833 198 122.5 258s197.5 90 347.5 90c80 0 150 -8.33301 210 -25v57c0 70.667 -24.833 122.5 -74.5 155.5s-123.5 50.833 -221.5 53.5l-254 7l20 188l214 -3
c175.333 -2.66699 305.5 -40.5 390.5 -113.5s127.5 -179.5 127.5 -319.5v-442l180 -22v-170l-340 -10l-10 234h-21c-7.33301 -81.333 -39.666 -142.333 -96.999 -183s-132.666 -61 -225.999 -61zM497.998 150c62 0 113.5 11.334 154.5 34.001s71.833 51.667 92.5 87
s31 71.666 31 108.999v64c-37.333 10 -74.5 15.833 -111.5 17.5s-74.5 2.5 -112.5 2.5c-170.667 0 -256 -52.667 -256 -158c0 -104 67.333 -156 202 -156zM149.998 1248v188h860v-188h-860z" />
    <glyph glyph-name="Abreve" unicode="&#x102;" 
d="M45 0l410 1420h290l410 -1420h-210l-93 346h-504l-93 -346h-210zM591 1248l-192 -712h402l-192 712h-18zM600 1570c-96.667 0 -171.5 25.333 -224.5 76s-79.5 122 -79.5 214h175c0 -48.667 11.333 -86.5 34 -113.5s54.334 -40.5 95.001 -40.5
c41.333 0 73.166 13.5 95.499 40.5s33.5 64.833 33.5 113.5h175c0 -92 -26.5 -163.333 -79.5 -214s-127.833 -76 -224.5 -76z" />
    <glyph glyph-name="abreve" unicode="&#x103;" 
d="M464 -20c-116.667 0 -207.169 26.5 -271.502 79.5s-96.5 128.5 -96.5 226.5c0 112 40.833 198 122.5 258s197.5 90 347.5 90c80 0 150 -8.33301 210 -25v57c0 70.667 -24.833 122.5 -74.5 155.5s-123.5 50.833 -221.5 53.5l-254 7l20 188l214 -3
c175.333 -2.66699 305.5 -40.5 390.5 -113.5s127.5 -179.5 127.5 -319.5v-442l180 -22v-170l-340 -10l-10 234h-21c-7.33301 -81.333 -39.666 -142.333 -96.999 -183s-132.666 -61 -225.999 -61zM497.998 150c62 0 113.5 11.334 154.5 34.001s71.833 51.667 92.5 87
s31 71.666 31 108.999v64c-37.333 10 -74.5 15.833 -111.5 17.5s-74.5 2.5 -112.5 2.5c-170.667 0 -256 -52.667 -256 -158c0 -104 67.333 -156 202 -156zM579.998 1238c-106 0 -188.167 28 -246.5 84s-87.5 135.333 -87.5 238v43h175v-43
c0 -59.333 13.833 -105.166 41.5 -137.499s66.834 -48.5 117.501 -48.5c51.333 0 90.666 16.167 117.999 48.5s41 78.166 41 137.499v43h175v-43c0 -102.667 -29.167 -182 -87.5 -238s-140.5 -84 -246.5 -84z" />
    <glyph glyph-name="Aogonek" unicode="&#x104;" 
d="M45 0l410.002 1420h290l410 -1420h-3c-70.667 0 -125.667 -14.667 -165 -44s-59 -70.666 -59 -123.999c0 -58.667 38.667 -88 116 -88c23.333 0 50.666 3.66699 81.999 11l-18 -170c-30.667 -6 -60.667 -9 -90 -9c-76.667 0 -135.834 16.833 -177.501 50.5
s-62.5 80.834 -62.5 141.501c0 59.333 14.667 109.166 44 149.499s70.333 67.833 123 82.5l-93 346h-504l-93 -346h-210zM591.002 1248l-192 -712h402l-192 712h-18z" />
    <glyph glyph-name="aogonek" unicode="&#x105;" 
d="M464 -20c-116.667 0 -207.168 26.5 -271.501 79.5s-96.5 128.5 -96.5 226.5c0 112 40.833 198 122.5 258s197.5 90 347.5 90c80 0 150 -8.33301 210 -25v57c0 70.667 -24.833 122.5 -74.5 155.5s-123.5 50.833 -221.5 53.5l-254 7l20 188l214 -3
c175.333 -2.66699 305.5 -40.5 390.5 -113.5s127.5 -179.5 127.5 -319.5v-442l180 -22v-170l-35 -1c-61.333 -4 -108.833 -20.5 -142.5 -49.5s-50.5 -68.167 -50.5 -117.5c0 -58.667 38.667 -88 116 -88c23.333 0 50.666 3.66699 81.999 11l-18 -170
c-30.667 -6 -60.667 -9 -90 -9c-76.667 0 -135.834 18.5 -177.501 55.5s-62.5 89.167 -62.5 156.5c0 45.333 9.83301 83.5 29.5 114.5s47.834 51.833 84.501 62.5v27l-76 -2l-10 234h-21c-7.33301 -81.333 -39.666 -142.333 -96.999 -183s-132.666 -61 -225.999 -61z
M497.999 150c62 0 113.5 11.334 154.5 34.001s71.833 51.667 92.5 87s31 71.666 31 108.999v64c-37.333 10 -74.5 15.833 -111.5 17.5s-74.5 2.5 -112.5 2.5c-170.667 0 -256 -52.667 -256 -158c0 -104 67.333 -156 202 -156z" />
    <glyph glyph-name="Cacute" unicode="&#x106;" 
d="M758 -20c-441.333 0 -661.999 244.001 -661.999 732.001c0 231.333 55.667 410.5 167 537.5s268.333 190.5 471 190.5c98 0 183.333 -15.5 256 -46.5s125.667 -75.167 159 -132.5l-148 -147c-30 45.333 -68.167 80.333 -114.5 105s-96.5 37 -150.5 37
c-128.667 0 -231.834 -46.333 -309.501 -139s-116.5 -224.334 -116.5 -395.001c0 -372 160.667 -558 482 -558c96.667 0 192 20 286 60l46 -176c-116 -45.333 -238 -68 -366 -68zM574.001 1580l220 250h282l-260 -250h-242z" />
    <glyph glyph-name="cacute" unicode="&#x107;" 
d="M682 -20c-174 0 -308.5 47.499 -403.5 142.499s-142.5 231.5 -142.5 409.5c0 173.333 46.5 308 139.5 404s225.833 144 398.5 144c103.333 0 191.833 -19.167 265.5 -57.5s126.167 -92.5 157.5 -162.5l-163 -123c-30 48.667 -68.333 86.334 -115 113.001
s-97.667 40 -153 40c-98 0 -174.167 -30.167 -228.5 -90.5s-81.5 -146.166 -81.5 -257.499c0 -120.667 30.333 -212.834 91 -276.501s147 -95.5 259 -95.5c53.333 0 106.166 2.33301 158.499 7s103.5 11 153.5 19l24 -186c-58 -12 -117.667 -20 -179 -24
s-121.666 -6 -180.999 -6zM549 1248l170 380h212l-190 -380h-192z" />
    <glyph glyph-name="Ccircumflex" unicode="&#x108;" 
d="M758 -20c-441.333 0 -661.999 244.001 -661.999 732.001c0 231.333 55.667 410.5 167 537.5s268.333 190.5 471 190.5c98 0 183.333 -15.5 256 -46.5s125.667 -75.167 159 -132.5l-148 -147c-30 45.333 -68.167 80.333 -114.5 105s-96.5 37 -150.5 37
c-128.667 0 -231.834 -46.333 -309.501 -139s-116.5 -224.334 -116.5 -395.001c0 -372 160.667 -558 482 -558c96.667 0 192 20 286 60l46 -176c-116 -45.333 -238 -68 -366 -68zM364.001 1580l260 260h172l260 -260h-222l-124 144l-124 -144h-222z" />
    <glyph glyph-name="ccircumflex" unicode="&#x109;" 
d="M682 -20c-174 0 -308.5 47.499 -403.5 142.499s-142.5 231.5 -142.5 409.5c0 173.333 46.5 308 139.5 404s225.833 144 398.5 144c103.333 0 191.833 -19.167 265.5 -57.5s126.167 -92.5 157.5 -162.5l-163 -123c-30 48.667 -68.333 86.334 -115 113.001
s-97.667 40 -153 40c-98 0 -174.167 -30.167 -228.5 -90.5s-81.5 -146.166 -81.5 -257.499c0 -120.667 30.333 -212.834 91 -276.501s147 -95.5 259 -95.5c53.333 0 106.166 2.33301 158.499 7s103.5 11 153.5 19l24 -186c-58 -12 -117.667 -20 -179 -24
s-121.666 -6 -180.999 -6zM324 1248l240 380h172l240 -380h-212l-114 226l-114 -226h-212z" />
    <glyph glyph-name="Cdotaccent" unicode="&#x10a;" 
d="M758 -20c-441.333 0 -661.999 244.001 -661.999 732.001c0 231.333 55.667 410.5 167 537.5s268.333 190.5 471 190.5c98 0 183.333 -15.5 256 -46.5s125.667 -75.167 159 -132.5l-148 -147c-30 45.333 -68.167 80.333 -114.5 105s-96.5 37 -150.5 37
c-128.667 0 -231.834 -46.333 -309.501 -139s-116.5 -224.334 -116.5 -395.001c0 -372 160.667 -558 482 -558c96.667 0 192 20 286 60l46 -176c-116 -45.333 -238 -68 -366 -68zM705.001 1580c-36.667 0 -68.167 13.167 -94.5 39.5s-39.5 57.833 -39.5 94.5
c0 37.333 13.167 69 39.5 95s57.833 39 94.5 39c37.333 0 69 -13 95 -39s39 -57.667 39 -95c0 -36.667 -13 -68.167 -39 -94.5s-57.667 -39.5 -95 -39.5z" />
    <glyph glyph-name="cdotaccent" unicode="&#x10b;" 
d="M682 -20c-174 0 -308.5 47.499 -403.5 142.499s-142.5 231.5 -142.5 409.5c0 173.333 46.5 308 139.5 404s225.833 144 398.5 144c103.333 0 191.833 -19.167 265.5 -57.5s126.167 -92.5 157.5 -162.5l-163 -123c-30 48.667 -68.333 86.334 -115 113.001
s-97.667 40 -153 40c-98 0 -174.167 -30.167 -228.5 -90.5s-81.5 -146.166 -81.5 -257.499c0 -120.667 30.333 -212.834 91 -276.501s147 -95.5 259 -95.5c53.333 0 106.166 2.33301 158.499 7s103.5 11 153.5 19l24 -186c-58 -12 -117.667 -20 -179 -24
s-121.666 -6 -180.999 -6zM648 1238c-36.667 0 -68.167 13.167 -94.5 39.5s-39.5 57.833 -39.5 94.5c0 37.333 13.167 69 39.5 95s57.833 39 94.5 39c37.333 0 69 -13 95 -39s39 -57.667 39 -95c0 -36.667 -13 -68.167 -39 -94.5s-57.667 -39.5 -95 -39.5z" />
    <glyph glyph-name="Ccaron" unicode="&#x10c;" 
d="M758 -20c-441.333 0 -661.999 244.001 -661.999 732.001c0 231.333 55.667 410.5 167 537.5s268.333 190.5 471 190.5c98 0 183.333 -15.5 256 -46.5s125.667 -75.167 159 -132.5l-148 -147c-30 45.333 -68.167 80.333 -114.5 105s-96.5 37 -150.5 37
c-128.667 0 -231.834 -46.333 -309.501 -139s-116.5 -224.334 -116.5 -395.001c0 -372 160.667 -558 482 -558c96.667 0 192 20 286 60l46 -176c-116 -45.333 -238 -68 -366 -68zM619.001 1580l-260 260h222l124 -144l124 144h222l-260 -260h-172z" />
    <glyph glyph-name="ccaron" unicode="&#x10d;" 
d="M682 -20c-174 0 -308.5 47.499 -403.5 142.499s-142.5 231.5 -142.5 409.5c0 173.333 46.5 308 139.5 404s225.833 144 398.5 144c103.333 0 191.833 -19.167 265.5 -57.5s126.167 -92.5 157.5 -162.5l-163 -123c-30 48.667 -68.333 86.334 -115 113.001
s-97.667 40 -153 40c-98 0 -174.167 -30.167 -228.5 -90.5s-81.5 -146.166 -81.5 -257.499c0 -120.667 30.333 -212.834 91 -276.501s147 -95.5 259 -95.5c53.333 0 106.166 2.33301 158.499 7s103.5 11 153.5 19l24 -186c-58 -12 -117.667 -20 -179 -24
s-121.666 -6 -180.999 -6zM564 1248l-240 380h212l114 -226l114 226h212l-240 -380h-172z" />
    <glyph glyph-name="Dcaron" unicode="&#x10e;" 
d="M160 0v1420h344c433.333 0 650 -243.333 650 -730c0 -460 -216.667 -690 -650 -690h-344zM504 1230h-144v-1040h144c293.333 0 440 166.667 440 500c0 360 -146.667 540 -440 540zM464 1580l-260 260h222l124 -144l124 144h222l-260 -260h-172z" />
    <glyph glyph-name="dcaron" unicode="&#x10f;" 
d="M1122 1188l50 380h212l-90 -380h-172zM528 -20c-288 0 -431.999 180 -431.999 540c0 373.333 144.667 560 434 560c162 0 252 -70.667 270 -212h20v632h212v-1500l-190 -10l-18 174h-24c-6.66699 -60.667 -34.334 -106.5 -83.001 -137.5s-111.667 -46.5 -189 -46.5z
M306.001 520c0 -240 85.333 -360 256 -360c172 0 258 60 258 180v256c0 202.667 -86.667 304 -260 304c-169.333 0 -254 -126.667 -254 -380z" />
    <glyph glyph-name="Dcroat" unicode="&#x110;" 
d="M160 0v612h-118v190h118v618h344c433.333 0 650 -243.333 650 -730c0 -460 -216.667 -690 -650 -690h-344zM681 612h-321v-422h144c293.333 0 440 166.667 440 500c0 360 -146.667 540 -440 540h-144v-428h321v-190z" />
    <glyph glyph-name="dcroat" unicode="&#x111;" 
d="M518 -20c-134 0 -237.832 46.5 -311.499 139.5s-110.5 226.5 -110.5 400.5c0 178 37 315.833 111 413.5s178.333 146.5 313 146.5c168.667 0 262 -70.667 280 -212h20v350h-358v174h358v108h212v-108h106v-174h-106v-1218l-190 -10l-18 174h-24
c-6.66699 -60.667 -35.334 -106.5 -86.001 -137.5s-116 -46.5 -196 -46.5zM306.001 520c0 -240 82 -360 246 -360c178.667 0 268 60 268 180v256c0 202.667 -90 304 -270 304c-78 0 -138.167 -33 -180.5 -99s-63.5 -159.667 -63.5 -281z" />
    <glyph glyph-name="Emacron" unicode="&#x112;" 
d="M160 0v1420h940v-190h-740v-424h560v-190h-560v-426h740v-190h-940zM243 1580v188h774v-188h-774z" />
    <glyph glyph-name="emacron" unicode="&#x113;" 
d="M702 -20c-180.667 0 -320.166 47.501 -418.499 142.501s-147.5 231.5 -147.5 409.5c0 173.333 41.667 308 125 404s201 144 353 144c143.333 0 254.166 -43.333 332.499 -130s117.5 -212.667 117.5 -378c0 -48.667 -2 -94 -6 -136h-716
c18.667 -88.667 60.667 -155.834 126 -201.501s151.333 -68.5 258 -68.5c44 0 87.333 2.5 130 7.5s86 11.833 130 20.5l26 -186c-62.667 -12 -120 -19.667 -172 -23s-98 -5 -138 -5zM616.001 894.001c-82 0 -147.332 -25.667 -195.999 -77s-77.334 -124.333 -86.001 -219
h538c0 95.333 -22.667 168.5 -68 219.5s-108 76.5 -188 76.5zM190.002 1248v188h860v-188h-860z" />
    <glyph glyph-name="Ebreve" unicode="&#x114;" 
d="M160 0v1420h940v-190h-740v-424h560v-190h-560v-426h740v-190h-940zM630 1570c-96.667 0 -171.5 25.333 -224.5 76s-79.5 122 -79.5 214h175c0 -48.667 11.333 -86.5 34 -113.5s54.334 -40.5 95.001 -40.5c41.333 0 73.166 13.5 95.499 40.5s33.5 64.833 33.5 113.5h175
c0 -92 -26.5 -163.333 -79.5 -214s-127.833 -76 -224.5 -76z" />
    <glyph glyph-name="ebreve" unicode="&#x115;" 
d="M702 -20c-180.667 0 -320.166 47.501 -418.499 142.501s-147.5 231.5 -147.5 409.5c0 173.333 41.667 308 125 404s201 144 353 144c143.333 0 254.166 -43.333 332.499 -130s117.5 -212.667 117.5 -378c0 -48.667 -2 -94 -6 -136h-716
c18.667 -88.667 60.667 -155.834 126 -201.501s151.333 -68.5 258 -68.5c44 0 87.333 2.5 130 7.5s86 11.833 130 20.5l26 -186c-62.667 -12 -120 -19.667 -172 -23s-98 -5 -138 -5zM616.001 894.001c-82 0 -147.332 -25.667 -195.999 -77s-77.334 -124.333 -86.001 -219
h538c0 95.333 -22.667 168.5 -68 219.5s-108 76.5 -188 76.5zM620.002 1238c-106 0 -188.167 28 -246.5 84s-87.5 135.333 -87.5 238v43h175v-43c0 -59.333 13.833 -105.166 41.5 -137.499s66.834 -48.5 117.501 -48.5c51.333 0 90.666 16.167 117.999 48.5
s41 78.166 41 137.499v43h175v-43c0 -102.667 -29.167 -182 -87.5 -238s-140.5 -84 -246.5 -84z" />
    <glyph glyph-name="Edotaccent" unicode="&#x116;" 
d="M160 0v1420h940v-190h-740v-424h560v-190h-560v-426h740v-190h-940zM630 1580c-36.667 0 -68.167 13.167 -94.5 39.5s-39.5 57.833 -39.5 94.5c0 37.333 13.167 69 39.5 95s57.833 39 94.5 39c37.333 0 69 -13 95 -39s39 -57.667 39 -95c0 -36.667 -13 -68.167 -39 -94.5
s-57.667 -39.5 -95 -39.5z" />
    <glyph glyph-name="edotaccent" unicode="&#x117;" 
d="M702 -20c-180.667 0 -320.166 47.501 -418.499 142.501s-147.5 231.5 -147.5 409.5c0 173.333 41.667 308 125 404s201 144 353 144c143.333 0 254.166 -43.333 332.499 -130s117.5 -212.667 117.5 -378c0 -48.667 -2 -94 -6 -136h-716
c18.667 -88.667 60.667 -155.834 126 -201.501s151.333 -68.5 258 -68.5c44 0 87.333 2.5 130 7.5s86 11.833 130 20.5l26 -186c-62.667 -12 -120 -19.667 -172 -23s-98 -5 -138 -5zM616.001 894.001c-82 0 -147.332 -25.667 -195.999 -77s-77.334 -124.333 -86.001 -219
h538c0 95.333 -22.667 168.5 -68 219.5s-108 76.5 -188 76.5zM618.002 1238c-36.667 0 -68.167 13.167 -94.5 39.5s-39.5 57.833 -39.5 94.5c0 37.333 13.167 69 39.5 95s57.833 39 94.5 39c37.333 0 69 -13 95 -39s39 -57.667 39 -95c0 -36.667 -13 -68.167 -39 -94.5
s-57.667 -39.5 -95 -39.5z" />
    <glyph glyph-name="Eogonek" unicode="&#x118;" 
d="M160 0l0.000976562 1420h940v-190h-740v-424h560v-190h-560v-426h740v-190c-70.667 -0 -125.667 -14.667 -165 -44s-59 -70.666 -59 -123.999c0 -58.667 38.667 -88 116 -88c23.333 0 50.666 3.66699 81.999 11l-18 -170c-30.667 -6 -60.667 -9 -90 -9
c-76.667 0 -135.834 18.5 -177.501 55.5s-62.5 89.167 -62.5 156.5c0 49.333 9.83301 90.666 29.5 123.999s47.834 56 84.501 68v20h-680z" />
    <glyph glyph-name="eogonek" unicode="&#x119;" 
d="M702 -20c-180.667 0 -320.166 47.5 -418.499 142.5s-147.5 231.5 -147.5 409.5c0 173.333 41.667 308 125 404s201 144 353 144c143.333 0 254.166 -43.333 332.499 -130s117.5 -212.667 117.5 -378c0 -48.667 -2 -94 -6 -136h-716
c18.667 -88.667 60.667 -155.834 126 -201.501s151.333 -68.5 258 -68.5c44 0 87.333 2.5 130 7.5s86 11.833 130 20.5l26 -186c-34 -8 -68.167 -18.5 -102.5 -31.5s-63.166 -31 -86.499 -54s-35 -53.167 -35 -90.5c0 -17.333 7.66699 -36.333 23 -57s46.333 -31 93 -31
c24.667 0 52 3.66699 82 11l-18 -170c-34 -6 -64 -9 -90 -9c-76.667 0 -135.834 16.833 -177.501 50.5s-62.5 80.834 -62.5 141.501c0 102.667 38 166.667 114 192v21c-16 -0.666992 -32.667 -1 -50 -1zM616.001 894c-82 0 -147.332 -25.667 -195.999 -77
s-77.334 -124.333 -86.001 -219h538c0 95.333 -22.667 168.5 -68 219.5s-108 76.5 -188 76.5z" />
    <glyph glyph-name="Ecaron" unicode="&#x11a;" 
d="M160 0v1420h940v-190h-740v-424h560v-190h-560v-426h740v-190h-940zM544 1580l-260 260h222l124 -144l124 144h222l-260 -260h-172z" />
    <glyph glyph-name="ecaron" unicode="&#x11b;" 
d="M702 -20c-180.667 0 -320.166 47.501 -418.499 142.501s-147.5 231.5 -147.5 409.5c0 173.333 41.667 308 125 404s201 144 353 144c143.333 0 254.166 -43.333 332.499 -130s117.5 -212.667 117.5 -378c0 -48.667 -2 -94 -6 -136h-716
c18.667 -88.667 60.667 -155.834 126 -201.501s151.333 -68.5 258 -68.5c44 0 87.333 2.5 130 7.5s86 11.833 130 20.5l26 -186c-62.667 -12 -120 -19.667 -172 -23s-98 -5 -138 -5zM616.001 894.001c-82 0 -147.332 -25.667 -195.999 -77s-77.334 -124.333 -86.001 -219
h538c0 95.333 -22.667 168.5 -68 219.5s-108 76.5 -188 76.5zM534.002 1248l-240 380h212l114 -226l114 226h212l-240 -380h-172z" />
    <glyph glyph-name="Gcircumflex" unicode="&#x11c;" 
d="M732 -20c-424 0 -636 244.001 -636 732.001c0 231.333 55 410.5 165 537.5s264.333 190.5 463 190.5c99.333 0 186.333 -15.5 261 -46.5s129.667 -74.833 165 -131.5l-149 -148c-30.667 45.333 -69.167 80.333 -115.5 105s-96.166 37 -149.499 37
c-134.667 0 -239.334 -46.5 -314.001 -139.5s-112 -224.5 -112 -394.5c0 -372 148.667 -558 446 -558c33.333 0 64.5 2 93.5 6s55.833 8.66699 80.5 14v336h-290v190h480v-670c-28 -8.66699 -77.167 -20.834 -147.5 -36.501s-150.5 -23.5 -240.5 -23.5zM354 1580l260 260
h172l260 -260h-222l-124 144l-124 -144h-222z" />
    <glyph glyph-name="gcircumflex" unicode="&#x11d;" 
d="M182 -478l-9.99805 187.999l340 16c107.333 5.33301 185.166 35.5 233.499 90.5s72.5 136.833 72.5 245.5v102h-18c-6.66699 -60.667 -35.334 -106.5 -86.001 -137.5s-116 -46.5 -196 -46.5c-134 0 -237.833 46.5 -311.5 139.5s-110.5 226.5 -110.5 400.5
c0 178 37 315.833 111 413.5s178.333 146.5 313 146.5c168.667 0 262 -70.667 280 -212h23l17 192h192v-966c0 -188.667 -43 -327.667 -129 -417s-223 -137.666 -411 -144.999zM306.002 519.999c0 -240 82 -360 246 -360c178.667 0 268 60 268 180v256
c0 202.667 -90 304 -270 304c-78 0 -138.167 -33 -180.5 -99s-63.5 -159.667 -63.5 -281zM254.002 1248l240 380h172l240 -380h-212l-114 226l-114 -226h-212z" />
    <glyph glyph-name="Gbreve" unicode="&#x11e;" 
d="M732 -20c-424 0 -636 244.001 -636 732.001c0 231.333 55 410.5 165 537.5s264.333 190.5 463 190.5c99.333 0 186.333 -15.5 261 -46.5s129.667 -74.833 165 -131.5l-149 -148c-30.667 45.333 -69.167 80.333 -115.5 105s-96.166 37 -149.499 37
c-134.667 0 -239.334 -46.5 -314.001 -139.5s-112 -224.5 -112 -394.5c0 -372 148.667 -558 446 -558c33.333 0 64.5 2 93.5 6s55.833 8.66699 80.5 14v336h-290v190h480v-670c-28 -8.66699 -77.167 -20.834 -147.5 -36.501s-150.5 -23.5 -240.5 -23.5zM695 1570
c-96.667 0 -171.5 25.333 -224.5 76s-79.5 122 -79.5 214h175c0 -48.667 11.333 -86.5 34 -113.5s54.334 -40.5 95.001 -40.5c41.333 0 73.166 13.5 95.499 40.5s33.5 64.833 33.5 113.5h175c0 -92 -26.5 -163.333 -79.5 -214s-127.833 -76 -224.5 -76z" />
    <glyph glyph-name="gbreve" unicode="&#x11f;" 
d="M182 -478l-9.99805 187.999l340 16c107.333 5.33301 185.166 35.5 233.499 90.5s72.5 136.833 72.5 245.5v102h-18c-6.66699 -60.667 -35.334 -106.5 -86.001 -137.5s-116 -46.5 -196 -46.5c-134 0 -237.833 46.5 -311.5 139.5s-110.5 226.5 -110.5 400.5
c0 178 37 315.833 111 413.5s178.333 146.5 313 146.5c168.667 0 262 -70.667 280 -212h23l17 192h192v-966c0 -188.667 -43 -327.667 -129 -417s-223 -137.666 -411 -144.999zM306.002 519.999c0 -240 82 -360 246 -360c178.667 0 268 60 268 180v256
c0 202.667 -90 304 -270 304c-78 0 -138.167 -33 -180.5 -99s-63.5 -159.667 -63.5 -281zM580.002 1238c-106 0 -188.167 28 -246.5 84s-87.5 135.333 -87.5 238v43h175v-43c0 -59.333 13.833 -105.166 41.5 -137.499s66.834 -48.5 117.501 -48.5
c51.333 0 90.666 16.167 117.999 48.5s41 78.166 41 137.499v43h175v-43c0 -102.667 -29.167 -182 -87.5 -238s-140.5 -84 -246.5 -84z" />
    <glyph glyph-name="Gdotaccent" unicode="&#x120;" 
d="M732 -20c-424 0 -636 244.001 -636 732.001c0 231.333 55 410.5 165 537.5s264.333 190.5 463 190.5c99.333 0 186.333 -15.5 261 -46.5s129.667 -74.833 165 -131.5l-149 -148c-30.667 45.333 -69.167 80.333 -115.5 105s-96.166 37 -149.499 37
c-134.667 0 -239.334 -46.5 -314.001 -139.5s-112 -224.5 -112 -394.5c0 -372 148.667 -558 446 -558c33.333 0 64.5 2 93.5 6s55.833 8.66699 80.5 14v336h-290v190h480v-670c-28 -8.66699 -77.167 -20.834 -147.5 -36.501s-150.5 -23.5 -240.5 -23.5zM695 1580
c-36.667 0 -68.167 13.167 -94.5 39.5s-39.5 57.833 -39.5 94.5c0 37.333 13.167 69 39.5 95s57.833 39 94.5 39c37.333 0 69 -13 95 -39s39 -57.667 39 -95c0 -36.667 -13 -68.167 -39 -94.5s-57.667 -39.5 -95 -39.5z" />
    <glyph glyph-name="gdotaccent" unicode="&#x121;" 
d="M182 -478l-9.99805 187.999l340 16c107.333 5.33301 185.166 35.5 233.499 90.5s72.5 136.833 72.5 245.5v102h-18c-6.66699 -60.667 -35.334 -106.5 -86.001 -137.5s-116 -46.5 -196 -46.5c-134 0 -237.833 46.5 -311.5 139.5s-110.5 226.5 -110.5 400.5
c0 178 37 315.833 111 413.5s178.333 146.5 313 146.5c168.667 0 262 -70.667 280 -212h23l17 192h192v-966c0 -188.667 -43 -327.667 -129 -417s-223 -137.666 -411 -144.999zM306.002 519.999c0 -240 82 -360 246 -360c178.667 0 268 60 268 180v256
c0 202.667 -90 304 -270 304c-78 0 -138.167 -33 -180.5 -99s-63.5 -159.667 -63.5 -281zM578.002 1238c-36.667 0 -68.167 13.167 -94.5 39.5s-39.5 57.833 -39.5 94.5c0 37.333 13.167 69 39.5 95s57.833 39 94.5 39c37.333 0 69 -13 95 -39s39 -57.667 39 -95
c0 -36.667 -13 -68.167 -39 -94.5s-57.667 -39.5 -95 -39.5z" />
    <glyph glyph-name="Gcommaaccent" unicode="&#x122;" 
d="M732 -20c-424 0 -636 244.001 -636 732.001c0 231.333 55 410.5 165 537.5s264.333 190.5 463 190.5c99.333 0 186.333 -15.5 261 -46.5s129.667 -74.833 165 -131.5l-149 -148c-30.667 45.333 -69.167 80.333 -115.5 105s-96.166 37 -149.499 37
c-134.667 0 -239.334 -46.5 -314.001 -139.5s-112 -224.5 -112 -394.5c0 -372 148.667 -558 446 -558c33.333 0 64.5 2 93.5 6s55.833 8.66699 80.5 14v336h-290v190h480v-670c-28 -8.66699 -77.167 -20.834 -147.5 -36.501s-150.5 -23.5 -240.5 -23.5zM530 -479.999l77 340
h222l-117 -340h-182z" />
    <glyph glyph-name="gcommaaccent" unicode="&#x123;" 
d="M182 -478l-9.99805 187.999l340 16c107.333 5.33301 185.166 35.5 233.499 90.5s72.5 136.833 72.5 245.5v102h-18c-6.66699 -60.667 -35.334 -106.5 -86.001 -137.5s-116 -46.5 -196 -46.5c-134 0 -237.833 46.5 -311.5 139.5s-110.5 226.5 -110.5 400.5
c0 178 37 315.833 111 413.5s178.333 146.5 313 146.5c168.667 0 262 -70.667 280 -212h23l17 192h192v-966c0 -188.667 -43 -327.667 -129 -417s-223 -137.666 -411 -144.999zM306.002 519.999c0 -240 82 -360 246 -360c178.667 0 268 60 268 180v256
c0 202.667 -90 304 -270 304c-78 0 -138.167 -33 -180.5 -99s-63.5 -159.667 -63.5 -281zM482.002 1208l90 380h172l-50 -380h-212z" />
    <glyph glyph-name="Hcircumflex" unicode="&#x124;" 
d="M140 0v1420h200v-618h520v618h200v-1420h-200v612h-520v-612h-200zM259 1580l260 260h172l260 -260h-222l-124 144l-124 -144h-222z" />
    <glyph glyph-name="hcircumflex" unicode="&#x125;" 
d="M168 0v1500h212v-632h20c12 141.333 105.333 212 280 212c112 0 198.667 -34 260 -102s92 -164 92 -288v-690h-212v690c0 67.333 -16.667 119.166 -50 155.499s-80 54.5 -140 54.5c-166.667 0 -250 -101.333 -250 -304v-596h-212zM-67 1660l260 260h172l260 -260h-222
l-124 144l-124 -144h-222z" />
    <glyph glyph-name="Hbar" unicode="&#x126;" 
d="M140 0v1002h-78v190h78v228h200v-228h520v228h200v-228h78v-190h-78v-1002h-200v612h-520v-612h-200zM340 802h520v200h-520v-200z" />
    <glyph glyph-name="hbar" unicode="&#x127;" 
d="M168 0v1218h-106v174h106v108h212v-108h358v-174h-358v-350h20c12 141.333 105.333 212 280 212c112 0 198.667 -34 260 -102s92 -164 92 -288v-690h-212v690c0 67.333 -16.667 119.166 -50 155.499s-80 54.5 -140 54.5c-166.667 0 -250 -101.333 -250 -304v-596h-212z
" />
    <glyph glyph-name="Itilde" unicode="&#x128;" 
d="M168 0v190h331v1040h-331v190h864v-190h-333v-1040h333v-190h-864zM225 1566l-0.000976562 49.999c0 166.667 70 250 210 250c27.333 0 55.833 -4.83301 85.5 -14.5l102.5 -34.5c39.333 -13.333 69.333 -25.166 90 -35.499s39.334 -15.5 56.001 -15.5
c36 0 54 31.333 54 94v30h172v-50c0 -160 -62.667 -240 -188 -240c-22.667 0 -49.667 5.33301 -81 16l-112 39c-28.667 10 -55 20 -79 30s-44.667 15 -62 15c-49.333 0 -74 -34.667 -74 -104v-30h-174z" />
    <glyph glyph-name="itilde" unicode="&#x129;" 
d="M160 0v174h404v712h-344v174h556v-886h326v-174h-942zM295 1226v80c0 166.667 70 250 210 250c46 0 102 -16.333 168 -49l80 -39.5c16 -7.66699 31.333 -11.5 46 -11.5c36 0 54 31.333 54 94v60h172v-80c0 -160 -62.667 -240 -188 -240
c-20.667 0 -45.5 4.16699 -74.5 12.5s-61.833 22.5 -98.5 42.5c-54 30 -94.333 45 -121 45c-49.333 0 -74 -34.667 -74 -104v-60h-174z" />
    <glyph glyph-name="Imacron" unicode="&#x12a;" 
d="M168 0v190h331v1040h-331v190h864v-190h-333v-1040h333v-190h-864zM213 1580v188h774v-188h-774z" />
    <glyph glyph-name="imacron" unicode="&#x12b;" 
d="M160 0v174h404v712h-344v174h556v-886h326v-174h-942zM220 1248v188h860v-188h-860z" />
    <glyph glyph-name="Ibreve" unicode="&#x12c;" 
d="M168 0v190h331v1040h-331v190h864v-190h-333v-1040h333v-190h-864zM600 1570c-96.667 0 -171.5 25.333 -224.5 76s-79.5 122 -79.5 214h175c0 -48.667 11.333 -86.5 34 -113.5s54.334 -40.5 95.001 -40.5c41.333 0 73.166 13.5 95.499 40.5s33.5 64.833 33.5 113.5h175
c0 -92 -26.5 -163.333 -79.5 -214s-127.833 -76 -224.5 -76z" />
    <glyph glyph-name="ibreve" unicode="&#x12d;" 
d="M160 0v174h404v712h-344v174h556v-886h326v-174h-942zM650 1238c-106 0 -188.167 28 -246.5 84s-87.5 135.333 -87.5 238v43h175v-43c0 -59.333 13.833 -105.166 41.5 -137.499s66.834 -48.5 117.501 -48.5c51.333 0 90.666 16.167 117.999 48.5s41 78.166 41 137.499v43
h175v-43c0 -102.667 -29.167 -182 -87.5 -238s-140.5 -84 -246.5 -84z" />
    <glyph glyph-name="Iogonek" unicode="&#x12e;" 
d="M168 0l0.000976562 190h331v1040h-331v190h864v-190h-333v-1040h333v-190h-262c-70.667 -0 -125.667 -14.667 -165 -44s-59 -70.666 -59 -123.999c0 -58.667 38.667 -88 116 -88c23.333 0 50.666 3.66699 81.999 11l-18 -170c-30.667 -6 -60.667 -9 -90 -9
c-76.667 0 -135.834 18.5 -177.501 55.5s-62.5 89.167 -62.5 156.5c0 49.333 9.83301 90.666 29.5 123.999s47.834 56 84.501 68v20h-342z" />
    <glyph glyph-name="iogonek" unicode="&#x12f;" 
d="M658 1228c-40.667 0 -75.5 14.5 -104.5 43.5s-43.5 63.833 -43.5 104.5c0 41.333 14.5 76.333 43.5 105s63.833 43 104.5 43c41.333 0 76.333 -14.333 105 -43s43 -63.667 43 -105c0 -40.667 -14.333 -75.5 -43 -104.5s-63.667 -43.5 -105 -43.5zM160 0l0.000976562 174
h404v710h-344v176h556v-886h326v-174h-298c-70.667 -0 -125.667 -14.667 -165 -44s-59 -70.666 -59 -123.999c0 -58.667 38.667 -88 116 -88c23.333 0 50.666 3.66699 81.999 11l-18 -170c-30.667 -6 -60.667 -9 -90 -9c-76.667 0 -135.834 18.5 -177.501 55.5
s-62.5 89.167 -62.5 156.5c0 49.333 9.83301 90.666 29.5 123.999s47.834 56 84.501 68v20h-384z" />
    <glyph glyph-name="Idotaccent" unicode="&#x130;" 
d="M168 0v190h331v1040h-331v190h864v-190h-333v-1040h333v-190h-864zM600 1580c-36.667 0 -68.167 13.167 -94.5 39.5s-39.5 57.833 -39.5 94.5c0 37.333 13.167 69 39.5 95s57.833 39 94.5 39c37.333 0 69 -13 95 -39s39 -57.667 39 -95c0 -36.667 -13 -68.167 -39 -94.5
s-57.667 -39.5 -95 -39.5z" />
    <glyph glyph-name="dotlessi" unicode="&#x131;" 
d="M160 0v174h404v712h-344v174h556v-886h326v-174h-942z" />
    <glyph glyph-name="IJ" unicode="&#x132;" 
d="M624 0c-272 0 -408 125.333 -408 376h200c0 -130.667 71 -196 213 -196c162 0 243 92 243 276v774h-192v190h392v-964c0 -304 -149.333 -456 -448 -456zM45 517v190h176v523h-176v190h524v-190h-158v-523h178v-190h-544z" />
    <glyph glyph-name="ij" unicode="&#x133;" 
d="M348 1228c-40.667 0 -75.5 14.5 -104.5 43.5s-43.5 63.833 -43.5 104.5c0 41.333 14.5 76.333 43.5 105s63.833 43 104.5 43c41.333 0 76.333 -14.333 105 -43s43 -63.667 43 -105c0 -40.667 -14.333 -75.5 -43 -104.5s-63.667 -43.5 -105 -43.5zM852 1228
c-40.667 0 -75.5 14.5 -104.5 43.5s-43.5 63.833 -43.5 104.5c0 41.333 14.5 76.333 43.5 105s63.833 43 104.5 43c41.333 0 76.333 -14.333 105 -43s43 -63.667 43 -105c0 -40.667 -14.333 -75.5 -43 -104.5s-63.667 -43.5 -105 -43.5zM244 0v1060h212v-1060h-212z
M252 -480l-9.99902 187.999l200 18c107.333 9.33301 185.166 40.5 233.499 93.5s72.5 133.833 72.5 242.5v998h212v-966c0 -188.667 -42.667 -326.167 -128 -412.5s-222 -136.166 -410 -149.499z" />
    <glyph glyph-name="Jcircumflex" unicode="&#x134;" 
d="M584 -20c-156 0 -276.333 43.501 -361 130.501s-127 208.833 -127 365.5h200c0 -100 25.5 -177.667 76.5 -233s123.167 -83 216.5 -83c90.667 0 160.5 24 209.5 72s73.5 116 73.5 204v794h-372v190h572v-984c0 -144.667 -43 -256.834 -129 -336.501
s-205.667 -119.5 -359 -119.5zM439 1580l260 260h172l260 -260h-222l-124 144l-124 -144h-222z" />
    <glyph glyph-name="jcircumflex" unicode="&#x135;" 
d="M180 -480l-10.001 187.999l200 18c107.333 10 185.166 41.333 233.499 94s72.5 133.334 72.5 242.001v824h-412v174h624v-966c0 -126 -18.667 -228.5 -56 -307.5s-95.666 -138.667 -174.999 -179s-181.666 -65.5 -306.999 -75.5zM455.999 1248l240 380h172l240 -380h-212
l-114 226l-114 -226h-212z" />
    <glyph glyph-name="Kcommaaccent" unicode="&#x136;" 
d="M160 0l-0.00195312 1420h200v-768c92.667 8.66699 172.834 35.667 240.501 81s123.5 103.833 167.5 175.5s76.667 151.5 98 239.5s32 178.667 32 272h206c0 -146 -24.5 -285.333 -73.5 -418s-119.833 -244.667 -212.5 -336l354 -666h-242l-281 541
c-42.667 -23.333 -88.167 -42.333 -136.5 -57s-99.166 -24.334 -152.499 -29.001v-455h-200zM454.998 -479.999l77 340h222l-117 -340h-182z" />
    <glyph glyph-name="kcommaaccent" unicode="&#x137;" 
d="M160 0l0.000976562 1500h212v-908h58c88 0 160.333 15.167 217 45.5s101.167 79.833 133.5 148.5s56.166 160 71.499 274h220c-32.667 -260 -114 -442.333 -244 -547l312 -513h-262l-245 419c-47.333 -11.333 -98.333 -17 -153 -17h-108v-402h-212zM395.001 -480l77 340
h222l-117 -340h-182z" />
    <glyph glyph-name="kgreenlandic" unicode="&#x138;" 
d="M160 0l0.000976562 1060h212v-468h58c88 0 160.333 15.167 217 45.5s101.167 79.833 133.5 148.5s56.166 160 71.499 274h220c-32.667 -260 -114 -442.333 -244 -547l312 -513h-262l-245 419c-47.333 -11.333 -98.333 -17 -153 -17h-108v-402h-212z" />
    <glyph glyph-name="Lacute" unicode="&#x139;" 
d="M160 0v1420h200v-1230h740v-190h-940zM129 1580l220 250h282l-260 -250h-242z" />
    <glyph glyph-name="lacute" unicode="&#x13a;" 
d="M748 -20c-122.667 0 -211.333 33.333 -266 100s-82 173.334 -82 320.001v926h-312v174h524v-1090c0 -56 5.33301 -101.667 16 -137s31.5 -61.333 62.5 -78s76.833 -25 137.5 -25c55.333 0 126 12.667 212 38l24 -186c-54 -14.667 -105.833 -25.334 -155.5 -32.001
s-103.167 -10 -160.5 -10zM375.001 1660l220 250h282l-260 -250h-242z" />
    <glyph glyph-name="Lcommaaccent" unicode="&#x13b;" 
d="M160 0v1420h200v-1230h740v-190h-940zM435 -480l77 340h222l-117 -340h-182z" />
    <glyph glyph-name="lcommaaccent" unicode="&#x13c;" 
d="M748 -20c-122.667 0 -211.333 33.333 -266 100s-82 173.334 -82 320.001v926h-312v174h524v-1090c0 -56 5.33301 -101.667 16 -137s31.5 -61.333 62.5 -78s76.833 -25 137.5 -25c55.333 0 126 12.667 212 38l24 -186c-54 -14.667 -105.833 -25.334 -155.5 -32.001
s-103.167 -10 -160.5 -10zM485.001 -480l77 340h222l-117 -340h-182z" />
    <glyph glyph-name="Lcaron" unicode="&#x13d;" 
d="M762 1188l50 380h212l-90 -380h-172zM160 0v1420h200v-1230h740v-190h-940z" />
    <glyph glyph-name="lcaron" unicode="&#x13e;" 
d="M762 1188l50 380h212l-90 -380h-172zM748 -20c-122.667 0 -211.333 33.333 -266 100s-82 173.334 -82 320.001v926h-312v174h524v-1090c0 -56 5.33301 -101.667 16 -137s31.5 -61.333 62.5 -78s76.833 -25 137.5 -25c55.333 0 126 12.667 212 38l24 -186
c-54 -14.667 -105.833 -25.334 -155.5 -32.001s-103.167 -10 -160.5 -10z" />
    <glyph glyph-name="Ldot" unicode="&#x13f;" 
d="M160 0v1420h200v-1230h740v-190h-940zM750 932c-40.667 0 -75.5 14.5 -104.5 43.5s-43.5 63.833 -43.5 104.5c0 41.333 14.5 76.333 43.5 105s63.833 43 104.5 43c41.333 0 76.333 -14.333 105 -43s43 -63.667 43 -105c0 -40.667 -14.333 -75.5 -43 -104.5
s-63.667 -43.5 -105 -43.5z" />
    <glyph glyph-name="ldot" unicode="&#x140;" 
d="M748 -20c-122.667 0 -211.333 33.333 -266 100s-82 173.334 -82 320.001v926h-312v174h524v-1090c0 -56 5.33301 -101.667 16 -137s31.5 -61.333 62.5 -78s76.833 -25 137.5 -25c55.333 0 126 12.667 212 38l24 -186c-54 -14.667 -105.833 -25.334 -155.5 -32.001
s-103.167 -10 -160.5 -10zM916.001 862c-40.667 0 -75.5 14.5 -104.5 43.5s-43.5 63.833 -43.5 104.5c0 41.333 14.5 76.333 43.5 105s63.833 43 104.5 43c41.333 0 76.333 -14.333 105 -43s43 -63.667 43 -105c0 -40.667 -14.333 -75.5 -43 -104.5
s-63.667 -43.5 -105 -43.5z" />
    <glyph glyph-name="Lslash" unicode="&#x141;" 
d="M260 0v560l-202 -105v185l202 105v675h200v-571l404 211v-185l-404 -211v-474h640v-190h-840z" />
    <glyph glyph-name="lslash" unicode="&#x142;" 
d="M118 455l0.000976562 185l282 147v539h-312v174h524v-603l312 163v-185l-312 -163v-302c0 -56 5.33301 -101.667 16 -137s31.5 -61.333 62.5 -78s76.833 -25 137.5 -25c55.333 0 126 12.667 212 38l24 -186c-54 -14.667 -105.833 -25.334 -155.5 -32.001
s-103.167 -10 -160.5 -10c-122.667 0 -211.334 33.333 -266.001 100s-82 173.334 -82 320.001v202z" />
    <glyph glyph-name="Nacute" unicode="&#x143;" 
d="M148 0v1420h252l440 -1080h20v1080h192v-1420h-252l-440 1080h-20v-1080h-192zM469 1580l220 250h282l-260 -250h-242z" />
    <glyph glyph-name="nacute" unicode="&#x144;" 
d="M168 0v1060h192l17 -192h23c12 141.333 105.333 212 280 212c112 0 198.667 -34 260 -102s92 -164 92 -288v-690h-212v690c0 64 -16.667 113.333 -50 148s-80 52 -140 52c-166.667 0 -250 -98 -250 -294v-596h-212zM489 1248l170 380h212l-190 -380h-192z" />
    <glyph glyph-name="Ncommaaccent" unicode="&#x145;" 
d="M148 0v1420h252l440 -1080h20v1080h192v-1420h-252l-440 1080h-20v-1080h-192zM415 -480l77 340h222l-117 -340h-182z" />
    <glyph glyph-name="ncommaaccent" unicode="&#x146;" 
d="M168 0v1060h192l17 -192h23c12 141.333 105.333 212 280 212c112 0 198.667 -34 260 -102s92 -164 92 -288v-690h-212v690c0 64 -16.667 113.333 -50 148s-80 52 -140 52c-166.667 0 -250 -98 -250 -294v-596h-212zM415 -480l77 340h222l-117 -340h-182z" />
    <glyph glyph-name="Ncaron" unicode="&#x147;" 
d="M148 0v1420h252l440 -1080h20v1080h192v-1420h-252l-440 1080h-20v-1080h-192zM514 1580l-260 260h222l124 -144l124 144h222l-260 -260h-172z" />
    <glyph glyph-name="ncaron" unicode="&#x148;" 
d="M168 0v1060h192l17 -192h23c12 141.333 105.333 212 280 212c112 0 198.667 -34 260 -102s92 -164 92 -288v-690h-212v690c0 64 -16.667 113.333 -50 148s-80 52 -140 52c-166.667 0 -250 -98 -250 -294v-596h-212zM504 1248l-240 380h212l114 -226l114 226h212
l-240 -380h-172z" />
    <glyph glyph-name="napostrophe" unicode="&#x149;" 
d="M0 1248l70 380h232l-140 -380h-162zM168 0v1060h192l17 -192h23c12 141.333 105.333 212 280 212c112 0 198.667 -34 260 -102s92 -164 92 -288v-690h-212v690c0 64 -16.667 113.333 -50 148s-80 52 -140 52c-166.667 0 -250 -98 -250 -294v-596h-212z" />
    <glyph glyph-name="Eng" unicode="&#x14a;" 
d="M148 0v1420h252l440 -1080h20v1080h192v-1516c0 -108.667 -28.667 -195.5 -86 -260.5s-138.333 -102.167 -243 -111.5l-130 -12l-10 168l120 18c52 8 91 28.667 117 62s39 81.333 39 144v88h-59l-440 1080h-20v-1080h-192z" />
    <glyph glyph-name="eng" unicode="&#x14b;" 
d="M168 0l-0.000976562 1060h192l17 -192h23c12 141.333 105.333 212 280 212c112 0 198.667 -34 260 -102s92 -164 92 -288v-596c0 -188.667 -37.167 -325.667 -111.5 -411s-193.166 -135.666 -356.499 -150.999l-100 -12l-10 188l130 18c82.667 10 142.667 41.333 180 94
s56 133.334 56 242.001v628c0 67.333 -16.667 119.166 -50 155.499s-80 54.5 -140 54.5c-166.667 0 -250 -101.333 -250 -304v-596h-212z" />
    <glyph glyph-name="Omacron" unicode="&#x14c;" 
d="M600 -20c-349.333 0 -524 240 -524 720c0 493.333 174.667 740 524 740s524 -246.667 524 -740c0 -480 -174.667 -720 -524 -720zM600 164c209.333 0 314 178.667 314 536c0 370.667 -104.667 556 -314 556s-314 -185.333 -314 -556c0 -357.333 104.667 -536 314 -536z
M213 1580v188h774v-188h-774z" />
    <glyph glyph-name="omacron" unicode="&#x14d;" 
d="M600 -20c-146.667 0 -260.667 48 -342 144s-122 231.333 -122 406c0 175.333 40.667 310.833 122 406.5s195.333 143.5 342 143.5c147.333 0 261.5 -47.833 342.5 -143.5s121.5 -231.167 121.5 -406.5c0 -174.667 -40.5 -310 -121.5 -406s-195.167 -144 -342.5 -144z
M600 170c78 0 138.167 31.333 180.5 94s63.5 151.334 63.5 266.001c0 115.333 -21.167 204.166 -63.5 266.499s-102.5 93.5 -180.5 93.5s-138.167 -31.167 -180.5 -93.5s-63.5 -151.166 -63.5 -266.499c0 -114.667 21.167 -203.334 63.5 -266.001s102.5 -94 180.5 -94z
M170 1248v188h860v-188h-860z" />
    <glyph glyph-name="Obreve" unicode="&#x14e;" 
d="M600 -20c-349.333 0 -524 240 -524 720c0 493.333 174.667 740 524 740s524 -246.667 524 -740c0 -480 -174.667 -720 -524 -720zM600 164c209.333 0 314 178.667 314 536c0 370.667 -104.667 556 -314 556s-314 -185.333 -314 -556c0 -357.333 104.667 -536 314 -536z
M600 1570c-96.667 0 -171.5 25.333 -224.5 76s-79.5 122 -79.5 214h175c0 -48.667 11.333 -86.5 34 -113.5s54.334 -40.5 95.001 -40.5c41.333 0 73.166 13.5 95.499 40.5s33.5 64.833 33.5 113.5h175c0 -92 -26.5 -163.333 -79.5 -214s-127.833 -76 -224.5 -76z" />
    <glyph glyph-name="obreve" unicode="&#x14f;" 
d="M600 -20c-146.667 0 -260.667 48 -342 144s-122 231.333 -122 406c0 175.333 40.667 310.833 122 406.5s195.333 143.5 342 143.5c147.333 0 261.5 -47.833 342.5 -143.5s121.5 -231.167 121.5 -406.5c0 -174.667 -40.5 -310 -121.5 -406s-195.167 -144 -342.5 -144z
M600 170c78 0 138.167 31.333 180.5 94s63.5 151.334 63.5 266.001c0 115.333 -21.167 204.166 -63.5 266.499s-102.5 93.5 -180.5 93.5s-138.167 -31.167 -180.5 -93.5s-63.5 -151.166 -63.5 -266.499c0 -114.667 21.167 -203.334 63.5 -266.001s102.5 -94 180.5 -94z
M600 1238c-106 0 -188.167 28 -246.5 84s-87.5 135.333 -87.5 238v43h175v-43c0 -59.333 13.833 -105.166 41.5 -137.499s66.834 -48.5 117.501 -48.5c51.333 0 90.666 16.167 117.999 48.5s41 78.166 41 137.499v43h175v-43c0 -102.667 -29.167 -182 -87.5 -238
s-140.5 -84 -246.5 -84z" />
    <glyph glyph-name="Ohungarumlaut" unicode="&#x150;" 
d="M600 -20c-349.333 0 -524 240 -524 720c0 493.333 174.667 740 524 740s524 -246.667 524 -740c0 -480 -174.667 -720 -524 -720zM600 164c209.333 0 314 178.667 314 536c0 370.667 -104.667 556 -314 556s-314 -185.333 -314 -556c0 -357.333 104.667 -536 314 -536z
M659 1580l160 250h282l-200 -250h-242zM249 1580l160 250h282l-200 -250h-242z" />
    <glyph glyph-name="ohungarumlaut" unicode="&#x151;" 
d="M600 -20c-146.667 0 -260.667 48 -342 144s-122 231.333 -122 406c0 175.333 40.667 310.833 122 406.5s195.333 143.5 342 143.5c147.333 0 261.5 -47.833 342.5 -143.5s121.5 -231.167 121.5 -406.5c0 -174.667 -40.5 -310 -121.5 -406s-195.167 -144 -342.5 -144z
M600 170c78 0 138.167 31.333 180.5 94s63.5 151.334 63.5 266.001c0 115.333 -21.167 204.166 -63.5 266.499s-102.5 93.5 -180.5 93.5s-138.167 -31.167 -180.5 -93.5s-63.5 -151.166 -63.5 -266.499c0 -114.667 21.167 -203.334 63.5 -266.001s102.5 -94 180.5 -94z
M669 1248l150 380h222l-170 -380h-202zM289 1248l150 380h222l-170 -380h-202z" />
    <glyph glyph-name="OE" unicode="&#x152;" 
d="M520 -20c-140.667 0 -249.835 62.832 -327.502 188.499s-116.5 302.834 -116.5 531.501c0 235.333 38.833 417.5 116.5 546.5s186.834 193.5 327.501 193.5c36 0 67.333 -3.33301 94 -10s55.334 -10 86.001 -10h400v-180h-320v-439h260v-180h-260v-441h320v-180h-400
c-23.333 0 -49.833 -3.33301 -79.5 -10s-63.167 -10 -100.5 -10zM529.999 163.999c26.667 0 50.001 2 70.001 6v1064c-23.333 14.667 -50 22 -80 22c-74.667 0 -132.334 -48.5 -173.001 -145.5s-61 -233.833 -61 -410.5c0 -170.667 21.333 -302.667 64 -396
s102.667 -140 180 -140z" />
    <glyph glyph-name="oe" unicode="&#x153;" 
d="M364 -20c-229.333 0 -343.998 183.332 -343.998 549.999s114.667 550 344 550c119.333 0 203.333 -62.667 252 -188c54.667 125.333 139 188 253 188c97.333 0 172.5 -44.333 225.5 -133s79.5 -213.667 79.5 -375c0 -22.667 -0.5 -46 -1.5 -70s-2.5 -46 -4.5 -66h-459
c13.333 -89.333 43.833 -158.333 91.5 -207s109.5 -73 185.5 -73c38 0 78 4.33301 120 13l26 -171c-26.667 -5.33301 -54.834 -9.66602 -84.501 -12.999s-58.167 -5 -85.5 -5c-156.667 0 -269.334 69.333 -338.001 208c-48 -138.667 -134.667 -208 -260 -208z
M846.002 893.999c-46.667 0 -81.5 -24.167 -104.5 -72.5s-35.833 -126.166 -38.5 -233.499h289c0 107.333 -11.5 185.166 -34.5 233.499s-60.167 72.5 -111.5 72.5zM364.002 169.999c96 0 144 120 144 360s-48 360 -144 360c-108 0 -162 -120 -162 -360s54 -360 162 -360z
" />
    <glyph glyph-name="Racute" unicode="&#x154;" 
d="M140 0l0.000976562 1420h488c147.333 0 261.166 -37.333 341.499 -112s120.5 -180.667 120.5 -318c0 -102 -20.667 -187.833 -62 -257.5s-101 -120.834 -179 -153.501l293 -579h-240l-257 540h-17h-288v-540h-200zM628.001 1230h-288v-500h288
c79.333 0 141.166 21 185.499 63s66.5 101 66.5 177c0 83.333 -22.167 147.5 -66.5 192.5s-106.166 67.5 -185.499 67.5zM429.001 1580l220 250h282l-260 -250h-242z" />
    <glyph glyph-name="racute" unicode="&#x155;" 
d="M80 0l0.000976562 174h236v712h-196v174h368l36 -272h24c12 194.667 109.333 292 292 292c109.333 0 188.666 -31.333 237.999 -94s74 -164 74 -304h-210c0 77.333 -11.5 133 -34.5 167s-60.167 51 -111.5 51c-90 0 -157.167 -38.5 -201.5 -115.5
s-66.5 -186.5 -66.5 -328.5v-282h260v-174h-708zM499.001 1248l170 380h212l-190 -380h-192z" />
    <glyph glyph-name="Rcommaaccent" unicode="&#x156;" 
d="M140 0l0.000976562 1420h488c147.333 0 261.166 -37.333 341.499 -112s120.5 -180.667 120.5 -318c0 -102 -20.667 -187.833 -62 -257.5s-101 -120.834 -179 -153.501l293 -579h-240l-257 540h-17h-288v-540h-200zM628.001 1230h-288v-500h288
c79.333 0 141.166 21 185.499 63s66.5 101 66.5 177c0 83.333 -22.167 147.5 -66.5 192.5s-106.166 67.5 -185.499 67.5zM425.001 -479.999l77 340h222l-117 -340h-182z" />
    <glyph glyph-name="rcommaaccent" unicode="&#x157;" 
d="M80 0l0.000976562 174h236v712h-196v174h368l36 -272h24c12 194.667 109.333 292 292 292c109.333 0 188.666 -31.333 237.999 -94s74 -164 74 -304h-210c0 77.333 -11.5 133 -34.5 167s-60.167 51 -111.5 51c-90 0 -157.167 -38.5 -201.5 -115.5
s-66.5 -186.5 -66.5 -328.5v-282h260v-174h-708zM245.001 -480l77 340h222l-117 -340h-182z" />
    <glyph glyph-name="Rcaron" unicode="&#x158;" 
d="M140 0l0.000976562 1420h488c147.333 0 261.166 -37.333 341.499 -112s120.5 -180.667 120.5 -318c0 -102 -20.667 -187.833 -62 -257.5s-101 -120.834 -179 -153.501l293 -579h-240l-257 540h-17h-288v-540h-200zM628.001 1230h-288v-500h288
c79.333 0 141.166 21 185.499 63s66.5 101 66.5 177c0 83.333 -22.167 147.5 -66.5 192.5s-106.166 67.5 -185.499 67.5zM474.001 1580l-260 260h222l124 -144l124 144h222l-260 -260h-172z" />
    <glyph glyph-name="rcaron" unicode="&#x159;" 
d="M80 0l0.000976562 174h236v712h-196v174h368l36 -272h24c12 194.667 109.333 292 292 292c109.333 0 188.666 -31.333 237.999 -94s74 -164 74 -304h-210c0 77.333 -11.5 133 -34.5 167s-60.167 51 -111.5 51c-90 0 -157.167 -38.5 -201.5 -115.5
s-66.5 -186.5 -66.5 -328.5v-282h260v-174h-708zM514.001 1248l-240 380h212l114 -226l114 226h212l-240 -380h-172z" />
    <glyph glyph-name="Sacute" unicode="&#x15a;" 
d="M551 -20c-161.333 0 -301.999 25.999 -421.999 77.999l26 202c73.333 -31.333 144.166 -55.166 212.499 -71.499s134.833 -24.5 199.5 -24.5c184 0 276 66 276 198c0 84.667 -43.333 146.667 -130 186l-246 112c-96.667 44 -170.834 97 -222.501 159s-77.5 139 -77.5 231
c0 124 40 220 120 288s193 102 339 102c89.333 0 168.333 -14 237 -42s134.667 -73.667 198 -137l-140 -142c-53.333 48 -103.166 82.833 -149.499 104.5s-94.5 32.5 -144.5 32.5c-78 0 -138.5 -16.5 -181.5 -49.5s-64.5 -81.833 -64.5 -146.5c0 -46 12.333 -83.5 37 -112.5
s61 -54.833 109 -77.5l208 -98c105.333 -49.333 185.333 -105 240 -167s82 -141.667 82 -239c0 -257.333 -168.667 -386 -506 -386zM469.001 1580l220 250h282l-260 -250h-242z" />
    <glyph glyph-name="sacute" unicode="&#x15b;" 
d="M518 -20c-80 0 -148.499 2.33301 -205.499 7s-109.167 12.334 -156.5 23.001l24 192c70 -10.667 131.833 -18.667 185.5 -24s104.5 -8 152.5 -8c107.333 0 185.166 10.5 233.499 31.5s72.5 54.5 72.5 100.5c0 32 -8.5 55.833 -25.5 71.5s-43.167 27.834 -78.5 36.501
l-244 62c-104.667 26.667 -181.5 59.667 -230.5 99s-73.5 99 -73.5 179c0 116 44.5 200 133.5 252s232.5 78 430.5 78c97.333 0 190.666 -6.66699 279.999 -20l-22 -184c-54 5.33301 -101.667 9 -143 11s-81.666 3 -120.999 3c-118.667 0 -204.667 -10.167 -258 -30.5
s-80 -53.5 -80 -99.5c0 -30.667 11 -52.834 33 -66.501s55.667 -26.167 101 -37.5l196 -48c111.333 -26.667 192.833 -62.334 244.5 -107.001s77.5 -109.667 77.5 -195c0 -114 -41.667 -196.833 -125 -248.5s-217 -77.5 -401 -77.5zM529.001 1248l170 380h212l-190 -380
h-192z" />
    <glyph glyph-name="Scircumflex" unicode="&#x15c;" 
d="M551 -20c-161.333 0 -301.999 25.999 -421.999 77.999l26 202c73.333 -31.333 144.166 -55.166 212.499 -71.499s134.833 -24.5 199.5 -24.5c184 0 276 66 276 198c0 84.667 -43.333 146.667 -130 186l-246 112c-96.667 44 -170.834 97 -222.501 159s-77.5 139 -77.5 231
c0 124 40 220 120 288s193 102 339 102c89.333 0 168.333 -14 237 -42s134.667 -73.667 198 -137l-140 -142c-53.333 48 -103.166 82.833 -149.499 104.5s-94.5 32.5 -144.5 32.5c-78 0 -138.5 -16.5 -181.5 -49.5s-64.5 -81.833 -64.5 -146.5c0 -46 12.333 -83.5 37 -112.5
s61 -54.833 109 -77.5l208 -98c105.333 -49.333 185.333 -105 240 -167s82 -141.667 82 -239c0 -257.333 -168.667 -386 -506 -386zM259.001 1580l260 260h172l260 -260h-222l-124 144l-124 -144h-222z" />
    <glyph glyph-name="scircumflex" unicode="&#x15d;" 
d="M518 -20c-80 0 -148.499 2.33301 -205.499 7s-109.167 12.334 -156.5 23.001l24 192c70 -10.667 131.833 -18.667 185.5 -24s104.5 -8 152.5 -8c107.333 0 185.166 10.5 233.499 31.5s72.5 54.5 72.5 100.5c0 32 -8.5 55.833 -25.5 71.5s-43.167 27.834 -78.5 36.501
l-244 62c-104.667 26.667 -181.5 59.667 -230.5 99s-73.5 99 -73.5 179c0 116 44.5 200 133.5 252s232.5 78 430.5 78c97.333 0 190.666 -6.66699 279.999 -20l-22 -184c-54 5.33301 -101.667 9 -143 11s-81.666 3 -120.999 3c-118.667 0 -204.667 -10.167 -258 -30.5
s-80 -53.5 -80 -99.5c0 -30.667 11 -52.834 33 -66.501s55.667 -26.167 101 -37.5l196 -48c111.333 -26.667 192.833 -62.334 244.5 -107.001s77.5 -109.667 77.5 -195c0 -114 -41.667 -196.833 -125 -248.5s-217 -77.5 -401 -77.5zM304.001 1248l240 380h172l240 -380h-212
l-114 226l-114 -226h-212z" />
    <glyph glyph-name="Scedilla" unicode="&#x15e;" 
d="M551 -20c-161.333 0 -301.999 25.999 -421.999 77.999l26 202c73.333 -31.333 144.166 -55.166 212.499 -71.499s134.833 -24.5 199.5 -24.5c184 0 276 66 276 198c0 84.667 -43.333 146.667 -130 186l-246 112c-96.667 44 -170.834 97 -222.501 159s-77.5 139 -77.5 231
c0 124 40 220 120 288s193 102 339 102c89.333 0 168.333 -14 237 -42s134.667 -73.667 198 -137l-140 -142c-53.333 48 -103.166 82.833 -149.499 104.5s-94.5 32.5 -144.5 32.5c-78 0 -138.5 -16.5 -181.5 -49.5s-64.5 -81.833 -64.5 -146.5c0 -46 12.333 -83.5 37 -112.5
s61 -54.833 109 -77.5l208 -98c105.333 -49.333 185.333 -105 240 -167s82 -141.667 82 -239c0 -257.333 -168.667 -386 -506 -386zM449.001 -480.001v150c125.333 0 188 24 188 72c0 45.333 -54 68 -162 68l84 239l126 -37l-30 -112c114.667 -24 172 -79.667 172 -167
c0 -142 -126 -213 -378 -213z" />
    <glyph glyph-name="scedilla" unicode="&#x15f;" 
d="M518 -20c-80 0 -148.499 2.33301 -205.499 7s-109.167 12.334 -156.5 23.001l24 192c70 -10.667 131.833 -18.667 185.5 -24s104.5 -8 152.5 -8c107.333 0 185.166 10.5 233.499 31.5s72.5 54.5 72.5 100.5c0 32 -8.5 55.833 -25.5 71.5s-43.167 27.834 -78.5 36.501
l-244 62c-104.667 26.667 -181.5 59.667 -230.5 99s-73.5 99 -73.5 179c0 116 44.5 200 133.5 252s232.5 78 430.5 78c97.333 0 190.666 -6.66699 279.999 -20l-22 -184c-54 5.33301 -101.667 9 -143 11s-81.666 3 -120.999 3c-118.667 0 -204.667 -10.167 -258 -30.5
s-80 -53.5 -80 -99.5c0 -30.667 11 -52.834 33 -66.501s55.667 -26.167 101 -37.5l196 -48c111.333 -26.667 192.833 -62.334 244.5 -107.001s77.5 -109.667 77.5 -195c0 -114 -41.667 -196.833 -125 -248.5s-217 -77.5 -401 -77.5zM449.001 -480v150
c125.333 0 188 24 188 72c0 45.333 -54 68 -162 68l84 239l126 -37l-30 -112c114.667 -24 172 -79.667 172 -167c0 -142 -126 -213 -378 -213z" />
    <glyph glyph-name="Scaron" unicode="&#x160;" 
d="M551 -20c-161.333 0 -301.999 25.999 -421.999 77.999l26 202c73.333 -31.333 144.166 -55.166 212.499 -71.499s134.833 -24.5 199.5 -24.5c184 0 276 66 276 198c0 84.667 -43.333 146.667 -130 186l-246 112c-96.667 44 -170.834 97 -222.501 159s-77.5 139 -77.5 231
c0 124 40 220 120 288s193 102 339 102c89.333 0 168.333 -14 237 -42s134.667 -73.667 198 -137l-140 -142c-53.333 48 -103.166 82.833 -149.499 104.5s-94.5 32.5 -144.5 32.5c-78 0 -138.5 -16.5 -181.5 -49.5s-64.5 -81.833 -64.5 -146.5c0 -46 12.333 -83.5 37 -112.5
s61 -54.833 109 -77.5l208 -98c105.333 -49.333 185.333 -105 240 -167s82 -141.667 82 -239c0 -257.333 -168.667 -386 -506 -386zM514.001 1580l-260 260h222l124 -144l124 144h222l-260 -260h-172z" />
    <glyph glyph-name="scaron" unicode="&#x161;" 
d="M518 -20c-80 0 -148.499 2.33301 -205.499 7s-109.167 12.334 -156.5 23.001l24 192c70 -10.667 131.833 -18.667 185.5 -24s104.5 -8 152.5 -8c107.333 0 185.166 10.5 233.499 31.5s72.5 54.5 72.5 100.5c0 32 -8.5 55.833 -25.5 71.5s-43.167 27.834 -78.5 36.501
l-244 62c-104.667 26.667 -181.5 59.667 -230.5 99s-73.5 99 -73.5 179c0 116 44.5 200 133.5 252s232.5 78 430.5 78c97.333 0 190.666 -6.66699 279.999 -20l-22 -184c-54 5.33301 -101.667 9 -143 11s-81.666 3 -120.999 3c-118.667 0 -204.667 -10.167 -258 -30.5
s-80 -53.5 -80 -99.5c0 -30.667 11 -52.834 33 -66.501s55.667 -26.167 101 -37.5l196 -48c111.333 -26.667 192.833 -62.334 244.5 -107.001s77.5 -109.667 77.5 -195c0 -114 -41.667 -196.833 -125 -248.5s-217 -77.5 -401 -77.5zM544.001 1248l-240 380h212l114 -226
l114 226h212l-240 -380h-172z" />
    <glyph glyph-name="Tcommaaccent" unicode="&#x162;" 
d="M500 0v1230h-420v190h1040v-190h-420v-1230h-200zM434 -480v150c125.333 0 188 24 188 72c0 45.333 -54 68 -162 68l84 239l126 -37l-30 -112c114.667 -24 172 -79.667 172 -167c0 -142 -126 -213 -378 -213z" />
    <glyph glyph-name="tcommaaccent" unicode="&#x163;" 
d="M782 -20c-160.667 0 -276.832 33.332 -348.499 99.999s-107.5 173.334 -107.5 320.001v486h-266v174h266v320h212v-320h482v-174h-482v-476c0 -84 20.5 -145 61.5 -183s108.5 -57 202.5 -57c33.333 0 68.666 1.83301 105.999 5.5s80 8.5 128 14.5l24 -186
c-46.667 -8 -92.167 -14 -136.5 -18s-91.5 -6 -141.5 -6zM494.002 -480.001v150c125.333 0 188 24 188 72c0 45.333 -54 68 -162 68l84 239l126 -37l-30 -112c114.667 -24 172 -79.667 172 -167c0 -142 -126 -213 -378 -213z" />
    <glyph glyph-name="Tcaron" unicode="&#x164;" 
d="M500 0v1230h-420v190h1040v-190h-420v-1230h-200zM514 1580l-260 260h222l124 -144l124 144h222l-260 -260h-172z" />
    <glyph glyph-name="tcaron" unicode="&#x165;" 
d="M682 1188l50 380h212l-90 -380h-172zM782 -20c-160.667 0 -276.832 33.332 -348.499 99.999s-107.5 173.334 -107.5 320.001v486h-266v174h266v320h212v-320h482v-174h-482v-476c0 -84 20.5 -145 61.5 -183s108.5 -57 202.5 -57c33.333 0 68.666 1.83301 105.999 5.5
s80 8.5 128 14.5l24 -186c-46.667 -8 -92.167 -14 -136.5 -18s-91.5 -6 -141.5 -6z" />
    <glyph glyph-name="Tbar" unicode="&#x166;" 
d="M500 0v592h-308v180h308v458h-420v190h1040v-190h-420v-458h308v-180h-308v-592h-200z" />
    <glyph glyph-name="tbar" unicode="&#x167;" 
d="M60 496l0.00195312 173.999h266v216h-266v174h266v320h212v-320h482v-174h-482v-216h482v-174h-482v-86c0 -84 20.5 -145 61.5 -183s108.5 -57 202.5 -57c33.333 0 68.666 1.83301 105.999 5.5s80 8.5 128 14.5l24 -186c-46.667 -8 -92.167 -14 -136.5 -18
s-91.5 -6 -141.5 -6c-160.667 0 -276.834 33.333 -348.501 100s-107.5 173.334 -107.5 320.001v96h-266z" />
    <glyph glyph-name="Utilde" unicode="&#x168;" 
d="M596 -20c-304 0 -456 158.667 -456 476v964h200v-964c0 -94.667 20.833 -166 62.5 -214s107.5 -72 197.5 -72c173.333 0 260 95.333 260 286v964h200v-964c0 -158.667 -39.333 -277.667 -118 -357s-194 -119 -346 -119zM225 1566l-0.000976562 49.999
c0 166.667 70 250 210 250c27.333 0 55.833 -4.83301 85.5 -14.5l102.5 -34.5c39.333 -13.333 69.333 -25.166 90 -35.499s39.334 -15.5 56.001 -15.5c36 0 54 31.333 54 94v30h172v-50c0 -160 -62.667 -240 -188 -240c-22.667 0 -49.667 5.33301 -81 16l-112 39
c-28.667 10 -55 20 -79 30s-44.667 15 -62 15c-49.333 0 -74 -34.667 -74 -104v-30h-174z" />
    <glyph glyph-name="utilde" unicode="&#x169;" 
d="M506 -20c-111.333 0 -197.499 33.167 -258.499 99.5s-91.5 159.833 -91.5 280.5v700h212v-700c0 -60.667 17.333 -107.5 52 -140.5s83.334 -49.5 146.001 -49.5c77.333 0 135.666 24.5 174.999 73.5s59 131.167 59 246.5v570h212v-868l146 -22v-170l-340 -10l-15 214h-19
c-16.667 -72 -49.334 -127.333 -98.001 -166s-108.667 -58 -180 -58zM235.001 1226v80c0 166.667 70 250 210 250c46 0 102 -16.333 168 -49l80 -39.5c16 -7.66699 31.333 -11.5 46 -11.5c36 0 54 31.333 54 94v60h172v-80c0 -160 -62.667 -240 -188 -240
c-20.667 0 -45.5 4.16699 -74.5 12.5s-61.833 22.5 -98.5 42.5c-54 30 -94.333 45 -121 45c-49.333 0 -74 -34.667 -74 -104v-60h-174z" />
    <glyph glyph-name="Umacron" unicode="&#x16a;" 
d="M596 -20c-304 0 -456 158.667 -456 476v964h200v-964c0 -94.667 20.833 -166 62.5 -214s107.5 -72 197.5 -72c173.333 0 260 95.333 260 286v964h200v-964c0 -158.667 -39.333 -277.667 -118 -357s-194 -119 -346 -119zM213 1580v188h774v-188h-774z" />
    <glyph glyph-name="umacron" unicode="&#x16b;" 
d="M506 -20c-111.333 0 -197.499 33.167 -258.499 99.5s-91.5 159.833 -91.5 280.5v700h212v-700c0 -60.667 17.333 -107.5 52 -140.5s83.334 -49.5 146.001 -49.5c77.333 0 135.666 24.5 174.999 73.5s59 131.167 59 246.5v570h212v-868l146 -22v-170l-340 -10l-15 214h-19
c-16.667 -72 -49.334 -127.333 -98.001 -166s-108.667 -58 -180 -58zM160.001 1248v188h860v-188h-860z" />
    <glyph glyph-name="Ubreve" unicode="&#x16c;" 
d="M596 -20c-304 0 -456 158.667 -456 476v964h200v-964c0 -94.667 20.833 -166 62.5 -214s107.5 -72 197.5 -72c173.333 0 260 95.333 260 286v964h200v-964c0 -158.667 -39.333 -277.667 -118 -357s-194 -119 -346 -119zM600 1570c-96.667 0 -171.5 25.333 -224.5 76
s-79.5 122 -79.5 214h175c0 -48.667 11.333 -86.5 34 -113.5s54.334 -40.5 95.001 -40.5c41.333 0 73.166 13.5 95.499 40.5s33.5 64.833 33.5 113.5h175c0 -92 -26.5 -163.333 -79.5 -214s-127.833 -76 -224.5 -76z" />
    <glyph glyph-name="ubreve" unicode="&#x16d;" 
d="M506 -20c-111.333 0 -197.499 33.167 -258.499 99.5s-91.5 159.833 -91.5 280.5v700h212v-700c0 -60.667 17.333 -107.5 52 -140.5s83.334 -49.5 146.001 -49.5c77.333 0 135.666 24.5 174.999 73.5s59 131.167 59 246.5v570h212v-868l146 -22v-170l-340 -10l-15 214h-19
c-16.667 -72 -49.334 -127.333 -98.001 -166s-108.667 -58 -180 -58zM590.001 1238c-106 0 -188.167 28 -246.5 84s-87.5 135.333 -87.5 238v43h175v-43c0 -59.333 13.833 -105.166 41.5 -137.499s66.834 -48.5 117.501 -48.5c51.333 0 90.666 16.167 117.999 48.5
s41 78.166 41 137.499v43h175v-43c0 -102.667 -29.167 -182 -87.5 -238s-140.5 -84 -246.5 -84z" />
    <glyph glyph-name="Uring" unicode="&#x16e;" 
d="M596 -20c-304 0 -456 158.667 -456 476v964h200v-964c0 -94.667 20.833 -166 62.5 -214s107.5 -72 197.5 -72c173.333 0 260 95.333 260 286v964h200v-964c0 -158.667 -39.333 -277.667 -118 -357s-194 -119 -346 -119zM600 1488c-75.333 0 -133.833 18 -175.5 54
s-62.5 86.667 -62.5 152s20.833 116 62.5 152s100.167 54 175.5 54s133.833 -18 175.5 -54s62.5 -86.667 62.5 -152s-20.833 -116 -62.5 -152s-100.167 -54 -175.5 -54zM600 1604c64 0 96 30 96 90c0 60.667 -32 91 -96 91s-96 -30.333 -96 -91c0 -60 32 -90 96 -90z" />
    <glyph glyph-name="uring" unicode="&#x16f;" 
d="M506 -20c-111.333 0 -197.499 33.167 -258.499 99.5s-91.5 159.833 -91.5 280.5v700h212v-700c0 -60.667 17.333 -107.5 52 -140.5s83.334 -49.5 146.001 -49.5c77.333 0 135.666 24.5 174.999 73.5s59 131.167 59 246.5v570h212v-868l146 -22v-170l-340 -10l-15 214h-19
c-16.667 -72 -49.334 -127.333 -98.001 -166s-108.667 -58 -180 -58zM590.001 1198c-75.333 0 -133.833 18.833 -175.5 56.5s-62.5 90.834 -62.5 159.501s20.833 121.834 62.5 159.501s100.167 56.5 175.5 56.5s133.833 -18.833 175.5 -56.5s62.5 -90.834 62.5 -159.501
s-20.833 -121.834 -62.5 -159.501s-100.167 -56.5 -175.5 -56.5zM590.001 1314c64 0 96 33.333 96 100c0 67.333 -32 101 -96 101s-96 -33.667 -96 -101c0 -66.667 32 -100 96 -100z" />
    <glyph glyph-name="Uhungarumlaut" unicode="&#x170;" 
d="M596 -20c-304 0 -456 158.667 -456 476v964h200v-964c0 -94.667 20.833 -166 62.5 -214s107.5 -72 197.5 -72c173.333 0 260 95.333 260 286v964h200v-964c0 -158.667 -39.333 -277.667 -118 -357s-194 -119 -346 -119zM659 1580l160 250h282l-200 -250h-242zM249 1580
l160 250h282l-200 -250h-242z" />
    <glyph glyph-name="uhungarumlaut" unicode="&#x171;" 
d="M506 -20c-111.333 0 -197.499 33.167 -258.499 99.5s-91.5 159.833 -91.5 280.5v700h212v-700c0 -60.667 17.333 -107.5 52 -140.5s83.334 -49.5 146.001 -49.5c77.333 0 135.666 24.5 174.999 73.5s59 131.167 59 246.5v570h212v-868l146 -22v-170l-340 -10l-15 214h-19
c-16.667 -72 -49.334 -127.333 -98.001 -166s-108.667 -58 -180 -58zM659.001 1248l150 380h222l-170 -380h-202zM279.001 1248l150 380h222l-170 -380h-202z" />
    <glyph glyph-name="Uogonek" unicode="&#x172;" 
d="M668 -424c-76.667 0 -135.834 16.832 -177.501 50.499s-62.5 80.834 -62.5 141.501c0 102.667 38 166.667 114 192v22c-268 18 -402 176 -402 474v964h200v-964c0 -94.667 20.833 -166 62.5 -214s107.5 -72 197.5 -72c173.333 0 260 95.333 260 286v964h200v-964
c0 -249.333 -96.667 -401 -290 -455c-31.333 -10 -61.666 -21.5 -90.999 -34.5s-53.5 -30.167 -72.5 -51.5s-28.5 -49 -28.5 -83c0 -17.333 7.66699 -36.333 23 -57s46.333 -31 93 -31c24.667 0 52 3.66699 82 11l-18 -170c-34 -6 -64 -9 -90 -9z" />
    <glyph glyph-name="uogonek" unicode="&#x173;" 
d="M506 -20c-111.333 0 -197.498 33.167 -258.498 99.5s-91.5 159.833 -91.5 280.5v700h212v-700c0 -60.667 17.333 -107.5 52 -140.5s83.334 -49.5 146.001 -49.5c77.333 0 135.666 24.5 174.999 73.5s59 131.167 59 246.5v570h212v-868l146 -22v-170l-35 -1
c-61.333 -4 -108.833 -20.5 -142.5 -49.5s-50.5 -68.167 -50.5 -117.5c0 -58.667 38.667 -88 116 -88c23.333 0 50.666 3.66699 81.999 11l-18 -170c-30.667 -6 -60.667 -9 -90 -9c-76.667 0 -135.834 18.5 -177.501 55.5s-62.5 89.167 -62.5 156.5
c0 45.333 9.83301 83.5 29.5 114.5s47.834 51.833 84.501 62.5v27l-76 -2l-15 214h-19c-16.667 -72 -49.334 -127.333 -98.001 -166s-108.667 -58 -180 -58z" />
    <glyph glyph-name="Wcircumflex" unicode="&#x174;" 
d="M180 0l-160 1420h210l120 -1260h20l131 900h200l129 -900h20l120 1260h210l-160 -1420h-309l-105 862h-12l-105 -862h-309zM259 1580l260 260h172l260 -260h-222l-124 144l-124 -144h-222z" />
    <glyph glyph-name="wcircumflex" unicode="&#x175;" 
d="M190 0l-120 1060h200l80 -900h18l125 900h194l125 -900h18l90 900h210l-150 -1060h-260l-124 842h-12l-124 -842h-270zM264 1248l240 380h172l240 -380h-212l-114 226l-114 -226h-212z" />
    <glyph glyph-name="Ycircumflex" unicode="&#x176;" 
d="M500 0v503l-475 917h220l346 -710h18l346 710h220l-475 -917v-503h-200zM259 1580l260 260h172l260 -260h-222l-124 144l-124 -144h-222z" />
    <glyph glyph-name="ycircumflex" unicode="&#x177;" 
d="M477 0l-421.998 1060h220l346 -900h15l259 900h220l-306 -966c-40 -126.667 -84.833 -228.667 -134.5 -306s-108.334 -135.333 -176.001 -174s-148.834 -63.334 -243.501 -74.001l-180 -20l-10 190l166 20c84.667 10 154.5 35.667 209.5 77s101.5 105.666 139.5 192.999
h-103zM289.002 1248l240 380h172l240 -380h-212l-114 226l-114 -226h-212z" />
    <glyph glyph-name="Ydieresis" unicode="&#x178;" 
d="M500 0v503l-475 917h220l346 -710h18l346 710h220l-475 -917v-503h-200zM808 1580c-36.667 0 -68.167 13.167 -94.5 39.5s-39.5 57.833 -39.5 94.5c0 37.333 13.167 69 39.5 95s57.833 39 94.5 39c37.333 0 69 -13 95 -39s39 -57.667 39 -95
c0 -36.667 -13 -68.167 -39 -94.5s-57.667 -39.5 -95 -39.5zM388 1580c-36.667 0 -68.167 13.167 -94.5 39.5s-39.5 57.833 -39.5 94.5c0 37.333 13.167 69 39.5 95s57.833 39 94.5 39c37.333 0 69 -13 95 -39s39 -57.667 39 -95c0 -36.667 -13 -68.167 -39 -94.5
s-57.667 -39.5 -95 -39.5z" />
    <glyph glyph-name="Zacute" unicode="&#x179;" 
d="M150 0v176l656 1054h-656v190h900v-190l-676 -1054h696v-176h-920zM469 1580l220 250h282l-260 -250h-242z" />
    <glyph glyph-name="zacute" unicode="&#x17a;" 
d="M160 0v176l617 708h-617v176h856v-176l-601 -708h621v-176h-876zM499 1248l170 380h212l-190 -380h-192z" />
    <glyph glyph-name="Zdotaccent" unicode="&#x17b;" 
d="M150 0v176l656 1054h-656v190h900v-190l-676 -1054h696v-176h-920zM600 1580c-36.667 0 -68.167 13.167 -94.5 39.5s-39.5 57.833 -39.5 94.5c0 37.333 13.167 69 39.5 95s57.833 39 94.5 39c37.333 0 69 -13 95 -39s39 -57.667 39 -95c0 -36.667 -13 -68.167 -39 -94.5
s-57.667 -39.5 -95 -39.5z" />
    <glyph glyph-name="zdotaccent" unicode="&#x17c;" 
d="M160 0v176l617 708h-617v176h856v-176l-601 -708h621v-176h-876zM598 1238c-36.667 0 -68.167 13.167 -94.5 39.5s-39.5 57.833 -39.5 94.5c0 37.333 13.167 69 39.5 95s57.833 39 94.5 39c37.333 0 69 -13 95 -39s39 -57.667 39 -95c0 -36.667 -13 -68.167 -39 -94.5
s-57.667 -39.5 -95 -39.5z" />
    <glyph glyph-name="Zcaron" unicode="&#x17d;" 
d="M150 0v176l656 1054h-656v190h900v-190l-676 -1054h696v-176h-920zM514 1580l-260 260h222l124 -144l124 144h222l-260 -260h-172z" />
    <glyph glyph-name="zcaron" unicode="&#x17e;" 
d="M160 0v176l617 708h-617v176h856v-176l-601 -708h621v-176h-876zM514 1248l-240 380h212l114 -226l114 226h212l-240 -380h-172z" />
    <glyph glyph-name="longs" unicode="&#x17f;" 
d="M422 0v644h-354v176h354v150c0 366.667 157.333 550 472 550c80 0 156.667 -6.66699 230 -20l-22 -184c-44 5.33301 -82.833 9 -116.5 11s-66.167 3 -97.5 3c-169.333 0 -254 -116.667 -254 -350v-980h-212z" />
    <glyph glyph-name="uni018F" unicode="&#x18f;" 
d="M600 -20c-349.333 0 -523.999 233.331 -523.999 699.998c0 20.667 0.333008 40.834 1 60.501s1.66699 38.834 3 57.501h830c-22.667 305.333 -159.334 458 -410.001 458c-108.667 0 -210 -13 -304 -39l-28 177c104 30.667 214.667 46 332 46c416 0 624 -246.667 624 -740
c0 -480 -174.667 -720 -524 -720zM600.001 163.998c190.667 0 294.333 148 311 444h-623c14 -296 118 -444 312 -444z" />
    <glyph glyph-name="florin" unicode="&#x192;" 
d="M88 -477l-10 188l108 15c78.667 11.333 136 43 172 95s54 132.333 54 241v520h-334v138h334v170c0 366.667 167.333 550 502 550c76 0 149.333 -6.66699 220 -20l-22 -184c-42 5.33301 -79 9 -111 11s-63 3 -93 3c-189.333 0 -284 -116.667 -284 -350v-180h434v-138h-434
v-488c0 -126 -16 -228 -48 -306s-81.667 -137 -149 -177s-154.333 -66.333 -261 -79z" />
    <glyph glyph-name="uni019D" unicode="&#x19d;" 
d="M-118 -480l-10 168l120 18c104 12 156 80.667 156 206v1508h252l440 -1080h20v1080h192v-1420h-252l-440 1080h-20v-896h1v-280c0 -110 -28.667 -197.5 -86 -262.5s-138.333 -101.5 -243 -109.5z" />
    <glyph glyph-name="Ohorn" unicode="&#x1a0;" 
d="M600 -20c-349.333 0 -524 240 -524 720c0 493.333 174.667 740 524 740s524 -246.667 524 -740c0 -480 -174.667 -720 -524 -720zM600 164c209.333 0 314 178.667 314 536c0 370.667 -104.667 556 -314 556s-314 -185.333 -314 -556c0 -357.333 104.667 -536 314 -536z
M841 1205l-50 165l60 10c136.667 22.667 205 113.667 205 273h192c0 -253.333 -115.667 -399.333 -347 -438z" />
    <glyph glyph-name="ohorn" unicode="&#x1a1;" 
d="M600 -20c-146.667 0 -260.667 48 -342 144s-122 231.333 -122 406c0 175.333 40.667 310.833 122 406.5s195.333 143.5 342 143.5c147.333 0 261.5 -47.833 342.5 -143.5s121.5 -231.167 121.5 -406.5c0 -174.667 -40.5 -310 -121.5 -406s-195.167 -144 -342.5 -144z
M600 170c78 0 138.167 31.333 180.5 94s63.5 151.334 63.5 266.001c0 115.333 -21.167 204.166 -63.5 266.499s-102.5 93.5 -180.5 93.5s-138.167 -31.167 -180.5 -93.5s-63.5 -151.166 -63.5 -266.499c0 -114.667 21.167 -203.334 63.5 -266.001s102.5 -94 180.5 -94z
M801 895l-50 165l60 10c124.667 20.667 187 111.667 187 273h210c0 -253.333 -115.667 -399.333 -347 -438z" />
    <glyph glyph-name="Uhorn" unicode="&#x1af;" 
d="M596 -20c-304 0 -456 158.667 -456 476v964h200v-964c0 -94.667 20.833 -166 62.5 -214s107.5 -72 197.5 -72c173.333 0 260 95.333 260 286v964l61 10c123.333 20 185 94.333 185 223h192c0 -190.667 -79.333 -312.667 -238 -366v-831
c0 -158.667 -39.333 -277.667 -118 -357s-194 -119 -346 -119z" />
    <glyph glyph-name="uhorn" unicode="&#x1b0;" 
d="M506 -20c-111.333 0 -197.499 33.168 -258.499 99.501s-91.5 159.833 -91.5 280.5v700h212v-700c0 -60.667 17.333 -107.5 52 -140.5s83.334 -49.5 146.001 -49.5c77.333 0 135.666 24.5 174.999 73.5s59 131.167 59 246.5v570h1l40 10c62 15.333 107 44.666 135 87.999
s42 105 42 185h220c0 -100 -18 -182.167 -54 -246.5s-93.333 -114.5 -172 -150.5v-754l146 -22v-170l-340 -10l-15 214h-19c-16.667 -72 -49.334 -127.333 -98.001 -166s-108.667 -58 -180 -58z" />
    <glyph glyph-name="Gcaron" unicode="&#x1e6;" 
d="M732 -20c-424 0 -636 244.001 -636 732.001c0 231.333 55 410.5 165 537.5s264.333 190.5 463 190.5c99.333 0 186.333 -15.5 261 -46.5s129.667 -74.833 165 -131.5l-149 -148c-30.667 45.333 -69.167 80.333 -115.5 105s-96.166 37 -149.499 37
c-134.667 0 -239.334 -46.5 -314.001 -139.5s-112 -224.5 -112 -394.5c0 -372 148.667 -558 446 -558c33.333 0 64.5 2 93.5 6s55.833 8.66699 80.5 14v336h-290v190h480v-670c-28 -8.66699 -77.167 -20.834 -147.5 -36.501s-150.5 -23.5 -240.5 -23.5zM609 1580l-260 260
h222l124 -144l124 144h222l-260 -260h-172z" />
    <glyph glyph-name="gcaron" unicode="&#x1e7;" 
d="M182 -478l-9.99805 187.999l340 16c107.333 5.33301 185.166 35.5 233.499 90.5s72.5 136.833 72.5 245.5v102h-18c-6.66699 -60.667 -35.334 -106.5 -86.001 -137.5s-116 -46.5 -196 -46.5c-134 0 -237.833 46.5 -311.5 139.5s-110.5 226.5 -110.5 400.5
c0 178 37 315.833 111 413.5s178.333 146.5 313 146.5c168.667 0 262 -70.667 280 -212h23l17 192h192v-966c0 -188.667 -43 -327.667 -129 -417s-223 -137.666 -411 -144.999zM306.002 519.999c0 -240 82 -360 246 -360c178.667 0 268 60 268 180v256
c0 202.667 -90 304 -270 304c-78 0 -138.167 -33 -180.5 -99s-63.5 -159.667 -63.5 -281zM494.002 1248l-240 380h212l114 -226l114 226h212l-240 -380h-172z" />
    <glyph glyph-name="uni01EA" unicode="&#x1ea;" 
d="M658 -424c-76.667 0 -135.832 16.832 -177.499 50.499s-62.5 80.834 -62.5 141.501c0 102.667 38 166.667 114 192v23c-304 30 -456 269 -456 717c0 493.333 174.667 740 524 740s524 -246.667 524 -740c0 -388.667 -114.333 -620 -343 -694
c-32.667 -11.333 -65.334 -23.333 -98.001 -36s-60 -29.5 -82 -50.5s-33 -50.167 -33 -87.5c0 -17.333 7.66699 -36.333 23 -57s46.333 -31 93 -31c24.667 0 52 3.66699 82 11l-18 -170c-34 -6 -64 -9 -90 -9zM600.002 163.999c209.333 0 314 178.667 314 536
c0 370.667 -104.667 556 -314 556s-314 -185.333 -314 -556c0 -357.333 104.667 -536 314 -536z" />
    <glyph glyph-name="uni01EB" unicode="&#x1eb;" 
d="M669 -424c-76.667 0 -135.833 16.832 -177.5 50.499s-62.5 80.834 -62.5 141.501c0 102.667 38 166.667 114 192v23c-129.333 12 -229.5 65.333 -300.5 160s-106.5 223.667 -106.5 387c0 175.333 40.667 310.833 122 406.5s195.333 143.5 342 143.5
c147.333 0 261.5 -47.833 342.5 -143.5s121.5 -231.167 121.5 -406.5c0 -136.667 -25 -249.5 -75 -338.5s-121.667 -150.167 -215 -183.5l-86.5 -35c-30.333 -12.667 -56 -30 -77 -52s-31.5 -51.667 -31.5 -89c0 -17.333 7.66699 -36.333 23 -57s46.333 -31 93 -31
c24.667 0 52 3.66699 82 11l-18 -170c-34 -6 -64 -9 -90 -9zM600.001 169.999c78 0 138.167 31.333 180.5 94s63.5 151.334 63.5 266.001c0 115.333 -21.167 204.166 -63.5 266.499s-102.5 93.5 -180.5 93.5s-138.167 -31.167 -180.5 -93.5s-63.5 -151.166 -63.5 -266.499
c0 -114.667 21.167 -203.334 63.5 -266.001s102.5 -94 180.5 -94z" />
    <glyph glyph-name="Aringacute" unicode="&#x1fa;" 
d="M469 1820l220 250h282l-260 -250h-242zM45 0l410 1420h290l410 -1420h-210l-93 346h-504l-93 -346h-210zM591 1248l-192 -712h402l-192 712h-18zM600 1488c-75.333 0 -133.833 18 -175.5 54s-62.5 86.667 -62.5 152s20.833 116 62.5 152s100.167 54 175.5 54
s133.833 -18 175.5 -54s62.5 -86.667 62.5 -152s-20.833 -116 -62.5 -152s-100.167 -54 -175.5 -54zM600 1604c64 0 96 30 96 90c0 60.667 -32 91 -96 91s-96 -30.333 -96 -91c0 -60 32 -90 96 -90z" />
    <glyph glyph-name="aringacute" unicode="&#x1fb;" 
d="M464 -20c-116.667 0 -207.169 26.5 -271.502 79.5s-96.5 128.5 -96.5 226.5c0 112 40.833 198 122.5 258s197.5 90 347.5 90c80 0 150 -8.33301 210 -25v57c0 70.667 -24.833 122.5 -74.5 155.5s-123.5 50.833 -221.5 53.5l-254 7l20 188l214 -3
c175.333 -2.66699 305.5 -40.5 390.5 -113.5s127.5 -179.5 127.5 -319.5v-442l180 -22v-170l-340 -10l-10 234h-21c-7.33301 -81.333 -39.666 -142.333 -96.999 -183s-132.666 -61 -225.999 -61zM497.998 150c62 0 113.5 11.334 154.5 34.001s71.833 51.667 92.5 87
s31 71.666 31 108.999v64c-37.333 10 -74.5 15.833 -111.5 17.5s-74.5 2.5 -112.5 2.5c-170.667 0 -256 -52.667 -256 -158c0 -104 67.333 -156 202 -156zM579.998 1198c-75.333 0 -133.833 18.833 -175.5 56.5s-62.5 90.834 -62.5 159.501s20.833 121.834 62.5 159.501
s100.167 56.5 175.5 56.5s133.833 -18.833 175.5 -56.5s62.5 -90.834 62.5 -159.501s-20.833 -121.834 -62.5 -159.501s-100.167 -56.5 -175.5 -56.5zM579.998 1314c64 0 96 33.333 96 100c0 67.333 -32 101 -96 101s-96 -33.667 -96 -101c0 -66.667 32 -100 96 -100z
M478.998 1528l170 380h212l-190 -380h-192z" />
    <glyph glyph-name="AEacute" unicode="&#x1fc;" 
d="M42 0l400 1420h658v-180h-320v-439h260v-180h-260v-441h320v-180h-500v246h-299l-69 -246h-190zM583 1248l-235 -837h252v837h-17zM509 1580l220 250h282l-260 -250h-242z" />
    <glyph glyph-name="aeacute" unicode="&#x1fd;" 
d="M299 -20c-88.667 0 -157.165 26.666 -205.498 79.999s-72.5 128.666 -72.5 225.999c0 110.667 32.333 196.334 97 257.001s155.667 91 273 91c47.333 0 90.666 -7 129.999 -21v53c0 66 -26 118.333 -78 157s-124.667 59.334 -218 62.001l-94 3l20 182l94 -3
c174 -6 296.667 -68 368 -186c53.333 132.667 139 199 257 199c97.333 0 172.5 -44.333 225.5 -133s79.5 -213.667 79.5 -375c0 -22.667 -0.5 -46 -1.5 -70s-2.5 -46 -4.5 -66h-459c13.333 -89.333 43.833 -158.333 91.5 -207s109.5 -73 185.5 -73c38 0 78 4.33301 120 13
l26 -171c-26.667 -5.33301 -54.834 -9.66602 -84.501 -12.999s-58.167 -5 -85.5 -5c-82.667 0 -153.667 20 -213 60s-105 98 -137 174h-25c-14 -74.667 -43.833 -132.334 -89.5 -173.001s-112.167 -61 -199.5 -61zM847.002 893.999c-46.667 0 -81.5 -24.167 -104.5 -72.5
s-35.833 -126.166 -38.5 -233.499h289c0 107.333 -11.5 185.166 -34.5 233.499s-60.167 72.5 -111.5 72.5zM353.002 149.999c53.333 0 94.668 20.165 124.001 60.498s44 96.833 44 169.5v74c-36.667 13.333 -81.334 20 -134.001 20c-56 0 -99.333 -14.667 -130 -44
s-46 -70.666 -46 -123.999c0 -49.333 12.5 -87.666 37.5 -114.999s59.833 -41 104.5 -41zM499.004 1248l170 380h212l-190 -380h-192z" />
    <glyph glyph-name="Oslashacute" unicode="&#x1fe;" 
d="M201 -134l-135.001 75l133 231c-82 120 -123 296 -123 528c0 493.333 174.667 740 524 740c112 0 206 -25.333 282 -76l97 168l135 -75l-118 -206c85.333 -123.333 128 -307 128 -551c0 -480 -174.667 -720 -524 -720c-115.333 0 -211.666 26 -288.999 78zM285.999 700
c0 -124.667 12.667 -227.667 38 -309l458 797c-48 45.333 -108.667 68 -182 68c-209.333 0 -314 -185.333 -314 -556zM599.999 164c209.333 0 314 178.667 314 536c0 136.667 -14.333 248 -43 334l-458 -799c48.667 -47.333 111 -71 187 -71zM468.999 1580l220 250h282
l-260 -250h-242z" />
    <glyph glyph-name="oslashacute" unicode="&#x1ff;" 
d="M301 -134l-105.001 75l87 156c-98 96 -147 240.333 -147 433c0 175.333 40.667 310.833 122 406.5s195.333 143.5 342 143.5c78 0 147 -13.667 207 -41l89 159l115 -65l-95 -169c98.667 -96 148 -240.667 148 -434c0 -174.667 -40.5 -310 -121.5 -406
s-195.167 -144 -342.5 -144c-79.333 0 -149.666 14.333 -210.999 43zM355.999 530c0 -92 13.666 -167.668 40.999 -227.001l312 560c-31.333 18 -67.666 27 -108.999 27c-78 0 -138.167 -31.167 -180.5 -93.5s-63.5 -151.166 -63.5 -266.499zM599.998 169.999
c78 0 138.166 31.333 180.499 94s63.5 151.334 63.5 266.001c0 93.333 -14 169.666 -42 228.999l-315 -560c32.667 -19.333 70.334 -29 113.001 -29zM498.997 1248l170 380h212l-190 -380h-192z" />
    <glyph glyph-name="Scommaaccent" unicode="&#x218;" 
d="M551 -20c-161.333 0 -301.999 25.999 -421.999 77.999l26 202c73.333 -31.333 144.166 -55.166 212.499 -71.499s134.833 -24.5 199.5 -24.5c184 0 276 66 276 198c0 84.667 -43.333 146.667 -130 186l-246 112c-96.667 44 -170.834 97 -222.501 159s-77.5 139 -77.5 231
c0 124 40 220 120 288s193 102 339 102c89.333 0 168.333 -14 237 -42s134.667 -73.667 198 -137l-140 -142c-53.333 48 -103.166 82.833 -149.499 104.5s-94.5 32.5 -144.5 32.5c-78 0 -138.5 -16.5 -181.5 -49.5s-64.5 -81.833 -64.5 -146.5c0 -46 12.333 -83.5 37 -112.5
s61 -54.833 109 -77.5l208 -98c105.333 -49.333 185.333 -105 240 -167s82 -141.667 82 -239c0 -257.333 -168.667 -386 -506 -386zM425.001 -480.001l77 340h222l-117 -340h-182z" />
    <glyph glyph-name="scommaaccent" unicode="&#x219;" 
d="M518 -20c-80 0 -148.499 2.33301 -205.499 7s-109.167 12.334 -156.5 23.001l24 192c70 -10.667 131.833 -18.667 185.5 -24s104.5 -8 152.5 -8c107.333 0 185.166 10.5 233.499 31.5s72.5 54.5 72.5 100.5c0 32 -8.5 55.833 -25.5 71.5s-43.167 27.834 -78.5 36.501
l-244 62c-104.667 26.667 -181.5 59.667 -230.5 99s-73.5 99 -73.5 179c0 116 44.5 200 133.5 252s232.5 78 430.5 78c97.333 0 190.666 -6.66699 279.999 -20l-22 -184c-54 5.33301 -101.667 9 -143 11s-81.666 3 -120.999 3c-118.667 0 -204.667 -10.167 -258 -30.5
s-80 -53.5 -80 -99.5c0 -30.667 11 -52.834 33 -66.501s55.667 -26.167 101 -37.5l196 -48c111.333 -26.667 192.833 -62.334 244.5 -107.001s77.5 -109.667 77.5 -195c0 -114 -41.667 -196.833 -125 -248.5s-217 -77.5 -401 -77.5zM425.001 -480l77 340h222l-117 -340h-182
z" />
    <glyph glyph-name="uni021A" unicode="&#x21a;" 
d="M500 0v1230h-420v190h1040v-190h-420v-1230h-200zM410 -480l77 340h222l-117 -340h-182z" />
    <glyph glyph-name="uni021B" unicode="&#x21b;" 
d="M782 -20c-160.667 0 -276.832 33.332 -348.499 99.999s-107.5 173.334 -107.5 320.001v486h-266v174h266v320h212v-320h482v-174h-482v-476c0 -84 20.5 -145 61.5 -183s108.5 -57 202.5 -57c33.333 0 68.666 1.83301 105.999 5.5s80 8.5 128 14.5l24 -186
c-46.667 -8 -92.167 -14 -136.5 -18s-91.5 -6 -141.5 -6zM470.002 -480.001l77 340h222l-117 -340h-182z" />
    <glyph glyph-name="uni0232" unicode="&#x232;" 
d="M500 0v503l-475 917h220l346 -710h18l346 710h220l-475 -917v-503h-200zM213 1580v188h774v-188h-774z" />
    <glyph glyph-name="uni0233" unicode="&#x233;" 
d="M477 0l-421.998 1060h220l346 -900h15l259 900h220l-306 -966c-40 -126.667 -84.833 -228.667 -134.5 -306s-108.334 -135.333 -176.001 -174s-148.834 -63.334 -243.501 -74.001l-180 -20l-10 190l166 20c84.667 10 154.5 35.667 209.5 77s101.5 105.666 139.5 192.999
h-103zM185.002 1248v188h860v-188h-860z" />
    <glyph glyph-name="uni0237" unicode="&#x237;" 
d="M180 -480l-10.001 187.999l200 18c107.333 10 185.166 41.333 233.499 94s72.5 133.334 72.5 242.001v824h-412v174h624v-966c0 -126 -18.667 -228.5 -56 -307.5s-95.666 -138.667 -174.999 -179s-181.666 -65.5 -306.999 -75.5z" />
    <glyph glyph-name="uni0259" unicode="&#x259;" 
d="M586 -20c-142.667 0 -253.333 43.498 -332 130.498s-118 212.833 -118 377.5c0 48.667 2 94 6 136h716c-18.667 88.667 -60.667 155.834 -126 201.501s-151.333 68.5 -258 68.5c-44 0 -87.333 -3.33301 -130 -10s-86 -16 -130 -28l-26 176
c63.333 20.667 120.833 33.834 172.5 39.501s97.5 8.5 137.5 8.5c181.333 0 321 -47.5 419 -142.5s147 -231.5 147 -409.5c0 -172.667 -41.667 -307.167 -125 -403.5s-201 -144.5 -353 -144.5zM584.001 165.998c82 0 147.332 25.667 195.999 77s77.334 124.333 86.001 219
h-538c0 -94.667 22.667 -167.667 68 -219s108 -77 188 -77z" />
    <glyph glyph-name="uni0272" unicode="&#x272;" 
d="M-188 -480l-10 188.001l130 18c82.667 11.333 142.667 43 180 95s56 132.333 56 241v998h192l17 -192h23c12 141.333 105.333 212 280 212c112 0 198.667 -34 260 -102s92 -164 92 -288v-690h-212v690c0 67.333 -16.667 119.166 -50 155.499s-80 54.5 -140 54.5
c-166.667 0 -250 -101.333 -250 -304v-502c0 -126 -16.333 -227.833 -49 -305.5s-83.5 -136.5 -152.5 -176.5s-157.833 -66.667 -266.5 -80z" />
    <glyph glyph-name="uni02BB" unicode="&#x2bb;" 
d="M432 780l270 690h162l-150 -690h-282z" />
    <glyph glyph-name="afii57929" unicode="&#x2bc;" 
d="M412 730l150 690h282l-270 -690h-162z" />
    <glyph glyph-name="circumflex" unicode="&#x2c6;" 
d="M274 1248l240 380h172l240 -380h-212l-114 226l-114 -226h-212z" />
    <glyph glyph-name="caron" unicode="&#x2c7;" 
d="M514 1248l-240 380h212l114 -226l114 226h212l-240 -380h-172z" />
    <glyph glyph-name="uni02C9" unicode="&#x2c9;" 
d="M170 1248v188h860v-188h-860z" />
    <glyph glyph-name="breve" unicode="&#x2d8;" 
d="M600 1238c-106 0 -188.167 28 -246.5 84s-87.5 135.333 -87.5 238v43h175v-43c0 -59.333 13.833 -105.166 41.5 -137.499s66.834 -48.5 117.501 -48.5c51.333 0 90.666 16.167 117.999 48.5s41 78.166 41 137.499v43h175v-43c0 -102.667 -29.167 -182 -87.5 -238
s-140.5 -84 -246.5 -84z" />
    <glyph glyph-name="dotaccent" unicode="&#x2d9;" 
d="M600 1238c-36.667 0 -68.167 13.167 -94.5 39.5s-39.5 57.833 -39.5 94.5c0 37.333 13.167 69 39.5 95s57.833 39 94.5 39c37.333 0 69 -13 95 -39s39 -57.667 39 -95c0 -36.667 -13 -68.167 -39 -94.5s-57.667 -39.5 -95 -39.5z" />
    <glyph glyph-name="ring" unicode="&#x2da;" 
d="M600 1198c-75.333 0 -133.833 18.833 -175.5 56.5s-62.5 90.834 -62.5 159.501s20.833 121.834 62.5 159.501s100.167 56.5 175.5 56.5s133.833 -18.833 175.5 -56.5s62.5 -90.834 62.5 -159.501s-20.833 -121.834 -62.5 -159.501s-100.167 -56.5 -175.5 -56.5zM600 1314
c64 0 96 33.333 96 100c0 67.333 -32 101 -96 101s-96 -33.667 -96 -101c0 -66.667 32 -100 96 -100z" />
    <glyph glyph-name="ogonek" unicode="&#x2db;" 
d="M652 -424c-76.667 0 -135.832 16.832 -177.499 50.499s-62.5 80.834 -62.5 141.501c0 49.333 11.667 90.666 35 123.999s56.333 56 99 68v70l240 2v-32c-70.667 0 -125.667 -14.667 -165 -44s-59 -70.666 -59 -123.999c0 -58.667 38.667 -88 116 -88
c23.333 0 50.666 3.66699 81.999 11l-18 -170c-30 -6 -60 -9 -90 -9z" />
    <glyph glyph-name="tilde" unicode="&#x2dc;" 
d="M235 1226v80c0 166.667 70 250 210 250c46 0 102 -16.333 168 -49l80 -39.5c16 -7.66699 31.333 -11.5 46 -11.5c36 0 54 31.333 54 94v60h172v-80c0 -160 -62.667 -240 -188 -240c-20.667 0 -45.5 4.16699 -74.5 12.5s-61.833 22.5 -98.5 42.5
c-54 30 -94.333 45 -121 45c-49.333 0 -74 -34.667 -74 -104v-60h-174z" />
    <glyph glyph-name="hungarumlaut" unicode="&#x2dd;" 
d="M599 1248l150 380h222l-170 -380h-202zM219 1248l150 380h222l-170 -380h-202z" />
    <glyph glyph-name="gravecomb" unicode="&#x300;" horiz-adv-x="0" 
d="M479 1248l-190 380h212l170 -380h-192z" />
    <glyph glyph-name="acutecomb" unicode="&#x301;" horiz-adv-x="0" 
d="M469 1248l170 380h212l-190 -380h-192z" />
    <glyph glyph-name="uni0302" unicode="&#x302;" horiz-adv-x="0" 
d="M274 1248l240 380h172l240 -380h-212l-114 226l-114 -226h-212z" />
    <glyph glyph-name="tildecomb" unicode="&#x303;" horiz-adv-x="0" 
d="M235 1226v80c0 166.667 70 250 210 250c46 0 102 -16.333 168 -49l80 -39.5c16 -7.66699 31.333 -11.5 46 -11.5c36 0 54 31.333 54 94v60h172v-80c0 -160 -62.667 -240 -188 -240c-20.667 0 -45.5 4.16699 -74.5 12.5s-61.833 22.5 -98.5 42.5
c-54 30 -94.333 45 -121 45c-49.333 0 -74 -34.667 -74 -104v-60h-174z" />
    <glyph glyph-name="uni0304" unicode="&#x304;" horiz-adv-x="0" 
d="M170 1248v188h860v-188h-860z" />
    <glyph glyph-name="uni0306" unicode="&#x306;" horiz-adv-x="0" 
d="M600 1238c-106 0 -188.167 28 -246.5 84s-87.5 135.333 -87.5 238v43h175v-43c0 -59.333 13.833 -105.166 41.5 -137.499s66.834 -48.5 117.501 -48.5c51.333 0 90.666 16.167 117.999 48.5s41 78.166 41 137.499v43h175v-43c0 -102.667 -29.167 -182 -87.5 -238
s-140.5 -84 -246.5 -84z" />
    <glyph glyph-name="uni0307" unicode="&#x307;" horiz-adv-x="0" 
d="M600 1238c-36.667 0 -68.167 13.167 -94.5 39.5s-39.5 57.833 -39.5 94.5c0 37.333 13.167 69 39.5 95s57.833 39 94.5 39c37.333 0 69 -13 95 -39s39 -57.667 39 -95c0 -36.667 -13 -68.167 -39 -94.5s-57.667 -39.5 -95 -39.5z" />
    <glyph glyph-name="uni0308" unicode="&#x308;" horiz-adv-x="0" 
d="M810 1238c-36.667 0 -68.167 13.167 -94.5 39.5s-39.5 57.833 -39.5 94.5c0 37.333 13.167 69 39.5 95s57.833 39 94.5 39c37.333 0 69 -13 95 -39s39 -57.667 39 -95c0 -36.667 -13 -68.167 -39 -94.5s-57.667 -39.5 -95 -39.5zM390 1238
c-36.667 0 -68.167 13.167 -94.5 39.5s-39.5 57.833 -39.5 94.5c0 37.333 13.167 69 39.5 95s57.833 39 94.5 39c37.333 0 69 -13 95 -39s39 -57.667 39 -95c0 -36.667 -13 -68.167 -39 -94.5s-57.667 -39.5 -95 -39.5z" />
    <glyph glyph-name="hookabovecomb" unicode="&#x309;" horiz-adv-x="0" 
d="M502 1248l-0.00195312 35.999c0 35.333 9 63.5 27 84.5s35.833 40.167 53.5 57.5s26.5 37 26.5 59c0 17.333 -5.66699 31 -17 41s-26.333 15 -45 15c-48.667 0 -90 -14.333 -124 -43l-67 119c20.667 22.667 50.334 40.834 89.001 54.501s79.667 20.5 123 20.5
c62.667 0 112.834 -17.667 150.501 -53s56.5 -82 56.5 -140c0 -32 -6 -57.833 -18 -77.5s-25.667 -37 -41 -52s-29 -31 -41 -48s-18 -38.5 -18 -64.5v-9h-155z" />
    <glyph glyph-name="uni030A" unicode="&#x30a;" horiz-adv-x="0" 
d="M600 1198c-75.333 0 -133.833 18.833 -175.5 56.5s-62.5 90.834 -62.5 159.501s20.833 121.834 62.5 159.501s100.167 56.5 175.5 56.5s133.833 -18.833 175.5 -56.5s62.5 -90.834 62.5 -159.501s-20.833 -121.834 -62.5 -159.501s-100.167 -56.5 -175.5 -56.5zM600 1314
c64 0 96 33.333 96 100c0 67.333 -32 101 -96 101s-96 -33.667 -96 -101c0 -66.667 32 -100 96 -100z" />
    <glyph glyph-name="uni030B" unicode="&#x30b;" horiz-adv-x="0" 
d="M599 1248l150 380h222l-170 -380h-202zM219 1248l150 380h222l-170 -380h-202z" />
    <glyph glyph-name="uni030C" unicode="&#x30c;" horiz-adv-x="0" 
d="M514 1248l-240 380h212l114 -226l114 226h212l-240 -380h-172z" />
    <glyph glyph-name="uni0312" unicode="&#x312;" horiz-adv-x="0" 
d="M492 1208l90 380h172l-50 -380h-212z" />
    <glyph glyph-name="uni031B" unicode="&#x31b;" horiz-adv-x="0" 
d="M501 895l-50 165l60 10c124.667 20.667 187 111.667 187 273h210c0 -253.333 -115.667 -399.333 -347 -438z" />
    <glyph glyph-name="dotbelowcomb" unicode="&#x323;" horiz-adv-x="0" 
d="M600 -420c-36.667 0 -68.167 13.167 -94.5 39.5s-39.5 57.833 -39.5 94.5c0 37.333 13.167 69 39.5 95s57.833 39 94.5 39c37.333 0 69 -13 95 -39s39 -57.667 39 -95c0 -36.667 -13 -68.167 -39 -94.5s-57.667 -39.5 -95 -39.5z" />
    <glyph glyph-name="uni0326" unicode="&#x326;" horiz-adv-x="0" 
d="M415 -480l77 340h222l-117 -340h-182z" />
    <glyph glyph-name="uni0327" unicode="&#x327;" horiz-adv-x="0" 
d="M514 -480v150c125.333 0 188 24 188 72c0 45.333 -54 68 -162 68l84 239l126 -37l-30 -112c114.667 -24 172 -79.667 172 -167c0 -142 -126 -213 -378 -213z" />
    <glyph glyph-name="uni0328" unicode="&#x328;" horiz-adv-x="0" 
d="M652 -424c-76.667 0 -135.832 16.832 -177.499 50.499s-62.5 80.834 -62.5 141.501c0 49.333 11.667 90.666 35 123.999s56.333 56 99 68v70l240 2v-32c-70.667 0 -125.667 -14.667 -165 -44s-59 -70.666 -59 -123.999c0 -58.667 38.667 -88 116 -88
c23.333 0 50.666 3.66699 81.999 11l-18 -170c-30 -6 -60 -9 -90 -9z" />
    <glyph glyph-name="uni0374" unicode="&#x374;" 
d="M412 730l150 690h282l-270 -690h-162z" />
    <glyph glyph-name="uni0375" unicode="&#x375;" 
d="M402 -436l80 690h232l-120 -690h-192z" />
    <glyph glyph-name="uni037E" unicode="&#x37e;" 
d="M600 784c-40.667 0 -75.5 14.5 -104.5 43.5s-43.5 63.833 -43.5 104.5c0 41.333 14.5 76.333 43.5 105s63.833 43 104.5 43c41.333 0 76.333 -14.333 105 -43s43 -63.667 43 -105c0 -40.667 -14.333 -75.5 -43 -104.5s-63.667 -43.5 -105 -43.5zM402 -436l80 690h232
l-120 -690h-192z" />
    <glyph glyph-name="tonos" unicode="&#x384;" 
d="M469 1248l170 380h212l-190 -380h-192z" />
    <glyph glyph-name="dieresistonos" unicode="&#x385;" 
d="M458 1248l130 380h212l-150 -380h-192zM270 1238c-36.667 0 -68.167 13.167 -94.5 39.5s-39.5 57.833 -39.5 94.5c0 37.333 13.167 69 39.5 95s57.833 39 94.5 39c37.333 0 69 -13 95 -39s39 -57.667 39 -95c0 -36.667 -13 -68.167 -39 -94.5s-57.667 -39.5 -95 -39.5z
M940 1238c-36.667 0 -68.167 13.167 -94.5 39.5s-39.5 57.833 -39.5 94.5c0 37.333 13.167 69 39.5 95s57.833 39 94.5 39c37.333 0 69 -13 95 -39s39 -57.667 39 -95c0 -36.667 -13 -68.167 -39 -94.5s-57.667 -39.5 -95 -39.5z" />
    <glyph glyph-name="Alphatonos" unicode="&#x386;" 
d="M245 0l310 1420h290l310 -1420h-210l-65 346h-360l-65 -346h-210zM-1 1040l90 380h212l-110 -380h-192zM691 1248l-135 -712h288l-135 712h-18z" />
    <glyph glyph-name="anoteleia" unicode="&#x387;" 
d="M600 784c-40.667 0 -75.5 14.5 -104.5 43.5s-43.5 63.833 -43.5 104.5c0 41.333 14.5 76.333 43.5 105s63.833 43 104.5 43c41.333 0 76.333 -14.333 105 -43s43 -63.667 43 -105c0 -40.667 -14.333 -75.5 -43 -104.5s-63.667 -43.5 -105 -43.5z" />
    <glyph glyph-name="Epsilontonos" unicode="&#x388;" 
d="M360 0v1420h740v-190h-540v-424h360v-190h-360v-426h540v-190h-740zM-1 1040l90 380h212l-110 -380h-192z" />
    <glyph glyph-name="Etatonos" unicode="&#x389;" 
d="M340 0v1420h200v-618h320v618h200v-1420h-200v612h-320v-612h-200zM-1 1040l90 380h212l-110 -380h-192z" />
    <glyph glyph-name="Iotatonos" unicode="&#x38a;" 
d="M368 0v190h231v1040h-231v190h664v-190h-233v-1040h233v-190h-664zM-1 1040l90 380h212l-110 -380h-192z" />
    <glyph glyph-name="Omicrontonos" unicode="&#x38c;" 
d="M700 -20c-282.667 0 -424 240 -424 720c0 493.333 141.333 740 424 740s424 -246.667 424 -740c0 -480 -141.333 -720 -424 -720zM-1 1040l90 380h212l-110 -380h-192zM700 164c142.667 0 214 178.667 214 536c0 370.667 -71.333 556 -214 556s-214 -185.333 -214 -556
c0 -357.333 71.333 -536 214 -536z" />
    <glyph glyph-name="Upsilontonos" unicode="&#x38e;" 
d="M653 0v513l-317 907h220l186 -710h18l196 710h220l-323 -908v-512h-200zM-1 1040l90 380h212l-110 -380h-192z" />
    <glyph glyph-name="Omegatonos" unicode="&#x38f;" 
d="M304 0v186l236 -1v18c-176 39.333 -264 225 -264 557c0 453.333 141.333 680 424 680s424 -226.667 424 -680c0 -337.333 -80 -522 -240 -554v-21l212 1v-186h-342v185c106.667 54 160 245.667 160 575c0 330.667 -71.333 496 -214 496s-214 -165.333 -214 -496
c0 -323.333 61.333 -515 184 -575v-185h-366zM-1 1040l90 380h212l-110 -380h-192z" />
    <glyph glyph-name="iotadieresistonos" unicode="&#x390;" 
d="M764 -20c-118 0 -203.168 33.333 -255.501 100s-78.5 173.334 -78.5 320.001v484h-300v176h512v-650c0 -84 12.5 -145 37.5 -183s79.833 -57 164.5 -57c52 0 117.333 12.667 196 38l24 -186c-51.333 -14.667 -100.666 -25.334 -147.999 -32.001s-98 -10 -152 -10z
M415.999 1248l130 380h212l-150 -380h-192zM227.999 1238c-36.667 0 -68.167 13.167 -94.5 39.5s-39.5 57.833 -39.5 94.5c0 37.333 13.167 69 39.5 95s57.833 39 94.5 39c37.333 0 69 -13 95 -39s39 -57.667 39 -95c0 -36.667 -13 -68.167 -39 -94.5
s-57.667 -39.5 -95 -39.5zM897.999 1238c-36.667 0 -68.167 13.167 -94.5 39.5s-39.5 57.833 -39.5 94.5c0 37.333 13.167 69 39.5 95s57.833 39 94.5 39c37.333 0 69 -13 95 -39s39 -57.667 39 -95c0 -36.667 -13 -68.167 -39 -94.5s-57.667 -39.5 -95 -39.5z" />
    <glyph glyph-name="Alpha" unicode="&#x391;" 
d="M45 0l410 1420h290l410 -1420h-210l-93 346h-504l-93 -346h-210zM591 1248l-192 -712h402l-192 712h-18z" />
    <glyph glyph-name="Beta" unicode="&#x392;" 
d="M160 0v1420h422c144 0 255.333 -31.167 334 -93.5s118 -151.166 118 -266.499c0 -86.667 -29.5 -155.834 -88.5 -207.501s-142.833 -83.167 -251.5 -94.5v-12c140 -2 248.333 -34 325 -96s115 -148.667 115 -260c0 -124 -37.333 -220 -112 -288s-180.667 -102 -318 -102
h-544zM532 1230l-172 -0.000976562v-385h186c88 0 156.333 16.833 205 50.5s73 81.834 73 144.501c0 61.333 -25.333 108.333 -76 141s-122.667 49 -216 49zM632 654.999h-272v-465h286c88 0 156.333 20.167 205 60.5s73 96.833 73 169.5c0 74.667 -25.333 132.5 -76 173.5
s-122.667 61.5 -216 61.5z" />
    <glyph glyph-name="Gamma" unicode="&#x393;" 
d="M180 0v1420h910v-190h-710v-1230h-200z" />
    <glyph glyph-name="Delta" unicode="&#x394;" 
d="M45 0l410 1420h290l410 -1420h-1110zM591 1248l-285 -1058h588l-285 1058h-18z" />
    <glyph glyph-name="Epsilon" unicode="&#x395;" 
d="M160 0v1420h940v-190h-740v-424h560v-190h-560v-426h740v-190h-940z" />
    <glyph glyph-name="Zeta" unicode="&#x396;" 
d="M150 0v176l656 1054h-656v190h900v-190l-676 -1054h696v-176h-920z" />
    <glyph glyph-name="Eta" unicode="&#x397;" 
d="M140 0v1420h200v-618h520v618h200v-1420h-200v612h-520v-612h-200z" />
    <glyph glyph-name="Theta" unicode="&#x398;" 
d="M600 -20c-349.333 0 -524 240 -524 720c0 493.333 174.667 740 524 740s524 -246.667 524 -740c0 -480 -174.667 -720 -524 -720zM600 1256c-188.667 0 -292.332 -150.667 -310.999 -452h622c-18.667 301.333 -122.334 452 -311.001 452zM600.002 164
c192 0 296 150.667 312 452h-624c16 -301.333 120 -452 312 -452z" />
    <glyph glyph-name="Iota" unicode="&#x399;" 
d="M168 0v190h331v1040h-331v190h864v-190h-333v-1040h333v-190h-864z" />
    <glyph glyph-name="Kappa" unicode="&#x39a;" 
d="M160 0l-0.00195312 1420h200v-768c92.667 8.66699 172.834 35.667 240.501 81s123.5 103.833 167.5 175.5s76.667 151.5 98 239.5s32 178.667 32 272h206c0 -146 -24.5 -285.333 -73.5 -418s-119.833 -244.667 -212.5 -336l354 -666h-242l-281 541
c-42.667 -23.333 -88.167 -42.333 -136.5 -57s-99.166 -24.334 -152.499 -29.001v-455h-200z" />
    <glyph glyph-name="Lambda" unicode="&#x39b;" 
d="M45 0l410 1420h290l410 -1420h-220l-326 1248h-18l-326 -1248h-220z" />
    <glyph glyph-name="Mu" unicode="&#x39c;" 
d="M128 0v1420h302l162 -610h16l162 610h302v-1420h-192v1168h-26l-162 -588h-184l-162 588h-26v-1168h-192z" />
    <glyph glyph-name="Nu" unicode="&#x39d;" 
d="M148 0v1420h252l440 -1080h20v1080h192v-1420h-252l-440 1080h-20v-1080h-192z" />
    <glyph glyph-name="Xi" unicode="&#x39e;" 
d="M100 1230v190h1000v-190h-1000zM190 616v190h820v-190h-820zM100 0v190h1000v-190h-1000z" />
    <glyph glyph-name="Omicron" unicode="&#x39f;" 
d="M600 -20c-349.333 0 -524 240 -524 720c0 493.333 174.667 740 524 740s524 -246.667 524 -740c0 -480 -174.667 -720 -524 -720zM600 164c209.333 0 314 178.667 314 536c0 370.667 -104.667 556 -314 556s-314 -185.333 -314 -556c0 -357.333 104.667 -536 314 -536z
" />
    <glyph glyph-name="Pi" unicode="&#x3a0;" 
d="M140 0v1420h920v-1420h-200v1230h-520v-1230h-200z" />
    <glyph glyph-name="Rho" unicode="&#x3a1;" 
d="M160 0v1420h418c172.667 0 306.167 -41.833 400.5 -125.5s141.5 -201.834 141.5 -354.501c0 -158.667 -47.167 -281.667 -141.5 -369s-227.833 -131 -400.5 -131h-218v-440h-200zM578 1230h-218v-600h218c105.333 0 187 25.333 245 76s87 122 87 214
c0 98.667 -29 175 -87 229s-139.667 81 -245 81z" />
    <glyph glyph-name="Sigma" unicode="&#x3a3;" 
d="M150 0v176l441 537l-441 517v190h900v-190h-629l426 -517l-449 -537h672v-176h-920z" />
    <glyph glyph-name="Tau" unicode="&#x3a4;" 
d="M500 0v1230h-420v190h1040v-190h-420v-1230h-200z" />
    <glyph glyph-name="Upsilon" unicode="&#x3a5;" 
d="M500 0v503l-475 917h220l346 -710h18l346 710h220l-475 -917v-503h-200z" />
    <glyph glyph-name="Phi" unicode="&#x3a6;" 
d="M514 -20v164c-298.667 29.333 -448 218 -448 566c0 360 149.333 555.333 448 586v164h170v-164c300 -29.333 450 -224.666 450 -585.999c0 -348.667 -150 -537.334 -450 -566.001v-164h-170zM934 710c0 250.667 -86.667 390.667 -260 420v-820
c173.333 28 260 161.333 260 400zM266 710c0 -238 86 -371.333 258 -400v820c-172 -30 -258 -170 -258 -420z" />
    <glyph glyph-name="Chi" unicode="&#x3a7;" 
d="M66 0l435 703l-435 717h230l305 -544l305 544h230l-435 -717l435 -703h-230l-305 533l-305 -533h-230z" />
    <glyph glyph-name="Psi" unicode="&#x3a8;" 
d="M499 0v315.999c-282 32.667 -423 210.667 -423 534v570h200v-570c0 -197.333 74.333 -312.666 223 -345.999v916h200v-916c150 32.667 225 148 225 346v570h200v-570c0 -324 -141.667 -502.333 -425 -535v-315h-200z" />
    <glyph glyph-name="Omega" unicode="&#x3a9;" 
d="M104 0v185.999h246v17c-182.667 38.667 -274 224.334 -274 557.001c0 453.333 174.667 680 524 680s524 -226.667 524 -680c0 -337.333 -83.333 -522 -250 -554v-20h222v-186h-402v186c146.667 52.667 220 244 220 574c0 330.667 -104.667 496 -314 496
s-314 -165.333 -314 -496c0 -324 81.333 -515.333 244 -574v-186h-426z" />
    <glyph glyph-name="Iotadieresis" unicode="&#x3aa;" 
d="M168 0v190h331v1040h-331v190h864v-190h-333v-1040h333v-190h-864zM808 1580c-36.667 0 -68.167 13.167 -94.5 39.5s-39.5 57.833 -39.5 94.5c0 37.333 13.167 69 39.5 95s57.833 39 94.5 39c37.333 0 69 -13 95 -39s39 -57.667 39 -95c0 -36.667 -13 -68.167 -39 -94.5
s-57.667 -39.5 -95 -39.5zM388 1580c-36.667 0 -68.167 13.167 -94.5 39.5s-39.5 57.833 -39.5 94.5c0 37.333 13.167 69 39.5 95s57.833 39 94.5 39c37.333 0 69 -13 95 -39s39 -57.667 39 -95c0 -36.667 -13 -68.167 -39 -94.5s-57.667 -39.5 -95 -39.5z" />
    <glyph glyph-name="Upsilondieresis" unicode="&#x3ab;" 
d="M500 0v503l-475 917h220l346 -710h18l346 710h220l-475 -917v-503h-200zM808 1580c-36.667 0 -68.167 13.167 -94.5 39.5s-39.5 57.833 -39.5 94.5c0 37.333 13.167 69 39.5 95s57.833 39 94.5 39c37.333 0 69 -13 95 -39s39 -57.667 39 -95
c0 -36.667 -13 -68.167 -39 -94.5s-57.667 -39.5 -95 -39.5zM388 1580c-36.667 0 -68.167 13.167 -94.5 39.5s-39.5 57.833 -39.5 94.5c0 37.333 13.167 69 39.5 95s57.833 39 94.5 39c37.333 0 69 -13 95 -39s39 -57.667 39 -95c0 -36.667 -13 -68.167 -39 -94.5
s-57.667 -39.5 -95 -39.5z" />
    <glyph glyph-name="alphatonos" unicode="&#x3ac;" 
d="M498 -20c-134 0 -237.832 46.5 -311.499 139.5s-110.5 226.5 -110.5 400.5c0 178 37 315.833 111 413.5s178.333 146.5 313 146.5c168.667 0 262 -70.667 280 -212h20v192h212v-868l146 -22v-170l-340 -10l-12 174h-26c-6.66699 -60.667 -35.334 -106.5 -86.001 -137.5
s-116 -46.5 -196 -46.5zM286.001 520c0 -240 82 -360 246 -360c178.667 0 268 60 268 180v256c0 202.667 -90 304 -270 304c-78 0 -138.167 -33 -180.5 -99s-63.5 -159.667 -63.5 -281zM469.001 1248l170 380h212l-190 -380h-192z" />
    <glyph glyph-name="epsilontonos" unicode="&#x3ad;" 
d="M626 -20c-306.667 0 -460 100 -460 300c0 138.667 102 222 306 250v20c-184 46.667 -276 137.334 -276 272.001c0 172 148.667 258 446 258c188.667 0 324.667 -19.333 408 -58l-65 -181c-92 36.667 -199 55 -321 55c-164.667 0 -247 -41.333 -247 -124
c0 -93.333 139 -145.333 417 -156l-24 -181h-32c-260.667 0 -391 -48.333 -391 -145c0 -84 82.333 -126 247 -126c82.667 0 151.167 6.33301 205.5 19s102.833 24.667 145.5 36l55 -191c-53.333 -14.667 -114.833 -26.334 -184.5 -35.001s-146.167 -13 -229.5 -13zM539 1248
l170 380h212l-190 -380h-192z" />
    <glyph glyph-name="etatonos" unicode="&#x3ae;" 
d="M168 0v1060h192l17 -192h23c12 141.333 105.333 212 280 212c112 0 198.667 -34 260 -102s92 -164 92 -288v-1150h-212v1150c0 67.333 -16.667 119.166 -50 155.499s-80 54.5 -140 54.5c-166.667 0 -250 -101.333 -250 -304v-596h-212zM489 1248l170 380h212l-190 -380
h-192z" />
    <glyph glyph-name="iotatonos" unicode="&#x3af;" 
d="M764 -20c-118 0 -203.168 33.333 -255.501 100s-78.5 173.334 -78.5 320.001v484h-300v176h512v-650c0 -84 12.5 -145 37.5 -183s79.833 -57 164.5 -57c52 0 117.333 12.667 196 38l24 -186c-51.333 -14.667 -100.666 -25.334 -147.999 -32.001s-98 -10 -152 -10z
M434.999 1248l170 380h212l-190 -380h-192z" />
    <glyph glyph-name="upsilondieresistonos" unicode="&#x3b0;" 
d="M640 -20c-269.333 0 -404 143.333 -404 430l-1 320c0 51.333 -8.33301 87.5 -25 108.5s-45.667 31.5 -87 31.5h-118v190h158c104.667 0 178.167 -20.833 220.5 -62.5s63.5 -114.167 63.5 -217.5l1 -370c0 -160 64 -240 192 -240s192 80 192 240v650h212v-650
c0 -286.667 -134.667 -430 -404 -430zM480 1248l130 380h212l-150 -380h-192zM292 1238c-36.667 0 -68.167 13.167 -94.5 39.5s-39.5 57.833 -39.5 94.5c0 37.333 13.167 69 39.5 95s57.833 39 94.5 39c37.333 0 69 -13 95 -39s39 -57.667 39 -95
c0 -36.667 -13 -68.167 -39 -94.5s-57.667 -39.5 -95 -39.5zM962 1238c-36.667 0 -68.167 13.167 -94.5 39.5s-39.5 57.833 -39.5 94.5c0 37.333 13.167 69 39.5 95s57.833 39 94.5 39c37.333 0 69 -13 95 -39s39 -57.667 39 -95c0 -36.667 -13 -68.167 -39 -94.5
s-57.667 -39.5 -95 -39.5z" />
    <glyph glyph-name="alpha" unicode="&#x3b1;" 
d="M498 -20c-134 0 -237.832 46.5 -311.499 139.5s-110.5 226.5 -110.5 400.5c0 178 37 315.833 111 413.5s178.333 146.5 313 146.5c168.667 0 262 -70.667 280 -212h20v192h212v-868l146 -22v-170l-340 -10l-12 174h-26c-6.66699 -60.667 -35.334 -106.5 -86.001 -137.5
s-116 -46.5 -196 -46.5zM286.001 520c0 -240 82 -360 246 -360c178.667 0 268 60 268 180v256c0 202.667 -90 304 -270 304c-78 0 -138.167 -33 -180.5 -99s-63.5 -159.667 -63.5 -281z" />
    <glyph glyph-name="beta" unicode="&#x3b2;" 
d="M160 -460l-0.000976562 1403c0 331.333 150.667 497 452 497c134 0 237.833 -31.5 311.5 -94.5s110.5 -151.5 110.5 -265.5c0 -84 -24.333 -151.833 -73 -203.5s-117.667 -83.834 -207 -96.501v-14c102 -2.66699 180.833 -35.834 236.5 -99.501s83.5 -152.5 83.5 -266.5
c0 -133.333 -36.667 -236.666 -110 -309.999s-176.666 -110 -309.999 -110c-76 0 -136.667 17 -182 51s-72 82.333 -80 145h-20v-636h-212zM611.999 1250c-160 0 -240 -103.331 -240 -309.998v-470c0 -200 81.333 -300 244 -300c75.333 0 133.833 21.833 175.5 65.5
s62.5 105.167 62.5 184.5c0 81.333 -21 144.166 -63 188.499s-101.667 66.5 -179 66.5h-104v190h98c66 0 117.167 18 153.5 54s54.5 86.333 54.5 151c0 57.333 -17.667 101.666 -53 132.999s-85 47 -149 47z" />
    <glyph glyph-name="gamma" unicode="&#x3b3;" 
d="M286 -460c3.33301 65.333 5.83496 137.168 7.50195 215.501s2.5 163.166 2.5 254.499c0 142 -3.83301 262.333 -11.5 361s-21.167 181.667 -40.5 249s-45.833 124.833 -79.5 172.5s-76.5 91.834 -128.5 132.501l122 175c63.333 -46 116.666 -94.833 159.999 -146.5
s78.166 -111.667 104.499 -180s46 -150 59 -245s21.167 -209.167 24.5 -342.5c281.333 68.667 422 360 422 874h212c0 -650.667 -210.667 -1007.33 -632 -1070c0 -87.333 -0.833008 -168.333 -2.5 -243s-4.16699 -143.667 -7.5 -207h-212z" />
    <glyph glyph-name="delta" unicode="&#x3b4;" 
d="M603 -20c-96 0 -179.835 18.499 -251.502 55.499s-127.167 89 -166.5 156s-59 145.167 -59 234.5c0 111.333 29.5 199.333 88.5 264s142.833 100 251.5 106v22c-92.667 30.667 -160.167 68.5 -202.5 113.5s-63.5 101.5 -63.5 169.5c0 108 37.833 191.5 113.5 250.5
s182.5 88.5 320.5 88.5c146.667 0 280 -35.667 400 -107l-102 -163c-84.667 53.333 -184 80 -298 80c-78 0 -134.5 -10.167 -169.5 -30.5s-52.5 -53.166 -52.5 -98.499c0 -38.667 15.333 -70 46 -94s83.334 -46.333 158.001 -67
c99.333 -27.333 183.833 -59.666 253.5 -96.999s122.834 -87.833 159.501 -151.5s55 -148.834 55 -255.501c0 -95.333 -20 -178.833 -60 -250.5s-96 -127.167 -168 -166.5s-156.333 -59 -253 -59zM604.998 163.999c80 0 144.167 28.501 192.5 85.501s72.5 132.5 72.5 226.5
c0 81.333 -25 146.666 -75 195.999s-116.333 74 -199 74c-76.667 0 -138.5 -26.5 -185.5 -79.5s-70.5 -123.167 -70.5 -210.5c0 -88 24.167 -158.667 72.5 -212s112.5 -80 192.5 -80z" />
    <glyph glyph-name="epsilon" unicode="&#x3b5;" 
d="M626 -20c-306.667 0 -460 100 -460 300c0 138.667 102 222 306 250v20c-184 46.667 -276 137.334 -276 272.001c0 172 148.667 258 446 258c188.667 0 324.667 -19.333 408 -58l-65 -181c-92 36.667 -199 55 -321 55c-164.667 0 -247 -41.333 -247 -124
c0 -93.333 139 -145.333 417 -156l-24 -181h-32c-260.667 0 -391 -48.333 -391 -145c0 -84 82.333 -126 247 -126c82.667 0 151.167 6.33301 205.5 19s102.833 24.667 145.5 36l55 -191c-53.333 -14.667 -114.833 -26.334 -184.5 -35.001s-146.167 -13 -229.5 -13z" />
    <glyph glyph-name="zeta" unicode="&#x3b6;" 
d="M767 -480l-95 179.999c133.333 38.667 200 96.667 200 174c0 33.333 -12.167 59.333 -36.5 78s-58.833 28 -103.5 28c-176.667 0 -313.5 45 -410.5 135s-145.5 219 -145.5 387c0 310 208.667 571.667 626 785v27h-570v186h844v-186
c-242 -154 -417.5 -294.333 -526.5 -421s-163.5 -253.667 -163.5 -381c0 -111.333 34.833 -196.166 104.5 -254.499s168.167 -87.5 295.5 -87.5c94 0 166.833 -25.833 218.5 -77.5s77.5 -124.5 77.5 -218.5c0 -182 -105 -300 -315 -354z" />
    <glyph glyph-name="eta" unicode="&#x3b7;" 
d="M168 0v1060h192l17 -192h23c12 141.333 105.333 212 280 212c112 0 198.667 -34 260 -102s92 -164 92 -288v-1150h-212v1150c0 67.333 -16.667 119.166 -50 155.499s-80 54.5 -140 54.5c-166.667 0 -250 -101.333 -250 -304v-596h-212z" />
    <glyph glyph-name="theta" unicode="&#x3b8;" 
d="M600 -20c-162.667 0 -280.667 57.667 -354 173s-110 301 -110 557s36.667 441.667 110 557s191.333 173 354 173s280.667 -57.667 354 -173s110 -301 110 -557s-36.667 -441.667 -110 -557s-191.333 -173 -354 -173zM600 1256c-80.667 0 -141.332 -35.5 -181.999 -106.5
s-64 -184.833 -70 -341.5h504c-6 156.667 -29.333 270.5 -70 341.5s-101.334 106.5 -182.001 106.5zM600.002 164c81.333 0 142.168 36 182.501 108s63.5 187.333 69.5 346h-504c6 -158.667 29.167 -274 69.5 -346s101.166 -108 182.499 -108z" />
    <glyph glyph-name="iota" unicode="&#x3b9;" 
d="M764 -20c-118 0 -203.168 33.333 -255.501 100s-78.5 173.334 -78.5 320.001v484h-300v176h512v-650c0 -84 12.5 -145 37.5 -183s79.833 -57 164.5 -57c52 0 117.333 12.667 196 38l24 -186c-51.333 -14.667 -100.666 -25.334 -147.999 -32.001s-98 -10 -152 -10z" />
    <glyph glyph-name="kappa" unicode="&#x3ba;" 
d="M168 0v1060h212v-889h22c10 73.333 28.167 143.333 54.5 210s63.5 130 111.5 190l406 509l153 -119l-325 -408l358 -553h-237l-254 388l-309 -388h-192z" />
    <glyph glyph-name="lambda" unicode="&#x3bb;" 
d="M67 0l436.998 1054l-25 86c-18 63.333 -40.5 107.5 -67.5 132.5s-59.833 37.5 -98.5 37.5c-18 0 -38.667 -2.66699 -62 -8l-24 186c34 8 69.333 12 106 12c85.333 0 154 -18.667 206 -56s92 -105.333 120 -204l258 -900c18 -63.333 40.833 -107.5 68.5 -132.5
s61.834 -37.5 102.501 -37.5c18 0 38.667 2.66699 62 8l24 -186c-34 -8 -69.333 -12 -106 -12c-86.667 0 -156.667 19.5 -210 58.5s-94.666 109.833 -123.999 212.5l-181 633l-26 -8c20.667 -87.333 17.667 -169 -9 -245l-224 -631h-227z" />
    <glyph glyph-name="mu" unicode="&#x3bc;" 
d="M156 -460v1540h212v-650c0 -76.667 17.333 -135.834 52 -177.501s83.334 -62.5 146.001 -62.5c77.333 0 135.666 23 174.999 69s59 123 59 231v590h212v-888l146 -22v-170l-340 -10l-15 214h-19c-28 -149.333 -100.667 -224 -218 -224c-108 0 -176.333 74.667 -205 224
h-19l36 -664h-222z" />
    <glyph glyph-name="nu" unicode="&#x3bd;" 
d="M444 0l-113 389.999c-26 89.333 -52.5 168.5 -79.5 237.5s-59.667 126.833 -98 173.5s-87.5 81.334 -147.5 104.001l122 175c102.667 -38 181.167 -100.833 235.5 -188.5s98.5 -198.167 132.5 -331.5l96 -380h12l290 880h226l-384 -1060h-292z" />
    <glyph glyph-name="xi" unicode="&#x3be;" 
d="M614 -20c-305.333 0 -458.001 113.332 -458.001 339.999c0 104.667 31 188.334 93 251.001s166.333 104.667 313 126v18c-137.333 10 -234.333 40.5 -291 91.5s-85 122.833 -85 215.5c0 77.333 21.333 137.833 64 181.5s106.667 73.5 192 89.5v21h-300v186h904v-186h-222
c-285.333 -10 -428 -94 -428 -252c0 -178 199.333 -267 598 -267l-14 -190l-166 -4c-298.667 -18.667 -448 -105.667 -448 -261c0 -113.333 105 -170 315 -170h95c94 0 166.833 -25.833 218.5 -77.5s77.5 -124.5 77.5 -218.5c0 -182 -105 -300 -315 -354l-75 180
c56.667 19.333 100.834 43.5 132.501 72.5s47.5 62.833 47.5 101.5c0 33.333 -12.167 59.333 -36.5 78s-58.833 28 -103.5 28h-108z" />
    <glyph glyph-name="omicron" unicode="&#x3bf;" 
d="M600 -20c-146.667 0 -260.667 48 -342 144s-122 231.333 -122 406c0 175.333 40.667 310.833 122 406.5s195.333 143.5 342 143.5c147.333 0 261.5 -47.833 342.5 -143.5s121.5 -231.167 121.5 -406.5c0 -174.667 -40.5 -310 -121.5 -406s-195.167 -144 -342.5 -144z
M600 170c78 0 138.167 31.333 180.5 94s63.5 151.334 63.5 266.001c0 115.333 -21.167 204.166 -63.5 266.499s-102.5 93.5 -180.5 93.5s-138.167 -31.167 -180.5 -93.5s-63.5 -151.166 -63.5 -266.499c0 -114.667 21.167 -203.334 63.5 -266.001s102.5 -94 180.5 -94z" />
    <glyph glyph-name="pi" unicode="&#x3c0;" 
d="M258 0l-0.000976562 870.003h-168v190h1040v-190h-198v-550c0 -52.667 7.83301 -90.834 23.5 -114.501s49.834 -35.5 102.501 -35.5c9.33301 0 18.833 0.666992 28.5 2s20.834 3.33301 33.501 6l24 -186c-24.667 -4.66699 -47.334 -7.83398 -68.001 -9.50098
s-46.667 -2.5 -78 -2.5c-98 0 -168.833 26.167 -212.5 78.5s-65.5 136.166 -65.5 251.499v560h-250v-870h-212z" />
    <glyph glyph-name="rho" unicode="&#x3c1;" 
d="M168 -460l0.000976562 1065c0 151.333 40.833 268.333 122.5 351s196.834 124 345.501 124c312 0 468 -186.667 468 -560c0 -174 -38.5 -307.5 -115.5 -400.5s-185.833 -139.5 -326.5 -139.5c-74.667 0 -135.334 15.5 -182.001 46.5s-73.334 76.833 -80.001 137.5h-20
v-624h-212zM636.001 900c-81.333 0 -144.333 -26.5 -189 -79.5s-67 -127.833 -67 -224.5v-256c0 -120 89.333 -180 268 -180c164 0 246 120 246 360c0 253.333 -86 380 -258 380z" />
    <glyph glyph-name="sigma1" unicode="&#x3c2;" 
d="M697 -480l-95 180.001c65.333 18.667 116 43.167 152 73.5s54 63.833 54 100.5c0 68.667 -39 104 -117 106h-89c-148.667 0 -263.5 47.5 -344.5 142.5s-121.5 231.5 -121.5 409.5c0 173.333 46.5 308 139.5 404s225.833 144 398.5 144
c103.333 0 191.833 -19.167 265.5 -57.5s126.167 -92.5 157.5 -162.5l-163 -123c-30 48.667 -68.333 86.334 -115 113.001s-97.667 40 -153 40c-98 0 -174.167 -30.167 -228.5 -90.5s-81.5 -146.166 -81.5 -257.499c0 -120.667 26 -212.834 78 -276.501s126 -95.5 222 -95.5
h90c86.667 -1.33301 153.667 -27.833 201 -79.5s71 -123.834 71 -216.501c0 -86.667 -28 -160.834 -84 -222.501s-135 -105.5 -237 -131.5z" />
    <glyph glyph-name="sigma" unicode="&#x3c3;" 
d="M595 -20c-145.333 0 -258.167 48 -338.5 144s-120.5 231.333 -120.5 406c0 168.667 40.167 299.167 120.5 391.5s193.166 138.5 338.499 138.5h605v-190h-381v-24c43.333 -6.66699 81.833 -27.667 115.5 -63s60.334 -80.166 80.001 -134.499s29.5 -113.833 29.5 -178.5
c0 -98 -18.667 -183.833 -56 -257.5s-89.5 -130.834 -156.5 -171.501s-145.833 -61 -236.5 -61zM594.999 170c73.333 0 129.833 31.333 169.5 94s59.5 151.334 59.5 266.001c0 108.667 -19.833 192.5 -59.5 251.5s-96.167 88.5 -169.5 88.5
c-76.667 0 -135.667 -29.5 -177 -88.5s-62 -142.833 -62 -251.5c0 -114.667 20.667 -203.334 62 -266.001s100.333 -94 177 -94z" />
    <glyph glyph-name="tau" unicode="&#x3c4;" 
d="M764 -20c-118 0 -203.168 33.333 -255.501 100s-78.5 173.334 -78.5 320.001v470h-300v190h940v-190h-428v-460c0 -84 12.5 -145 37.5 -183s79.833 -57 164.5 -57c52 0 117.333 12.667 196 38l24 -186c-51.333 -14.667 -100.666 -25.334 -147.999 -32.001
s-98 -10 -152 -10z" />
    <glyph glyph-name="upsilon" unicode="&#x3c5;" 
d="M640 -20c-269.333 0 -404 143.333 -404 430l-1 320c0 51.333 -8.33301 87.5 -25 108.5s-45.667 31.5 -87 31.5h-118v190h158c104.667 0 178.167 -20.833 220.5 -62.5s63.5 -114.167 63.5 -217.5l1 -370c0 -160 64 -240 192 -240s192 80 192 240v650h212v-650
c0 -286.667 -134.667 -430 -404 -430z" />
    <glyph glyph-name="phi" unicode="&#x3c6;" 
d="M494 -440l23 424c-287.333 28 -431 210 -431 546s143.333 518 430 546l-22 424h212l-22 -424c286.667 -28 430 -210 430 -546s-143.667 -518 -431 -546l23 -424h-212zM914 530c0 224.667 -77.667 352.332 -233 382.999v-766c155.333 30.667 233 158.334 233 383.001z
M286 529.998c0 -224.667 77.667 -352.332 233 -382.999v766c-155.333 -30.667 -233 -158.334 -233 -383.001z" />
    <glyph glyph-name="chi" unicode="&#x3c7;" 
d="M86 -420l409.996 722l-162 418c-24 62 -51 105.833 -81 131.5s-66.667 38.5 -110 38.5c-18 0 -38.667 -2.66699 -62 -8l-24 186c34 8 69.333 12 106 12c88 0 156.833 -19.667 206.5 -59s92.834 -106.333 129.501 -201l114 -294l261 534h240l-424 -735l157 -405
c24.667 -62.667 52.334 -106.667 83.001 -132s68.334 -38 113.001 -38c18 0 38.667 2.66699 62 8l24 -186c-34 -8 -69.333 -12 -106 -12c-89.333 0 -159.666 20.5 -210.999 61.5s-96 110.833 -134 209.5l-104 268l-248 -519h-240z" />
    <glyph glyph-name="psi" unicode="&#x3c8;" 
d="M499 -440l15 425c-272 30 -408 211.667 -408 545v530h202v-530c0 -210 70.333 -330.667 211 -362l-15 1332h192l-15 -1332c140.667 31.333 211 152 211 362v530h202v-530c0 -333.333 -136 -515 -408 -545l15 -425h-202z" />
    <glyph glyph-name="omega" unicode="&#x3c9;" 
d="M351 -20c-79.333 0 -140.005 29.5 -182.005 88.5s-63 142.833 -63 251.5v740h212v-740c0 -50.667 7.83301 -90 23.5 -118s38.834 -42 69.501 -42s53.834 15.167 69.501 45.5s23.5 81.833 23.5 154.5v500h180v-500c0 -72.667 7.83301 -124.167 23.5 -154.5
s38.834 -45.5 69.501 -45.5s53.834 14 69.501 42s23.5 67.333 23.5 118v740h212v-740c0 -108.667 -21.667 -192.5 -65 -251.5s-106.666 -88.5 -189.999 -88.5c-69.333 0 -122 27.167 -158 81.5s-59.667 141.833 -71 262.5h-8c-11.333 -120.667 -36 -208.167 -74 -262.5
s-93 -81.5 -165 -81.5z" />
    <glyph glyph-name="iotadieresis" unicode="&#x3ca;" 
d="M764 -20c-118 0 -203.168 33.333 -255.501 100s-78.5 173.334 -78.5 320.001v484h-300v176h512v-650c0 -84 12.5 -145 37.5 -183s79.833 -57 164.5 -57c52 0 117.333 12.667 196 38l24 -186c-51.333 -14.667 -100.666 -25.334 -147.999 -32.001s-98 -10 -152 -10z
M747.999 1238c-36.667 0 -68.167 13.167 -94.5 39.5s-39.5 57.833 -39.5 94.5c0 37.333 13.167 69 39.5 95s57.833 39 94.5 39c37.333 0 69 -13 95 -39s39 -57.667 39 -95c0 -36.667 -13 -68.167 -39 -94.5s-57.667 -39.5 -95 -39.5zM327.999 1238
c-36.667 0 -68.167 13.167 -94.5 39.5s-39.5 57.833 -39.5 94.5c0 37.333 13.167 69 39.5 95s57.833 39 94.5 39c37.333 0 69 -13 95 -39s39 -57.667 39 -95c0 -36.667 -13 -68.167 -39 -94.5s-57.667 -39.5 -95 -39.5z" />
    <glyph glyph-name="upsilondieresis" unicode="&#x3cb;" 
d="M640 -20c-269.333 0 -404 143.333 -404 430l-1 320c0 51.333 -8.33301 87.5 -25 108.5s-45.667 31.5 -87 31.5h-118v190h158c104.667 0 178.167 -20.833 220.5 -62.5s63.5 -114.167 63.5 -217.5l1 -370c0 -160 64 -240 192 -240s192 80 192 240v650h212v-650
c0 -286.667 -134.667 -430 -404 -430zM812 1238c-36.667 0 -68.167 13.167 -94.5 39.5s-39.5 57.833 -39.5 94.5c0 37.333 13.167 69 39.5 95s57.833 39 94.5 39c37.333 0 69 -13 95 -39s39 -57.667 39 -95c0 -36.667 -13 -68.167 -39 -94.5s-57.667 -39.5 -95 -39.5z
M392 1238c-36.667 0 -68.167 13.167 -94.5 39.5s-39.5 57.833 -39.5 94.5c0 37.333 13.167 69 39.5 95s57.833 39 94.5 39c37.333 0 69 -13 95 -39s39 -57.667 39 -95c0 -36.667 -13 -68.167 -39 -94.5s-57.667 -39.5 -95 -39.5z" />
    <glyph glyph-name="omicrontonos" unicode="&#x3cc;" 
d="M600 -20c-146.667 0 -260.667 48 -342 144s-122 231.333 -122 406c0 175.333 40.667 310.833 122 406.5s195.333 143.5 342 143.5c147.333 0 261.5 -47.833 342.5 -143.5s121.5 -231.167 121.5 -406.5c0 -174.667 -40.5 -310 -121.5 -406s-195.167 -144 -342.5 -144z
M600 170c78 0 138.167 31.333 180.5 94s63.5 151.334 63.5 266.001c0 115.333 -21.167 204.166 -63.5 266.499s-102.5 93.5 -180.5 93.5s-138.167 -31.167 -180.5 -93.5s-63.5 -151.166 -63.5 -266.499c0 -114.667 21.167 -203.334 63.5 -266.001s102.5 -94 180.5 -94z
M499 1248l170 380h212l-190 -380h-192z" />
    <glyph glyph-name="upsilontonos" unicode="&#x3cd;" 
d="M640 -20c-269.333 0 -404 143.333 -404 430l-1 320c0 51.333 -8.33301 87.5 -25 108.5s-45.667 31.5 -87 31.5h-118v190h158c104.667 0 178.167 -20.833 220.5 -62.5s63.5 -114.167 63.5 -217.5l1 -370c0 -160 64 -240 192 -240s192 80 192 240v650h212v-650
c0 -286.667 -134.667 -430 -404 -430zM499 1248l170 380h212l-190 -380h-192z" />
    <glyph glyph-name="omegatonos" unicode="&#x3ce;" 
d="M351 -20c-79.333 0 -140.005 29.5 -182.005 88.5s-63 142.833 -63 251.5v740h212v-740c0 -50.667 7.83301 -90 23.5 -118s38.834 -42 69.501 -42s53.834 15.167 69.501 45.5s23.5 81.833 23.5 154.5v500h180v-500c0 -72.667 7.83301 -124.167 23.5 -154.5
s38.834 -45.5 69.501 -45.5s53.834 14 69.501 42s23.5 67.333 23.5 118v740h212v-740c0 -108.667 -21.667 -192.5 -65 -251.5s-106.666 -88.5 -189.999 -88.5c-69.333 0 -122 27.167 -158 81.5s-59.667 141.833 -71 262.5h-8c-11.333 -120.667 -36 -208.167 -74 -262.5
s-93 -81.5 -165 -81.5zM498.995 1248l170 380h212l-190 -380h-192z" />
    <glyph glyph-name="uni03CF" unicode="&#x3cf;" 
d="M160 0l-0.000976562 1420h200v-768c92.667 8.66699 172.834 35.667 240.501 81s123.5 103.833 167.5 175.5s76.667 151.5 98 239.5s32 178.667 32 272h206c0 -144 -23.667 -281.167 -71 -411.5s-116 -241.166 -206 -332.499l289 -443c21.333 -32.667 36 -62.167 44 -88.5
s12 -58.833 12 -97.5v-442h-200v422c0 24 -4 46.333 -12 67s-22.667 47 -44 79l-251 377c-44.667 -26 -92.5 -47 -143.5 -63s-104.833 -26.667 -161.5 -32v-455h-200z" />
    <glyph glyph-name="uni03D7" unicode="&#x3d7;" 
d="M168 0v1060h212v-889h22c10 73.333 28.167 143.333 54.5 210s63.5 130 111.5 190l406 509l153 -119l-322 -403l249 -323c22.667 -28 38.5 -55.833 47.5 -83.5s13.5 -61.5 13.5 -101.5v-445h-212v407c0 34 -3 61.5 -9 82.5s-16.333 40.833 -31 59.5l-188 240l-315 -394
h-192z" />
    <glyph glyph-name="uni0400" unicode="&#x400;" 
d="M160 0v1420h940v-190h-740v-424h560v-190h-560v-426h740v-190h-940zM529 1580l-260 250h282l220 -250h-242z" />
    <glyph glyph-name="afii10023" unicode="&#x401;" 
d="M160 0v1420h940v-190h-740v-424h560v-190h-560v-426h740v-190h-940zM838 1580c-36.667 0 -68.167 13.167 -94.5 39.5s-39.5 57.833 -39.5 94.5c0 37.333 13.167 69 39.5 95s57.833 39 94.5 39c37.333 0 69 -13 95 -39s39 -57.667 39 -95c0 -36.667 -13 -68.167 -39 -94.5
s-57.667 -39.5 -95 -39.5zM418 1580c-36.667 0 -68.167 13.167 -94.5 39.5s-39.5 57.833 -39.5 94.5c0 37.333 13.167 69 39.5 95s57.833 39 94.5 39c37.333 0 69 -13 95 -39s39 -57.667 39 -95c0 -36.667 -13 -68.167 -39 -94.5s-57.667 -39.5 -95 -39.5z" />
    <glyph glyph-name="afii10051" unicode="&#x402;" 
d="M270 0v1230h-250v190h820v-190h-370v-346h190c301.333 0 452 -146.333 452 -439c0 -296.667 -156.667 -445 -470 -445v190c180 0 270 85 270 255c0 166 -84 249 -252 249h-190v-694h-200z" />
    <glyph glyph-name="afii10052" unicode="&#x403;" 
d="M180 0v1420h910v-190h-710v-1230h-200zM489 1580l220 250h282l-260 -250h-242z" />
    <glyph glyph-name="afii10053" unicode="&#x404;" 
d="M758 -20c-441.333 0 -661.999 244 -661.999 732c0 231.333 55.667 410.5 167 537.5s268.333 190.5 471 190.5c98 0 183.333 -15.5 256 -46.5s125.667 -75.167 159 -132.5l-148 -147c-30 45.333 -68.167 80.333 -114.5 105s-96.5 37 -150.5 37
c-118.667 0 -216.334 -37.5 -293.001 -112.5s-122.667 -182.167 -138 -321.5h557v-190h-558c25.333 -312 188 -468 488 -468c96.667 0 192 20 286 60l46 -176c-116 -45.333 -238 -68 -366 -68z" />
    <glyph glyph-name="afii10054" unicode="&#x405;" 
d="M551 -20c-161.333 0 -301.999 25.999 -421.999 77.999l26 202c73.333 -31.333 144.166 -55.166 212.499 -71.499s134.833 -24.5 199.5 -24.5c184 0 276 66 276 198c0 84.667 -43.333 146.667 -130 186l-246 112c-96.667 44 -170.834 97 -222.501 159s-77.5 139 -77.5 231
c0 124 40 220 120 288s193 102 339 102c89.333 0 168.333 -14 237 -42s134.667 -73.667 198 -137l-140 -142c-53.333 48 -103.166 82.833 -149.499 104.5s-94.5 32.5 -144.5 32.5c-78 0 -138.5 -16.5 -181.5 -49.5s-64.5 -81.833 -64.5 -146.5c0 -46 12.333 -83.5 37 -112.5
s61 -54.833 109 -77.5l208 -98c105.333 -49.333 185.333 -105 240 -167s82 -141.667 82 -239c0 -257.333 -168.667 -386 -506 -386z" />
    <glyph glyph-name="afii10055" unicode="&#x406;" 
d="M168 0v190h331v1040h-331v190h864v-190h-333v-1040h333v-190h-864z" />
    <glyph glyph-name="afii10056" unicode="&#x407;" 
d="M168 0v190h331v1040h-331v190h864v-190h-333v-1040h333v-190h-864zM808 1580c-36.667 0 -68.167 13.167 -94.5 39.5s-39.5 57.833 -39.5 94.5c0 37.333 13.167 69 39.5 95s57.833 39 94.5 39c37.333 0 69 -13 95 -39s39 -57.667 39 -95c0 -36.667 -13 -68.167 -39 -94.5
s-57.667 -39.5 -95 -39.5zM388 1580c-36.667 0 -68.167 13.167 -94.5 39.5s-39.5 57.833 -39.5 94.5c0 37.333 13.167 69 39.5 95s57.833 39 94.5 39c37.333 0 69 -13 95 -39s39 -57.667 39 -95c0 -36.667 -13 -68.167 -39 -94.5s-57.667 -39.5 -95 -39.5z" />
    <glyph glyph-name="afii10057" unicode="&#x408;" 
d="M584 -20c-156 0 -276.333 43.501 -361 130.501s-127 208.833 -127 365.5h200c0 -100 25.5 -177.667 76.5 -233s123.167 -83 216.5 -83c90.667 0 160.5 24 209.5 72s73.5 116 73.5 204v794h-372v190h572v-984c0 -144.667 -43 -256.834 -129 -336.501
s-205.667 -119.5 -359 -119.5z" />
    <glyph glyph-name="afii10058" unicode="&#x409;" 
d="M53 0l-0.000976562 190.001c64 0 107.833 18.167 131.5 54.5s35.5 103.166 35.5 200.499v975h525v-504h119c78.667 0 141.667 -41.833 189 -125.5s71 -194.5 71 -332.5s-23.667 -248.833 -71 -332.5s-110.333 -125.5 -189 -125.5h-299v1230h-185v-778
c0 -115.333 -10 -206 -30 -272s-53.667 -112.5 -101 -139.5s-112.666 -40.5 -195.999 -40.5zM805.999 726.001h-61v-536h61c38.667 0 69.667 24.5 93 73.5s35 113.833 35 194.5c0 81.333 -11.667 146.333 -35 195s-54.333 73 -93 73z" />
    <glyph glyph-name="afii10059" unicode="&#x40a;" 
d="M128 0v1420h200v-618h216v618h200v-504h110c81.333 0 146.666 -41.833 195.999 -125.5s74 -194.5 74 -332.5s-24.667 -248.833 -74 -332.5s-114.666 -125.5 -195.999 -125.5h-310v612h-216v-612h-200zM796 726h-52v-536h52c41.333 0 74.666 24.5 99.999 73.5
s38 113.833 38 194.5c0 81.333 -12.667 146.333 -38 195s-58.666 73 -99.999 73z" />
    <glyph glyph-name="afii10060" unicode="&#x40b;" 
d="M240 0v1230h-220v190h820v-190h-400v-360h210c144.667 0 249.5 -37.833 314.5 -113.5s97.5 -197.834 97.5 -366.501v-390h-200v390c0 101.333 -16.667 175 -50 221s-87.333 69 -162 69h-210v-680h-200z" />
    <glyph glyph-name="afii10061" unicode="&#x40c;" 
d="M140 0l-0.000976562 1420h200v-615h206c65.333 0 110.333 13.167 135 39.5s43.334 69.5 56.001 129.5l38 184c14 67.333 30.667 120.333 50 159s46 66.334 80 83.001s80 25 138 25h68v-190h-48c-30.667 0 -52 -8 -64 -24s-22.667 -42.667 -32 -80l-53 -213
c-14.667 -58.667 -37.5 -105.667 -68.5 -141s-86.833 -53 -167.5 -53h-50v-28h50c85.333 0 145.5 -17.667 180.5 -53s59.833 -82.333 74.5 -141l53 -213c9.33301 -37.333 20 -64 32 -80s33.333 -24 64 -24h48v-190h-77c-58 0 -104 8.33301 -138 25s-60.667 44.5 -80 83.5
s-36 91.833 -50 158.5l-38 184c-12 59.333 -31 102.333 -57 129s-74 40 -144 40h-206v-615h-200zM468.999 1580l220 250h282l-260 -250h-242z" />
    <glyph glyph-name="uni040D" unicode="&#x40d;" 
d="M148 0v1420h192v-1070h20l480 1070h212v-1420h-192v1070h-20l-480 -1070h-212zM499 1580l-260 250h282l220 -250h-242z" />
    <glyph glyph-name="afii10062" unicode="&#x40e;" 
d="M203 0l0.000976562 190.001c82 0 150.667 6.16699 206 18.5s102 34.166 140 65.499l-453 1146h220l351 -910h16l273 910h220l-349 -1060c-34.667 -92 -76.834 -164.167 -126.501 -216.5s-114 -89.333 -193 -111s-180.5 -32.5 -304.5 -32.5zM650.001 1570
c-108.667 0 -193.167 25.333 -253.5 76s-90.5 122 -90.5 214h195c0 -58.667 13 -99 39 -121s62.667 -33 110 -33s84 11 110 33s39 62.333 39 121h195c0 -92 -30 -163.333 -90 -214s-144.667 -76 -254 -76z" />
    <glyph glyph-name="afii10145" unicode="&#x40f;" 
d="M140 0v1420h200v-1230h520v1230h200v-1420h-360v-290h-200v290h-360z" />
    <glyph glyph-name="afii10017" unicode="&#x410;" 
d="M45 0l410 1420h290l410 -1420h-210l-93 346h-504l-93 -346h-210zM591 1248l-192 -712h402l-192 712h-18z" />
    <glyph glyph-name="afii10018" unicode="&#x411;" 
d="M160 0v1420h856v-190h-656v-364h330c86.667 0 162.167 -18 226.5 -54s114.333 -86.333 150 -151s53.5 -140.667 53.5 -228c0 -86.667 -17.833 -162.5 -53.5 -227.5s-85.667 -115.5 -150 -151.5s-139.833 -54 -226.5 -54h-530zM632 676h-272v-486h272
c84 0 151.333 22.333 202 67s76 103.334 76 176.001c0 73.333 -25.333 132.166 -76 176.499s-118 66.5 -202 66.5z" />
    <glyph glyph-name="afii10019" unicode="&#x412;" 
d="M160 0v1420h422c144 0 255.333 -31.167 334 -93.5s118 -151.166 118 -266.499c0 -86.667 -29.5 -155.834 -88.5 -207.501s-142.833 -83.167 -251.5 -94.5v-12c140 -2 248.333 -34 325 -96s115 -148.667 115 -260c0 -124 -37.333 -220 -112 -288s-180.667 -102 -318 -102
h-544zM532 1230l-172 -0.000976562v-385h186c88 0 156.333 16.833 205 50.5s73 81.834 73 144.501c0 61.333 -25.333 108.333 -76 141s-122.667 49 -216 49zM632 654.999h-272v-465h286c88 0 156.333 20.167 205 60.5s73 96.833 73 169.5c0 74.667 -25.333 132.5 -76 173.5
s-122.667 61.5 -216 61.5z" />
    <glyph glyph-name="afii10020" unicode="&#x413;" 
d="M180 0v1420h910v-190h-710v-1230h-200z" />
    <glyph glyph-name="afii10021" unicode="&#x414;" 
d="M30 -290v480.001h92c18.667 31.333 35.167 73.666 49.5 126.999s26.333 112.333 36 177s17 129.667 22 195s7.5 125.333 7.5 180v551h807v-1230h126v-480h-200v290h-740v-290h-200zM422 875.001c0 -53.333 -2.16699 -111.667 -6.5 -175s-10.833 -127 -19.5 -191
s-19.667 -123.833 -33 -179.5s-29 -102.167 -47 -139.5h528v1040h-422v-355z" />
    <glyph glyph-name="afii10022" unicode="&#x415;" 
d="M160 0v1420h940v-190h-740v-424h560v-190h-560v-426h740v-190h-940z" />
    <glyph glyph-name="afii10024" unicode="&#x416;" 
d="M27 -5v190h23c12.667 0 24 5 34 15s15 26.333 15 49v296c0 43.333 14.167 77 42.5 101s65.5 37.333 111.5 40l26 2v44l-26 2c-46 3.33301 -83.167 17 -111.5 41s-42.5 57.333 -42.5 100v296c0 22.667 -5 39 -15 49s-21.333 15 -34 15h-23v190h90
c57.333 0 100.666 -15.5 129.999 -46.5s44 -81.167 44 -150.5v-332c0 -36.667 3.33301 -61 10 -73s29.334 -18 68.001 -18h146v615h170v-615h146c39.333 0 62.166 6 68.499 18s9.5 36.333 9.5 73v332c0 69.333 14.833 119.5 44.5 150.5s72.834 46.5 129.501 46.5h90v-190
h-23c-12.667 0 -24 -5 -34 -15s-15 -26.333 -15 -49v-296c0 -42.667 -14.167 -76 -42.5 -100s-65.5 -37.667 -111.5 -41l-36 -2v-44l36 -2c46 -2.66699 83.167 -16 111.5 -40s42.5 -57.667 42.5 -101v-296c0 -22.667 5 -39 15 -49s21.333 -15 34 -15h23v-190h-90
c-56.667 0 -99.834 15.667 -129.501 47s-44.5 81.333 -44.5 150v332c0 36.667 -3.16699 61 -9.5 73s-29.166 18 -68.499 18h-146v-615h-170v615h-146c-38.667 0 -61.334 -6 -68.001 -18s-10 -36.333 -10 -73v-332c0 -68.667 -14.667 -118.667 -44 -150
s-72.666 -47 -129.999 -47h-90z" />
    <glyph glyph-name="afii10025" unicode="&#x417;" 
d="M526 -20c-188.667 0 -342.666 56.998 -461.999 170.998l144 141c55.333 -46 106.333 -78.833 153 -98.5s103.334 -29.5 170.001 -29.5c104 0 185.5 22.167 244.5 66.5s88.5 105.833 88.5 184.5c0 76 -30.333 134.5 -91 175.5s-140.334 61.5 -239.001 61.5h-150l-22 188
c161.333 5.33301 276.666 25.333 345.999 60s104 87.334 104 158.001c0 55.333 -24.833 102 -74.5 140s-132.167 57 -247.5 57c-25.333 0 -55.166 -2.33301 -89.499 -7s-68.166 -10 -101.499 -16s-62 -11.667 -86 -17l-25 184c15.333 4.66699 40 10.167 74 16.5
s71.667 12 113 17s80.666 7.5 117.999 7.5c184.667 0 318 -32 400 -96s123 -147.667 123 -251c0 -83.333 -26.833 -151.5 -80.5 -204.5s-141.834 -93.5 -264.501 -121.5v-12c70.667 -3.33301 136.5 -19 197.5 -47s110.167 -68.333 147.5 -121s56 -117 56 -193
c0 -83.333 -22.167 -156.166 -66.5 -218.499s-107.333 -110.5 -189 -144.5s-178.5 -51 -290.5 -51z" />
    <glyph glyph-name="afii10026" unicode="&#x418;" 
d="M148 0v1420h192v-1070h20l480 1070h212v-1420h-192v1070h-20l-480 -1070h-212z" />
    <glyph glyph-name="afii10027" unicode="&#x419;" 
d="M148 0v1420h192v-1070h20l480 1070h212v-1420h-192v1070h-20l-480 -1070h-212zM600 1570c-108.667 0 -193.167 25.333 -253.5 76s-90.5 122 -90.5 214h195c0 -58.667 13 -99 39 -121s62.667 -33 110 -33s84 11 110 33s39 62.333 39 121h195c0 -92 -30 -163.333 -90 -214
s-144.667 -76 -254 -76z" />
    <glyph glyph-name="afii10028" unicode="&#x41a;" 
d="M140 0l-0.000976562 1420h200v-615h206c65.333 0 110.333 13.167 135 39.5s43.334 69.5 56.001 129.5l38 184c14 67.333 30.667 120.333 50 159s46 66.334 80 83.001s80 25 138 25h68v-190h-48c-30.667 0 -52 -8 -64 -24s-22.667 -42.667 -32 -80l-53 -213
c-14.667 -58.667 -37.5 -105.667 -68.5 -141s-86.833 -53 -167.5 -53h-50v-28h50c85.333 0 145.5 -17.667 180.5 -53s59.833 -82.333 74.5 -141l53 -213c9.33301 -37.333 20 -64 32 -80s33.333 -24 64 -24h48v-190h-77c-58 0 -104 8.33301 -138 25s-60.667 44.5 -80 83.5
s-36 91.833 -50 158.5l-38 184c-12 59.333 -31 102.333 -57 129s-74 40 -144 40h-206v-615h-200z" />
    <glyph glyph-name="afii10029" unicode="&#x41b;" 
d="M37 1l0.00195312 190.002c69.333 0 119.166 17.167 149.499 51.5s49.166 83.166 56.499 146.499s11 138.333 11 225v806h806v-1420h-200v1230h-421v-609c0 -96 -3.83301 -182.167 -11.5 -258.5s-24.5 -141.333 -50.5 -195s-66 -94.834 -120 -123.501
s-127.333 -43 -220 -43z" />
    <glyph glyph-name="afii10030" unicode="&#x41c;" 
d="M128 0v1420h302l162 -610h16l162 610h302v-1420h-192v1168h-26l-162 -588h-184l-162 588h-26v-1168h-192z" />
    <glyph glyph-name="afii10031" unicode="&#x41d;" 
d="M140 0v1420h200v-618h520v618h200v-1420h-200v612h-520v-612h-200z" />
    <glyph glyph-name="afii10032" unicode="&#x41e;" 
d="M600 -20c-349.333 0 -524 240 -524 720c0 493.333 174.667 740 524 740s524 -246.667 524 -740c0 -480 -174.667 -720 -524 -720zM600 164c209.333 0 314 178.667 314 536c0 370.667 -104.667 556 -314 556s-314 -185.333 -314 -556c0 -357.333 104.667 -536 314 -536z
" />
    <glyph glyph-name="afii10033" unicode="&#x41f;" 
d="M140 0v1420h920v-1420h-200v1230h-520v-1230h-200z" />
    <glyph glyph-name="afii10034" unicode="&#x420;" 
d="M160 0v1420h418c172.667 0 306.167 -41.833 400.5 -125.5s141.5 -201.834 141.5 -354.501c0 -158.667 -47.167 -281.667 -141.5 -369s-227.833 -131 -400.5 -131h-218v-440h-200zM578 1230h-218v-600h218c105.333 0 187 25.333 245 76s87 122 87 214
c0 98.667 -29 175 -87 229s-139.667 81 -245 81z" />
    <glyph glyph-name="afii10035" unicode="&#x421;" 
d="M758 -20c-441.333 0 -661.999 244.001 -661.999 732.001c0 231.333 55.667 410.5 167 537.5s268.333 190.5 471 190.5c98 0 183.333 -15.5 256 -46.5s125.667 -75.167 159 -132.5l-148 -147c-30 45.333 -68.167 80.333 -114.5 105s-96.5 37 -150.5 37
c-128.667 0 -231.834 -46.333 -309.501 -139s-116.5 -224.334 -116.5 -395.001c0 -372 160.667 -558 482 -558c96.667 0 192 20 286 60l46 -176c-116 -45.333 -238 -68 -366 -68z" />
    <glyph glyph-name="afii10036" unicode="&#x422;" 
d="M500 0v1230h-420v190h1040v-190h-420v-1230h-200z" />
    <glyph glyph-name="afii10037" unicode="&#x423;" 
d="M203 0l0.000976562 190.001c82 0 150.667 6.16699 206 18.5s102 34.166 140 65.499l-453 1146h220l351 -910h16l273 910h220l-349 -1060c-34.667 -92 -76.834 -164.167 -126.501 -216.5s-114 -89.333 -193 -111s-180.5 -32.5 -304.5 -32.5z" />
    <glyph glyph-name="afii10038" unicode="&#x424;" 
d="M514 -20v164c-298.667 29.333 -448 218 -448 566c0 360 149.333 555.333 448 586v164h170v-164c300 -29.333 450 -224.666 450 -585.999c0 -348.667 -150 -537.334 -450 -566.001v-164h-170zM934 710c0 250.667 -86.667 390.667 -260 420v-820
c173.333 28 260 161.333 260 400zM266 710c0 -238 86 -371.333 258 -400v820c-172 -30 -258 -170 -258 -420z" />
    <glyph glyph-name="afii10039" unicode="&#x425;" 
d="M66 0l435 703l-435 717h230l305 -544l305 544h230l-435 -717l435 -703h-230l-305 533l-305 -533h-230z" />
    <glyph glyph-name="afii10040" unicode="&#x426;" 
d="M140 0v1420h200v-1230h510v1230h200v-1230h110v-480h-200v290h-820z" />
    </font>
</defs>
</svg>
